{"glyphs":{"0":{"ha":777,"x_min":67,"x_max":735,"o":"m 720 804 l 720 804 q 731 695 735 765 q 716 564 727 626 q 692 431 706 503 q 665 307 679 359 q 632 224 653 262 q 557 119 611 186 q 433 18 498 48 q 321 -14 368 -13 q 257 -11 279 -16 q 214 4 235 -5 q 212 5 213 5 q 153 40 186 16 q 100 94 119 65 q 82 133 86 117 q 75 177 77 150 q 71 199 73 187 q 73 286 67 239 q 86 370 79 333 q 89 386 87 378 q 104 467 96 428 q 112 510 109 494 q 125 551 116 528 q 140 600 134 575 q 149 645 144 623 q 158 680 154 667 q 175 727 161 690 q 207 810 188 764 q 245 891 226 856 q 292 937 261 916 q 357 972 323 958 q 416 994 391 986 q 441 1002 441 1002 q 452 1001 442 1002 q 498 999 471 1000 q 538 999 526 998 q 551 997 546 1000 q 560 988 555 994 q 575 972 565 981 q 616 945 591 960 q 661 918 639 933 q 687 887 677 906 q 705 843 696 867 q 720 804 711 825 m 608 645 l 608 645 q 603 735 608 688 q 589 797 597 781 q 554 848 576 820 q 545 859 549 853 q 526 880 535 871 q 507 888 517 888 q 491 889 498 888 q 478 890 483 890 q 473 891 473 891 q 464 890 473 891 q 442 888 455 889 q 415 884 429 886 q 393 880 402 882 q 385 875 385 878 q 368 856 385 875 q 328 807 351 836 q 285 749 304 779 q 259 699 265 720 q 245 638 252 671 q 234 581 239 605 q 230 556 230 556 l 283 591 q 274 578 283 591 q 254 546 265 565 q 232 506 242 526 q 218 469 222 486 q 208 429 213 448 q 192 359 199 398 q 184 281 186 324 q 191 213 182 237 q 209 179 199 193 q 233 148 218 165 q 240 140 237 144 q 248 127 246 132 q 251 119 250 123 q 253 115 252 117 q 258 112 254 113 q 271 110 262 111 q 296 108 279 109 q 329 104 316 106 q 365 103 353 102 q 397 113 378 104 q 448 145 423 126 q 487 180 472 163 q 504 210 496 193 q 517 243 511 227 q 526 264 522 258 q 532 282 528 270 q 541 309 536 295 q 548 332 545 322 q 551 342 551 342 l 492 326 q 500 349 492 326 q 519 402 508 371 q 542 461 531 433 q 559 502 553 489 q 566 517 562 509 q 592 576 578 542 q 608 645 605 610 z "},"1":{"ha":496,"x_min":37,"x_max":470,"o":"m 326 901 l 326 901 l 326 901 q 353 923 340 913 q 360 929 357 926 q 365 932 363 931 q 370 936 367 934 q 380 945 372 939 q 389 952 385 949 q 402 964 396 959 q 418 972 409 968 q 431 979 424 977 q 452 991 446 987 q 456 995 454 993 q 465 1001 460 999 q 469 1006 467 1002 l 470 1006 l 432 888 q 428 857 431 873 q 421 829 425 840 q 420 827 420 828 q 411 800 416 814 q 397 756 406 785 q 389 726 391 736 q 384 709 387 718 q 372 682 380 701 q 365 659 366 668 q 362 643 363 650 q 358 623 361 634 q 347 591 355 611 q 287 434 316 525 q 233 261 258 344 q 184 113 200 147 q 179 103 182 107 q 171 88 175 94 q 162 78 168 83 q 147 67 157 74 q 120 48 138 61 q 84 20 103 35 q 53 -4 66 6 q 40 -14 40 -14 q 43 -7 40 -14 q 49 11 45 1 q 56 31 53 21 q 60 47 59 41 q 66 84 60 52 q 81 158 73 116 q 96 237 89 200 q 106 290 103 273 l 112 300 l 136 378 q 139 380 138 379 q 141 389 140 382 q 143 404 142 395 q 146 429 144 416 q 151 451 149 441 q 154 462 153 458 q 156 469 155 467 q 157 475 157 472 q 160 492 158 481 q 163 506 161 500 q 167 527 165 517 q 174 547 170 536 q 181 563 178 555 q 192 590 190 581 q 193 596 193 593 q 197 608 195 604 q 197 616 197 611 q 215 657 205 635 q 230 692 225 680 q 235 710 232 699 q 197 688 209 693 q 189 684 192 686 q 175 679 180 680 q 164 677 170 677 q 149 678 159 677 q 122 680 140 679 q 84 681 104 680 q 51 681 64 681 q 37 682 37 682 q 43 685 37 682 q 56 693 48 688 q 72 703 64 698 q 82 710 79 707 q 106 731 85 714 q 153 771 126 749 q 204 814 180 794 q 239 842 229 834 l 248 846 l 284 870 q 287 882 286 879 l 326 901 z "},"2":{"ha":740,"x_min":60,"x_max":695,"o":"m 621 961 l 621 961 l 621 961 q 630 952 621 961 q 653 928 640 943 q 677 898 667 914 q 691 811 695 876 q 625 622 687 746 q 494 433 578 536 q 330 250 410 330 q 215 151 250 170 q 206 136 195 140 q 248 131 218 132 q 311 131 277 130 q 378 130 355 132 q 401 127 391 128 q 421 127 411 127 q 456 125 435 127 q 517 119 478 123 q 544 116 534 117 q 561 113 555 114 q 571 110 568 111 q 575 107 574 109 q 577 105 576 106 q 579 102 578 104 q 585 99 581 101 q 596 96 589 98 q 622 80 612 91 q 638 57 632 69 q 648 36 645 45 q 650 26 650 26 l 60 16 q 71 47 60 16 q 100 123 82 79 q 138 210 118 167 q 165 267 155 243 q 193 326 177 297 q 245 400 210 355 q 339 511 301 468 q 402 586 370 547 q 443 633 420 607 q 517 722 484 678 q 547 789 551 766 q 512 864 538 821 q 456 922 486 908 q 426 923 439 927 q 396 909 413 919 q 328 877 374 895 q 293 860 304 867 q 276 845 281 852 q 267 830 271 838 q 258 813 264 823 q 240 792 252 804 q 199 744 218 770 q 169 698 180 718 q 158 678 158 678 q 159 701 158 678 q 162 754 161 724 q 165 808 164 784 q 171 839 165 828 q 186 859 177 850 q 207 890 197 869 q 223 914 215 906 q 240 927 231 922 q 268 951 252 935 q 298 969 280 964 q 342 978 316 975 q 417 993 373 982 q 502 997 458 1003 q 578 980 545 991 q 621 961 611 968 z "},"3":{"ha":723,"x_min":53,"x_max":691,"o":"m 624 991 l 624 991 l 624 991 q 635 963 628 988 q 648 906 642 938 q 656 850 654 874 q 658 833 656 840 q 663 821 660 826 q 667 805 666 814 q 666 778 669 796 q 652 726 663 760 q 607 645 635 676 q 556 598 579 613 q 532 583 532 583 q 542 577 532 583 q 563 561 551 570 q 585 542 575 552 q 597 525 595 532 q 621 498 600 513 q 672 451 640 485 q 691 415 691 429 q 680 382 690 401 q 656 313 668 360 q 642 259 649 275 q 627 232 635 243 q 615 212 622 224 q 600 178 608 199 q 573 131 588 146 q 541 104 558 115 q 491 62 517 91 q 403 15 457 23 q 279 17 349 6 q 182 43 214 24 q 100 123 151 62 q 63 195 73 155 q 54 272 53 235 q 59 334 54 309 q 64 358 64 358 q 69 350 64 358 q 82 331 75 342 q 96 309 90 320 q 104 292 102 298 q 118 268 108 283 q 138 241 128 254 q 149 229 144 233 q 166 207 155 220 q 197 168 182 189 q 215 156 205 157 q 245 157 225 155 q 326 162 269 162 q 375 165 359 162 q 400 173 392 168 q 415 186 408 178 q 442 210 423 196 q 477 237 465 225 q 498 267 489 248 q 519 321 507 285 q 526 383 528 350 q 518 446 525 416 q 506 495 512 475 q 500 515 500 515 l 308 578 q 320 582 308 578 q 350 591 333 585 q 381 602 366 596 q 394 606 389 605 q 407 611 401 608 q 423 621 412 614 q 455 644 433 629 q 485 664 473 657 q 505 676 496 671 q 525 689 514 682 q 552 711 535 696 q 566 740 569 726 q 551 769 563 753 q 525 834 532 793 q 507 880 522 870 q 472 892 493 890 q 441 901 458 895 q 433 903 437 902 q 420 908 425 907 q 413 908 416 909 q 405 904 410 907 q 359 880 397 897 q 322 859 334 869 q 300 838 310 849 q 276 811 292 827 q 227 774 260 796 q 213 765 220 769 q 200 756 206 760 q 189 749 195 753 q 180 743 184 746 q 172 739 176 741 q 165 735 168 736 q 159 732 161 733 q 155 729 157 730 q 151 727 153 728 q 148 726 149 726 q 146 725 146 726 q 144 725 145 725 q 143 725 144 725 q 143 725 143 725 q 143 726 143 726 q 143 726 142 726 q 143 726 143 726 q 143 726 143 726 q 149 731 143 726 q 162 743 155 735 q 176 761 170 751 q 183 782 182 771 q 213 850 189 812 q 231 882 222 865 q 248 906 240 899 q 264 916 256 912 q 301 941 277 922 q 345 974 327 963 q 368 990 355 981 q 397 1015 380 999 q 470 1034 425 1040 q 587 1002 515 1027 q 624 991 605 997 z "},"4":{"ha":841,"x_min":9,"x_max":814,"o":"m 804 387 l 804 387 q 805 387 804 387 q 808 387 806 387 q 811 386 810 387 q 814 386 813 386 q 814 385 814 385 q 810 384 813 385 q 800 383 806 384 q 804 387 804 387 m 641 382 l 641 382 q 684 379 663 379 q 737 380 705 379 q 772 382 752 381 q 800 383 791 382 q 760 346 789 370 q 702 313 730 321 q 655 303 680 307 q 612 297 630 299 q 594 294 594 294 q 591 287 594 294 q 585 270 589 280 q 578 249 582 259 q 573 230 575 238 q 568 203 570 218 q 557 140 566 184 q 518 82 549 112 q 456 27 488 52 q 412 -12 425 2 q 405 -21 405 -22 q 409 -9 404 -20 q 441 83 422 17 q 449 114 446 102 q 454 131 452 125 q 455 139 455 136 q 456 143 456 141 q 456 148 456 144 q 458 158 457 151 q 467 210 462 174 q 476 280 472 247 q 481 323 480 314 q 479 328 481 326 q 474 329 477 330 q 467 328 471 329 q 461 326 463 327 q 458 326 458 326 q 420 327 458 326 q 316 338 381 329 q 293 342 302 340 q 258 347 269 345 q 240 348 247 348 q 222 349 233 349 q 201 349 214 349 q 181 348 188 349 q 169 347 174 348 q 160 346 165 347 q 139 343 154 345 q 92 338 124 341 q 73 337 81 337 q 56 336 64 336 q 43 336 49 336 q 33 337 37 336 q 25 337 28 337 q 19 338 22 338 q 15 340 16 339 q 12 341 13 340 q 11 342 11 342 q 10 344 10 343 q 10 345 9 345 q 10 346 10 345 q 10 346 10 346 q 35 380 10 346 q 94 458 59 414 q 162 534 129 501 q 215 585 192 563 q 264 631 238 606 q 342 704 294 659 q 496 852 407 765 q 599 954 553 909 q 659 1008 645 998 q 663 998 660 1010 q 669 967 666 986 q 673 928 671 947 q 673 895 674 908 q 669 866 671 879 q 664 834 667 852 q 654 787 661 817 q 638 700 649 761 q 615 569 627 638 q 595 448 604 499 q 586 397 586 397 q 599 392 586 397 q 641 382 612 387 m 547 725 l 547 725 q 552 762 550 742 q 555 798 554 783 q 555 815 556 813 q 423 648 534 762 q 384 606 398 621 q 361 582 370 591 q 343 562 353 572 q 314 534 333 551 q 290 512 299 520 q 276 501 281 505 q 267 494 271 497 q 257 488 262 492 q 243 477 252 484 q 203 453 226 464 q 162 435 180 442 q 144 429 144 429 q 172 428 144 429 q 238 427 200 427 q 314 429 275 427 q 350 431 338 429 q 370 434 363 433 q 381 436 376 435 q 395 436 387 437 q 418 433 404 435 q 499 423 499 423 q 502 446 499 423 q 510 503 505 469 q 520 571 515 536 q 530 629 526 605 q 537 674 534 659 q 541 699 539 689 q 547 725 543 709 z "},"5":{"ha":838,"x_min":37,"x_max":839,"o":"m 839 930 l 839 930 l 839 930 q 827 918 838 926 q 801 901 817 910 q 768 878 784 890 q 752 866 756 870 q 746 862 749 863 q 739 859 744 860 q 724 854 734 857 q 718 852 722 853 q 696 843 705 848 q 683 832 687 838 q 677 823 678 827 q 675 819 675 819 q 654 817 675 819 q 602 812 632 814 q 546 814 572 810 q 499 818 527 817 q 444 820 471 819 q 398 820 417 820 q 380 819 380 819 q 375 804 380 819 q 360 768 370 789 q 335 732 350 748 q 316 695 322 718 q 307 644 310 672 q 290 570 302 607 q 288 566 289 568 q 283 549 284 553 q 282 545 281 545 q 285 550 283 546 q 298 570 290 558 q 315 588 306 581 q 333 598 326 594 q 348 606 340 602 q 379 621 359 610 q 406 633 395 630 q 427 637 416 636 q 451 642 437 638 q 488 651 473 648 q 502 655 502 655 l 523 601 q 544 604 523 601 q 602 616 566 607 q 617 620 611 618 q 626 622 623 621 q 631 621 629 622 q 633 620 633 621 q 632 618 633 619 q 630 616 631 617 q 628 614 629 615 q 627 614 627 614 q 635 606 627 614 q 654 587 643 597 q 678 570 666 577 q 690 561 686 566 q 697 549 694 556 q 712 528 702 541 q 745 496 722 515 q 773 441 775 470 q 755 374 772 413 q 736 313 746 347 q 696 202 720 247 q 616 102 673 157 q 464 20 554 44 q 277 13 373 -4 q 179 57 208 27 q 138 121 151 87 q 119 157 130 140 q 100 190 106 175 q 88 220 93 205 q 63 277 81 243 q 47 309 53 296 q 39 330 41 322 q 37 341 37 338 q 37 344 37 344 q 50 337 37 344 q 82 321 63 330 q 121 305 102 312 q 153 298 141 298 q 173 297 166 298 q 185 296 180 297 q 196 292 190 294 q 214 288 203 290 q 229 279 227 284 q 229 264 231 273 q 232 231 227 252 q 251 198 237 210 q 296 170 264 186 q 326 151 309 162 q 376 137 357 134 q 422 155 396 140 q 528 200 454 176 q 587 223 570 212 q 606 246 604 234 q 605 274 608 258 q 607 344 597 299 q 614 427 623 401 q 574 483 605 453 q 563 496 569 489 q 459 538 526 538 q 290 475 391 538 q 257 454 272 463 q 229 438 241 445 q 207 428 216 432 q 189 421 197 423 q 176 417 182 418 q 166 416 170 416 q 160 417 162 416 q 156 419 157 418 q 153 421 154 420 q 153 423 153 422 q 153 424 153 424 q 162 441 153 424 q 181 483 171 458 q 195 532 191 508 q 199 566 198 554 q 199 590 200 578 q 195 624 198 602 q 200 662 192 645 q 222 699 208 680 q 256 755 239 722 q 261 767 259 762 q 276 800 272 789 q 279 820 280 811 q 271 842 277 828 q 269 850 270 846 q 249 889 260 871 q 227 918 237 907 q 218 930 218 930 q 218 930 218 930 q 218 930 218 930 q 218 929 218 930 q 219 929 218 929 q 220 929 220 929 q 222 928 221 928 q 224 927 223 928 q 228 926 226 927 q 232 925 229 926 q 237 924 234 924 q 242 922 239 923 q 249 921 245 922 q 257 919 253 920 q 267 917 262 918 q 299 912 288 912 q 328 916 311 912 q 399 924 348 919 q 439 928 425 927 q 460 929 452 929 q 475 929 468 929 q 505 928 484 928 q 572 930 526 928 q 758 931 677 933 q 839 930 839 930 z "},"6":{"ha":784,"x_min":26,"x_max":755,"o":"m 604 568 l 604 568 q 629 542 618 551 q 655 508 645 528 q 669 438 665 488 q 662 328 673 390 q 627 213 650 266 q 573 140 604 161 q 508 77 536 116 q 462 27 487 50 q 404 0 437 5 q 325 -16 363 -7 q 261 -29 289 -25 q 217 -26 233 -33 q 203 -18 211 -22 q 126 26 172 -3 q 55 101 81 56 q 33 144 39 129 q 27 171 27 160 q 28 195 26 182 q 31 214 30 203 q 35 294 33 238 q 40 408 37 349 q 50 503 43 467 q 92 652 62 559 q 149 798 121 744 q 191 852 168 830 q 241 895 215 875 q 296 941 269 916 q 409 989 341 981 q 541 989 476 997 q 620 963 591 983 q 673 913 648 942 q 693 891 682 902 q 720 849 713 869 q 729 811 727 829 q 741 770 731 789 q 740 765 739 770 q 743 752 741 760 q 748 737 745 745 q 753 725 751 730 q 755 720 755 720 q 744 720 755 720 q 717 722 733 720 q 684 727 701 723 q 654 736 667 730 q 597 798 630 751 q 555 850 578 823 q 506 897 532 877 q 443 909 471 920 q 386 875 414 899 q 333 840 361 855 q 279 802 298 823 q 240 751 260 781 q 207 703 227 730 q 176 645 186 675 q 161 591 165 615 q 158 555 157 566 q 159 551 158 543 q 178 570 162 561 q 214 588 194 579 q 260 612 245 600 q 310 632 279 628 q 352 644 331 635 q 394 649 369 650 q 447 644 419 648 q 500 638 474 640 q 553 622 534 636 q 593 580 572 608 q 604 568 598 574 m 531 366 l 531 366 q 535 397 534 385 q 536 410 536 410 q 528 402 536 410 q 509 383 519 394 q 488 361 498 372 q 497 406 495 380 q 498 455 499 432 q 491 497 496 485 q 478 513 485 509 q 466 518 474 515 q 447 525 457 522 q 430 530 437 528 q 423 532 423 532 q 422 532 423 532 q 420 532 421 532 q 417 532 418 532 q 415 531 416 532 q 415 531 414 531 q 410 531 412 531 q 340 527 383 532 q 269 494 297 522 q 220 456 243 469 q 182 418 191 440 q 176 388 180 408 q 170 346 173 368 q 164 310 167 325 q 162 295 162 295 l 251 354 q 239 333 251 354 q 221 275 228 311 q 211 239 217 253 q 204 211 205 224 q 219 177 204 198 q 265 120 241 144 q 321 98 290 97 q 349 98 336 99 q 395 102 372 97 q 439 132 417 106 q 456 152 450 145 q 464 163 462 159 q 468 171 467 168 q 473 180 469 174 q 484 197 476 186 q 507 237 503 224 q 512 250 512 250 q 513 262 512 250 q 520 298 514 275 q 525 323 524 313 q 528 342 527 333 q 531 366 529 353 m 473 340 l 473 340 q 470 339 469 337 q 476 348 471 342 q 488 361 481 353 q 473 340 482 346 z "},"7":{"ha":716,"x_min":20,"x_max":701,"o":"m 635 991 l 635 991 l 635 991 l 656 1000 q 666 997 659 1001 q 683 987 674 993 q 696 977 692 981 q 696 970 701 972 q 693 960 696 970 q 686 936 690 950 q 676 907 681 921 q 666 884 671 893 q 665 881 665 883 q 648 851 656 867 q 624 802 640 834 q 608 768 612 779 q 603 755 606 761 q 595 740 600 749 q 581 718 590 732 q 568 692 572 702 q 562 673 564 682 q 553 651 559 664 q 533 615 548 637 q 434 438 486 541 q 338 242 382 336 q 253 75 278 114 q 245 64 249 68 q 233 47 238 54 q 221 36 229 41 q 201 24 214 31 q 168 2 190 16 q 121 -29 145 -13 q 81 -57 98 -45 q 64 -68 64 -68 q 69 -60 64 -68 q 80 -40 73 -52 q 92 -17 86 -28 q 99 0 97 -6 q 114 43 101 7 q 145 126 127 79 q 178 215 163 174 q 201 275 194 256 l 209 286 l 252 375 q 256 377 255 376 q 260 387 258 379 q 266 404 262 394 q 274 432 270 418 q 284 456 279 446 q 290 470 288 465 q 293 477 292 474 q 296 485 294 481 q 302 504 298 490 q 309 519 306 512 q 318 542 313 532 q 330 565 322 553 q 340 583 335 574 q 359 614 354 604 q 361 621 360 618 q 368 635 364 629 q 370 644 369 637 q 399 690 383 664 q 422 729 414 715 q 450 789 432 749 q 468 827 459 808 q 360 821 412 824 q 183 814 225 810 q 171 815 176 814 q 147 820 155 817 q 127 836 139 823 q 101 857 118 844 q 66 884 84 870 q 34 908 47 898 q 20 918 20 918 q 30 917 20 918 q 51 917 39 917 q 75 918 64 918 q 94 920 87 919 q 138 928 100 922 q 225 942 176 934 q 318 957 275 950 q 380 966 361 964 l 393 964 l 486 969 q 489 967 488 968 q 499 968 491 967 q 517 972 507 970 q 546 978 532 975 q 572 983 561 981 q 586 983 581 983 q 594 984 591 984 q 602 986 597 985 q 622 989 608 987 q 635 991 629 990 z "},"8":{"ha":736,"x_min":31,"x_max":714,"o":"m 701 654 l 701 654 q 702 653 701 654 q 702 652 702 653 q 703 651 703 652 q 702 648 703 650 q 701 645 702 647 q 697 641 700 644 q 691 636 695 639 q 682 630 688 633 q 669 623 677 627 q 635 607 650 613 q 608 594 618 601 q 595 575 598 588 q 592 560 593 565 q 589 553 590 555 q 588 548 589 551 q 586 541 587 546 q 585 536 585 538 q 584 528 583 532 q 588 517 584 524 q 603 499 592 511 q 633 445 616 484 q 665 361 651 406 q 681 286 679 317 q 673 217 683 243 q 639 162 664 192 q 621 136 627 147 q 596 107 610 119 q 541 77 581 94 q 508 63 520 69 q 488 52 496 56 q 454 35 475 43 q 381 10 433 26 q 316 -7 340 -2 q 278 -13 292 -12 q 252 -12 264 -14 q 219 -12 239 -12 q 177 -7 199 -13 q 135 6 155 -2 q 102 21 115 14 q 90 27 90 27 q 83 32 90 27 q 70 46 77 37 q 58 66 63 55 q 54 89 53 77 q 45 134 54 109 q 35 173 39 152 q 34 215 31 193 q 38 243 37 233 q 37 260 38 253 q 37 274 36 266 q 42 297 37 282 q 50 319 47 311 q 58 344 53 334 q 80 373 64 354 q 92 389 88 383 q 96 398 95 395 q 99 405 97 401 q 107 412 102 408 q 126 423 113 416 q 176 460 151 438 q 215 498 200 483 q 229 511 227 511 q 196 536 220 511 q 154 596 172 562 q 140 660 136 630 q 144 709 144 686 q 150 757 144 734 q 177 803 155 780 q 213 843 200 826 q 239 872 225 859 q 277 896 252 885 q 320 920 306 909 q 346 933 333 928 q 382 941 359 939 q 400 945 395 941 q 406 953 406 948 q 404 963 406 958 q 397 972 401 968 q 390 980 393 977 q 387 983 387 983 q 388 984 387 983 q 390 986 389 985 q 395 990 392 988 q 404 993 399 991 q 418 995 410 994 q 437 994 426 995 q 463 991 448 994 q 498 985 482 988 q 549 977 528 981 q 591 960 569 972 q 628 933 614 948 q 652 903 642 918 q 661 890 656 896 q 675 876 669 881 q 691 859 684 869 q 708 828 699 849 q 711 791 714 812 q 702 752 709 771 q 690 720 696 733 q 684 707 684 707 l 701 654 m 551 316 l 551 316 q 553 387 556 355 q 526 437 550 419 q 504 454 514 445 q 466 478 487 469 q 412 481 446 487 q 385 475 394 477 q 371 472 376 473 q 363 469 367 470 q 354 464 360 467 q 334 458 347 462 q 288 441 301 448 q 275 434 275 434 q 266 425 275 434 q 237 401 257 416 q 216 386 224 393 q 201 372 208 378 q 183 357 193 366 q 158 334 168 344 q 149 325 149 325 q 160 329 149 325 q 188 337 172 332 q 218 345 203 341 q 241 348 233 348 q 244 342 249 348 q 210 317 233 331 q 147 268 174 296 q 124 232 128 244 q 123 212 121 219 q 129 201 125 208 q 139 185 134 193 q 148 171 144 176 q 152 165 152 165 q 153 164 152 165 q 155 163 154 163 q 157 161 156 162 q 159 161 159 161 q 160 161 160 161 q 164 157 161 159 q 220 120 183 141 q 297 102 257 99 q 361 103 334 106 q 414 110 394 98 q 441 130 425 117 q 474 157 457 143 q 502 182 490 172 q 514 193 514 193 l 406 199 q 429 209 406 199 q 482 242 452 218 q 514 264 500 256 q 538 281 529 271 q 551 316 548 292 m 543 694 l 543 694 q 566 715 555 708 q 583 733 576 724 q 588 762 589 742 q 582 818 588 793 q 553 855 576 844 q 534 866 543 860 q 502 881 519 876 q 458 877 484 886 q 437 869 444 872 q 427 865 430 867 q 420 861 423 863 q 413 857 418 859 q 398 849 408 854 q 364 830 373 838 q 355 823 355 823 q 349 815 355 823 q 328 793 342 807 q 313 778 319 784 q 302 765 307 771 q 290 751 297 759 q 273 730 279 739 q 267 721 267 721 q 275 725 267 721 q 296 735 284 730 q 319 745 308 741 q 337 750 331 749 q 340 746 344 751 q 316 722 333 736 q 272 675 290 701 q 258 644 260 654 q 260 628 256 633 q 266 620 261 625 q 275 608 270 614 q 284 598 280 602 q 288 594 288 594 q 289 594 288 594 q 291 593 290 593 q 293 592 292 592 q 294 591 294 591 q 294 591 295 591 q 298 589 296 591 q 348 566 316 578 q 411 561 380 553 q 462 569 440 568 q 504 581 489 569 q 522 600 511 587 q 545 626 534 612 q 565 649 557 640 q 574 659 574 659 l 486 652 q 504 662 486 652 q 543 694 522 672 z "},"9":{"ha":764,"x_min":31,"x_max":749,"o":"m 727 871 l 727 871 q 744 828 740 844 q 748 802 749 813 q 745 779 748 791 q 742 760 743 770 q 732 681 738 736 q 720 569 727 627 q 704 475 713 511 q 655 329 689 420 q 591 185 622 239 q 549 132 572 154 q 498 90 525 110 q 444 44 472 70 q 336 -2 399 6 q 212 -3 272 -10 q 140 24 165 3 q 94 73 115 44 q 77 94 86 83 q 54 135 59 116 q 49 172 50 155 q 40 213 48 194 q 41 218 42 213 q 39 231 41 223 q 35 245 37 238 q 32 258 33 253 q 31 262 31 262 q 41 262 31 262 q 66 261 51 262 q 96 256 81 259 q 124 246 112 252 q 173 186 145 232 q 209 135 189 161 q 252 89 228 109 q 309 76 281 66 q 365 110 336 87 q 416 144 389 130 q 470 181 450 161 q 509 232 489 202 q 544 279 524 252 q 577 336 565 307 q 594 389 589 366 q 600 425 600 413 q 599 429 601 436 q 580 410 596 419 q 545 392 564 401 q 501 368 515 380 q 452 349 482 353 q 412 338 433 345 q 373 332 396 331 q 323 338 349 334 q 275 343 298 341 q 226 359 243 345 q 191 400 209 373 q 182 412 187 406 q 161 437 170 428 q 138 470 146 451 q 130 539 130 490 q 144 648 130 587 q 184 761 159 709 q 240 832 210 812 q 305 895 276 857 q 351 943 327 922 q 408 970 376 965 q 483 986 447 977 q 544 999 517 995 q 585 996 570 1003 q 597 989 589 992 q 665 944 625 974 q 727 871 705 915 m 586 559 l 586 559 q 594 589 589 570 q 603 630 599 609 q 610 665 608 650 q 613 680 613 680 l 527 622 q 539 643 527 622 q 560 700 551 664 q 572 735 566 722 q 579 763 578 749 q 568 796 581 776 q 529 852 550 829 q 478 873 508 875 q 452 873 465 873 q 409 870 430 876 q 366 840 388 865 q 349 821 354 828 q 340 810 343 814 q 336 802 338 806 q 331 793 334 799 q 319 777 328 788 q 295 737 300 750 q 290 724 290 724 q 288 712 290 724 q 279 677 286 701 q 272 652 275 663 q 269 633 270 642 q 264 611 267 624 q 258 579 260 592 q 256 567 256 567 q 263 576 256 567 q 279 599 270 586 q 298 623 289 612 q 314 638 308 634 q 319 636 320 643 q 308 596 317 621 q 289 523 292 559 q 293 481 288 493 q 304 466 297 469 q 315 461 307 464 q 332 454 323 458 q 347 449 340 451 q 353 447 353 447 q 354 447 353 447 q 356 447 355 447 q 359 447 357 447 q 361 448 360 448 q 361 448 361 448 q 366 448 363 448 q 431 452 391 447 q 500 484 472 458 q 549 522 526 509 q 586 559 577 538 z "}," ":{"ha":345,"x_min":0,"x_max":0,"o":""},"!":{"ha":456,"x_min":26,"x_max":431,"o":"m 385 1004 l 385 1004 l 385 1004 q 395 1001 387 1005 q 412 992 403 998 q 426 982 421 987 q 427 977 431 978 q 426 967 427 977 q 423 944 425 958 q 418 917 421 930 q 413 896 416 904 q 412 893 412 895 q 402 864 407 880 q 387 819 397 849 q 378 787 380 796 q 373 768 376 777 q 361 739 370 759 q 353 715 355 724 q 350 698 351 706 q 347 676 349 689 q 334 643 344 664 q 270 477 301 573 q 214 293 239 381 q 210 281 212 287 l 66 256 q 79 323 75 303 l 85 334 l 111 417 q 114 419 113 418 q 116 428 115 421 q 118 445 117 435 q 121 471 119 458 q 126 494 123 484 q 130 506 129 502 q 132 514 131 511 q 133 521 132 517 q 136 538 134 526 q 139 553 138 546 q 143 575 141 565 q 151 595 146 585 q 159 613 155 605 q 170 642 168 633 q 171 648 171 646 q 174 661 172 656 q 176 670 176 664 q 195 713 184 689 q 210 750 205 737 q 227 806 216 768 q 237 843 232 825 q 246 872 242 861 q 256 903 251 886 q 266 933 262 920 q 271 951 270 947 l 385 1004 m 120 228 l 120 228 l 120 228 q 127 226 121 228 q 142 223 134 224 q 156 219 150 221 q 162 218 162 218 q 176 203 162 218 q 183 190 181 197 q 186 168 184 183 q 186 163 186 165 q 178 130 188 146 q 159 102 169 114 q 156 98 157 100 q 133 76 147 87 q 109 64 119 64 q 95 67 100 64 q 84 73 90 69 q 72 80 79 77 q 51 92 60 84 q 37 118 44 101 q 27 149 29 136 q 32 168 26 159 q 48 186 38 176 q 57 196 52 191 q 74 209 64 203 q 95 219 85 215 q 113 226 106 224 q 120 228 120 228 z "},"\"":{"ha":496,"x_min":43,"x_max":458,"o":"m 210 1004 l 210 1004 l 210 1004 q 220 1001 212 1005 q 237 992 228 998 q 251 982 246 987 q 252 977 256 978 q 251 967 252 977 q 248 944 250 958 q 244 917 246 930 q 239 896 241 904 q 237 893 238 895 q 229 868 233 881 q 217 831 224 855 l 43 776 q 52 806 47 789 q 62 843 57 825 q 71 872 68 861 q 81 903 76 886 q 91 933 87 920 q 96 951 95 947 l 210 1004 m 412 1004 l 412 1004 l 412 1004 q 422 1001 414 1005 q 439 992 430 998 q 453 982 448 987 q 454 977 458 978 q 453 967 454 977 q 450 944 452 958 q 446 917 448 930 q 441 896 444 904 q 439 893 440 895 q 431 868 435 881 q 419 831 426 855 l 245 776 q 254 806 250 789 q 264 843 259 825 q 273 872 270 861 q 283 903 278 886 q 293 933 289 920 q 298 951 297 947 l 412 1004 z "},"#":{"ha":1094,"x_min":81,"x_max":1017,"o":"m 568 1004 l 568 1004 l 568 1004 q 578 1001 570 1005 q 596 992 587 998 q 610 982 605 987 q 611 977 615 978 q 610 967 611 977 q 607 944 609 958 q 603 917 605 930 q 597 896 600 904 q 596 893 597 895 q 586 864 591 880 q 571 819 581 849 q 562 787 565 796 q 558 770 561 778 q 549 747 555 762 q 562 747 553 747 q 575 748 569 748 q 595 749 586 749 q 614 748 604 749 q 630 745 623 747 q 657 742 648 742 q 663 743 661 743 q 675 743 670 743 q 682 743 677 743 q 723 737 700 741 q 758 733 746 734 q 788 732 768 732 q 795 750 793 743 q 812 806 802 768 q 823 843 817 825 q 831 872 828 861 q 842 903 836 886 q 851 933 847 920 q 856 951 855 947 l 970 1004 q 980 1001 972 1005 q 997 992 988 998 q 1011 982 1006 987 q 1013 977 1017 978 q 1011 967 1013 977 q 1008 944 1010 958 q 1004 917 1006 930 q 999 896 1002 904 q 998 893 998 895 q 987 864 993 880 q 972 819 982 849 q 964 787 966 796 q 959 768 962 777 q 947 739 956 759 q 942 726 943 732 l 1011 644 q 1011 634 1012 642 q 1007 617 1010 627 q 1002 603 1004 608 q 997 602 999 598 q 989 600 997 602 q 969 597 981 599 q 945 595 957 596 q 926 595 933 594 q 923 595 924 595 q 899 597 912 596 q 829 393 863 503 q 868 392 854 393 q 896 390 881 391 q 924 389 911 389 q 941 389 937 389 l 1011 305 q 1011 296 1012 304 q 1007 279 1010 288 q 1002 265 1004 271 q 997 263 999 260 q 989 262 997 263 q 969 259 981 260 q 945 257 957 258 q 926 256 933 256 q 923 256 924 256 q 897 259 911 258 q 855 260 883 260 q 826 261 835 261 q 811 261 819 260 q 790 263 804 261 q 747 136 762 166 q 742 125 744 130 q 733 110 737 115 q 724 99 730 104 q 708 87 719 94 q 679 67 698 81 q 641 38 661 53 q 608 12 622 22 q 594 1 594 1 q 597 8 594 1 q 604 27 600 16 q 611 49 608 39 q 615 65 614 60 q 623 107 616 72 q 638 188 629 142 q 654 273 647 233 q 396 288 531 286 q 346 136 362 172 q 340 125 342 130 q 332 110 336 115 q 323 99 328 104 q 307 87 317 94 q 278 67 296 81 q 240 38 259 53 q 207 12 220 22 q 193 1 193 1 q 196 8 193 1 q 203 27 199 16 q 210 49 207 39 q 214 65 213 60 q 222 114 214 73 q 240 205 230 155 q 257 293 250 256 q 229 296 238 294 q 218 298 223 298 q 204 302 210 300 q 193 308 198 304 q 179 319 188 311 q 156 338 172 326 q 122 364 140 351 q 93 386 105 377 q 81 395 81 395 q 88 394 81 395 q 105 393 95 393 q 125 392 115 392 q 140 392 134 391 q 194 397 148 393 q 290 404 239 400 l 295 417 q 298 419 297 418 q 300 428 299 421 q 302 445 301 435 q 306 471 304 458 q 311 494 308 484 q 314 506 313 502 q 315 514 315 511 q 317 521 316 517 q 320 538 317 526 q 323 553 321 546 q 328 575 325 565 q 335 595 330 585 q 342 613 338 605 q 349 627 346 621 q 229 635 258 629 q 218 637 223 636 q 204 641 210 639 q 193 646 198 642 q 179 657 188 650 q 156 677 172 665 q 122 702 140 689 q 93 724 105 715 q 81 733 81 733 q 88 732 81 733 q 105 731 95 732 q 125 730 115 730 q 140 730 134 730 q 175 733 145 731 q 244 739 205 736 q 318 744 283 741 q 368 747 353 746 l 378 745 l 391 744 q 394 750 393 747 q 410 806 400 768 q 421 843 416 825 q 430 872 427 861 q 440 903 435 886 q 450 933 446 920 q 454 951 454 947 l 568 1004 m 739 602 l 739 602 l 739 602 q 722 601 732 601 q 695 604 711 602 q 508 622 614 618 q 431 404 468 526 l 454 403 q 457 401 456 401 q 465 401 458 401 q 479 404 471 402 q 502 406 490 405 q 523 408 513 408 q 534 407 530 407 q 541 408 538 408 q 547 408 543 408 q 562 409 551 408 q 575 410 569 410 q 595 411 586 411 q 614 410 604 411 q 630 407 623 408 q 657 404 648 404 q 663 404 661 404 q 675 404 670 405 q 682 406 677 404 q 692 404 687 405 l 696 417 q 699 419 699 418 q 702 428 701 421 q 703 445 703 435 q 707 471 705 458 q 712 494 709 484 q 715 506 714 502 q 717 514 716 511 q 718 521 718 517 q 722 538 719 526 q 724 553 723 546 q 729 575 726 565 q 736 595 732 585 q 739 602 738 599 z "},"$":{"ha":838,"x_min":63,"x_max":785,"o":"m 578 1004 l 578 1004 l 578 1004 q 588 1001 580 1005 q 605 992 596 998 q 620 982 614 987 q 621 977 625 978 q 620 967 621 977 q 616 944 618 958 q 612 917 614 930 q 606 896 610 904 q 606 893 606 895 q 595 866 601 880 q 651 863 630 865 q 673 862 673 862 q 680 867 673 861 q 694 880 686 872 q 710 896 702 888 q 724 910 718 904 q 729 916 729 916 l 785 918 q 778 908 785 918 q 758 883 772 898 q 724 854 745 869 q 690 818 699 838 q 678 784 681 798 q 675 774 677 778 q 668 758 673 769 q 655 733 662 746 q 644 711 648 720 q 639 701 639 701 q 637 708 639 701 q 632 726 635 715 q 629 750 630 737 q 625 761 628 758 q 614 765 622 764 q 571 784 602 766 q 566 767 570 776 q 555 739 563 758 q 547 715 549 724 q 544 698 545 706 q 540 676 543 689 q 527 643 537 664 q 485 538 506 597 q 510 532 498 534 q 568 513 532 527 q 600 499 589 505 q 614 485 610 492 q 621 469 618 478 q 646 420 625 453 q 662 392 659 402 q 664 374 666 381 q 656 360 662 368 q 647 343 652 353 q 639 316 642 333 q 634 283 635 294 q 631 263 632 271 q 625 241 629 254 q 612 204 621 229 q 587 164 600 171 q 549 159 573 157 q 480 155 524 161 q 436 149 452 151 q 411 147 420 147 q 391 148 401 147 q 361 150 380 149 q 355 136 358 141 q 350 125 352 130 q 341 110 345 115 q 332 99 338 104 q 315 87 326 94 q 287 67 305 81 q 249 38 269 53 q 216 12 230 22 q 202 1 202 1 q 205 8 202 1 q 212 27 208 16 q 219 49 216 39 q 223 65 222 60 q 228 95 224 71 q 239 153 233 119 q 231 154 235 153 q 185 157 214 155 q 127 173 151 161 q 90 199 104 185 q 69 224 75 214 q 63 235 63 235 q 77 232 63 235 q 110 223 91 228 q 145 215 128 218 q 168 211 162 211 q 189 210 176 211 q 249 209 217 205 q 250 209 250 209 q 263 278 257 247 q 273 323 269 309 l 278 334 l 304 417 q 307 419 307 418 q 309 428 308 421 q 311 445 311 435 q 315 471 313 458 q 320 494 317 484 l 321 498 q 297 510 305 506 q 283 517 289 514 q 269 524 277 519 q 246 535 261 528 q 229 545 235 541 q 220 551 223 549 q 216 555 217 553 q 214 558 215 557 q 213 560 214 559 q 210 563 212 562 q 205 567 208 565 q 186 595 192 576 q 177 633 180 614 q 176 643 176 638 q 180 696 172 662 q 202 767 187 730 q 261 823 218 803 q 368 857 305 843 q 437 865 395 863 q 439 872 438 869 q 450 903 444 886 q 459 933 455 920 q 464 951 463 947 l 578 1004 m 416 793 l 416 793 l 416 793 q 390 789 406 791 q 345 783 363 786 q 294 772 327 779 q 283 770 289 770 q 260 763 266 766 q 257 758 255 760 q 264 751 258 755 q 273 744 269 748 q 278 733 278 739 q 279 721 278 724 q 281 711 279 718 q 288 690 283 705 q 300 645 292 675 q 309 613 305 623 q 317 602 313 604 q 330 600 322 600 q 346 599 336 600 q 352 613 349 606 q 363 642 361 633 q 365 648 364 646 q 368 661 366 656 q 370 670 369 664 q 388 713 378 689 q 404 750 399 737 q 416 793 408 764 m 390 235 l 390 235 l 390 235 q 401 237 395 237 q 463 250 424 242 q 467 251 465 250 q 519 262 503 258 q 544 272 536 267 q 560 288 551 277 q 578 307 566 295 q 599 343 602 330 q 579 374 596 357 q 561 397 570 384 q 546 414 551 409 q 536 421 541 420 q 526 422 532 422 q 511 424 521 422 q 485 431 501 425 q 452 441 467 437 q 407 293 428 363 q 390 235 398 262 z "},"%":{"ha":641,"x_min":50,"x_max":587,"o":"m 494 1004 l 494 1004 l 494 1004 q 504 1001 496 1005 q 521 992 512 998 q 535 982 530 987 q 536 977 541 978 q 535 967 536 977 q 532 944 534 958 q 528 917 530 930 q 522 896 525 904 q 522 893 522 895 q 511 864 516 880 q 496 819 506 849 q 488 787 490 796 q 483 768 486 777 q 471 739 479 759 q 462 715 465 724 q 459 698 460 706 q 456 676 458 689 q 443 643 453 664 q 379 477 410 573 q 323 293 349 381 q 271 136 288 172 q 266 125 268 130 q 257 110 260 115 q 248 99 254 104 q 231 87 242 94 q 203 67 221 81 q 165 38 184 53 q 132 12 146 22 q 118 1 118 1 q 121 8 118 1 q 128 27 124 16 q 135 49 132 39 q 139 65 138 60 q 146 105 140 72 q 161 183 152 139 q 177 267 170 228 q 188 323 184 306 l 194 334 l 220 417 q 223 419 222 418 q 225 428 224 421 q 227 445 226 435 q 231 471 229 458 q 235 494 233 484 q 239 506 238 502 q 241 514 240 511 q 242 521 241 517 q 245 538 243 526 q 248 553 247 546 q 253 575 250 565 q 260 595 255 585 q 268 613 264 605 q 279 642 277 633 q 281 648 280 646 q 284 661 281 656 q 285 670 285 664 q 304 713 294 689 q 319 750 315 737 q 336 806 325 768 q 346 843 341 825 q 355 872 351 861 q 366 903 360 886 q 375 933 371 920 q 380 951 379 947 l 494 1004 m 492 433 l 492 433 l 492 433 q 499 433 493 433 q 513 433 505 433 q 527 433 521 433 q 534 433 534 433 l 551 425 q 553 425 551 425 q 559 424 555 425 q 566 423 562 424 q 578 411 572 422 q 585 391 583 401 q 587 373 587 382 q 582 354 586 365 q 575 335 579 347 q 565 306 570 320 q 555 286 559 292 q 548 266 553 281 q 539 232 544 250 q 531 202 535 215 q 525 183 528 189 q 510 165 521 176 q 487 144 500 154 q 466 131 475 134 q 451 128 457 128 q 440 129 444 128 q 436 130 436 130 l 412 134 l 401 137 q 399 140 401 137 q 390 146 396 142 q 384 153 386 149 q 380 160 382 157 q 378 164 380 162 q 373 179 376 168 q 370 201 370 190 q 378 240 370 219 q 380 249 379 245 q 387 273 382 257 q 398 310 393 292 q 406 335 403 328 q 412 351 408 341 q 421 378 416 365 q 431 397 427 392 q 447 408 437 404 q 458 414 452 411 q 467 420 462 417 q 478 426 473 423 q 488 431 484 429 q 492 433 492 433 m 438 179 l 438 179 l 438 179 q 439 179 439 179 q 441 178 439 179 q 447 175 444 176 q 456 173 451 174 q 465 174 460 172 q 473 180 469 176 q 487 197 483 191 q 493 206 492 203 q 496 212 494 209 q 498 220 496 215 q 503 233 500 224 q 509 245 507 241 q 515 260 510 252 q 516 263 515 261 q 522 275 519 269 q 527 296 524 281 q 541 332 532 317 q 548 352 547 344 q 548 363 549 357 q 549 378 547 371 q 543 380 547 379 q 533 382 540 380 q 513 384 526 382 q 495 383 503 385 q 482 377 487 380 q 474 370 477 373 q 471 367 471 367 q 474 371 471 367 q 481 380 477 375 q 492 389 486 385 q 500 392 497 391 q 505 395 503 394 q 512 399 508 397 q 511 399 511 399 q 507 399 511 399 q 500 398 504 399 q 492 397 496 398 q 488 395 489 396 q 484 392 488 395 q 472 385 479 389 q 460 373 465 380 q 454 360 455 367 q 452 351 453 353 q 449 347 450 348 q 446 344 448 346 q 444 337 445 342 q 443 330 444 332 q 441 324 442 327 q 437 315 439 321 q 433 296 435 309 q 421 261 427 271 q 416 248 418 254 q 416 240 416 243 q 416 234 416 237 q 413 225 415 231 q 408 210 412 220 q 407 195 404 200 q 418 193 410 193 q 434 191 423 192 q 450 192 444 190 q 461 197 457 193 q 468 203 466 200 q 470 205 470 205 q 468 202 470 205 q 462 194 466 198 q 452 186 458 189 q 446 184 448 185 q 441 181 444 182 q 438 179 439 180 m 172 924 l 172 924 l 172 924 q 179 924 173 924 q 193 924 185 924 q 207 924 201 924 q 214 924 214 924 l 231 916 q 233 916 231 916 q 239 915 235 916 q 246 914 242 915 q 258 902 252 913 q 265 882 263 892 q 267 864 267 873 q 262 845 266 856 q 255 826 259 838 q 245 797 250 811 q 235 777 239 783 q 228 757 233 772 q 219 723 224 741 q 211 693 215 706 q 205 674 208 680 q 190 656 201 667 q 167 635 180 645 q 146 622 155 625 q 131 619 137 619 q 120 620 124 619 q 116 621 116 621 l 92 625 l 81 628 q 79 631 81 628 q 70 637 76 633 q 64 644 66 640 q 60 651 62 648 q 58 655 60 653 q 53 670 56 659 q 50 692 50 681 q 58 731 50 710 q 60 740 59 736 q 67 764 62 748 q 78 801 73 783 q 85 826 83 819 q 92 842 88 832 q 101 869 96 856 q 111 888 106 883 q 127 899 117 895 q 138 905 132 902 q 147 911 142 908 q 158 917 153 914 q 168 922 164 920 q 172 924 172 924 m 118 670 l 118 670 l 118 670 q 119 670 119 670 q 121 669 119 670 q 127 666 123 667 q 136 664 131 665 q 145 665 140 663 q 153 671 149 667 q 167 688 163 682 q 173 697 172 694 q 176 703 174 700 q 178 711 176 706 q 183 724 180 715 q 189 736 187 732 q 195 751 190 743 q 196 754 195 752 q 202 766 199 760 q 207 787 204 772 q 220 823 212 808 q 228 843 227 835 q 228 854 229 848 q 229 869 227 862 q 223 871 227 870 q 213 873 220 871 q 193 875 206 873 q 175 874 182 876 q 162 868 167 871 q 154 861 157 864 q 151 858 151 858 q 154 862 151 858 q 161 871 157 866 q 172 880 165 876 q 180 883 177 882 q 185 886 182 885 q 192 890 188 888 q 191 890 191 890 q 187 890 191 890 q 180 889 184 890 q 172 888 176 889 q 168 886 169 887 q 163 883 168 886 q 152 876 159 880 q 140 864 145 871 q 134 851 135 858 q 132 842 133 844 q 129 838 130 839 q 126 835 127 837 q 124 828 125 833 q 123 821 124 823 q 121 815 122 818 q 117 806 119 812 q 113 787 115 800 q 101 752 107 762 q 96 739 98 745 q 96 731 96 734 q 96 725 96 728 q 93 716 95 722 q 87 701 92 711 q 87 686 84 691 q 98 684 90 684 q 114 682 103 683 q 130 683 123 681 q 141 688 137 684 q 148 694 146 691 q 150 696 150 696 q 148 693 150 696 q 142 685 146 689 q 132 677 138 680 q 126 675 128 676 q 121 672 123 673 q 118 670 119 671 z "},"&":{"ha":747,"x_min":47,"x_max":694,"o":"m 667 193 l 667 193 q 687 147 680 172 q 686 106 694 122 q 679 100 682 99 q 670 109 675 102 q 648 128 663 119 q 618 152 633 137 q 577 193 602 166 q 562 210 570 201 q 542 230 549 223 q 529 239 534 237 q 522 240 525 241 q 517 237 519 239 q 514 235 516 236 q 510 234 513 234 q 502 233 505 234 q 495 230 498 232 q 492 227 493 229 q 491 226 491 226 q 484 216 491 226 q 465 192 477 205 q 439 166 453 178 q 421 151 430 159 q 347 104 396 124 q 327 96 336 100 q 303 89 315 92 q 274 85 292 85 q 222 85 256 84 q 172 85 184 86 q 160 85 163 85 q 153 87 156 85 q 146 92 151 88 q 133 101 142 96 q 106 123 114 114 q 90 149 99 132 q 73 177 84 159 q 51 241 54 210 q 49 294 47 272 q 49 304 49 300 q 66 380 49 325 q 111 505 84 435 q 151 564 125 540 q 202 601 176 587 q 247 621 229 615 q 266 627 266 627 l 247 682 q 244 689 247 682 q 236 708 241 697 q 224 730 231 720 q 212 747 218 741 q 191 787 197 764 q 182 809 187 798 q 178 830 177 821 q 182 850 178 840 q 187 877 185 861 q 195 905 188 892 q 227 936 203 919 q 304 975 252 952 q 399 1001 357 997 q 466 1001 441 1005 q 491 996 491 996 q 496 982 491 996 q 507 939 502 967 q 510 871 511 911 q 496 804 508 832 q 473 760 485 775 q 461 744 461 744 q 456 732 461 742 q 446 713 452 723 q 435 701 440 704 q 431 696 433 699 q 428 690 429 693 q 426 685 427 687 q 426 683 426 683 l 387 635 q 389 633 387 635 q 396 625 392 631 q 399 620 397 623 q 418 591 406 610 q 432 568 425 580 q 446 543 440 554 q 457 522 450 536 q 468 499 463 511 q 477 482 473 488 q 485 469 481 478 q 493 451 489 460 q 499 435 496 441 q 502 428 502 428 q 506 433 502 428 q 517 446 511 438 q 528 463 523 454 q 537 478 534 471 q 549 500 542 488 q 561 521 555 512 q 567 530 567 530 l 589 565 l 618 584 l 624 541 q 622 520 624 541 q 616 473 620 500 q 608 440 614 459 q 595 401 602 420 q 583 369 588 382 q 578 356 578 356 l 627 253 q 633 244 627 253 q 650 221 640 235 q 667 193 659 208 m 313 899 l 313 899 q 306 882 310 890 q 289 832 290 852 q 290 823 290 827 q 292 799 290 811 q 302 777 294 787 q 311 764 308 770 q 315 752 313 758 q 326 729 317 742 q 335 713 332 720 q 339 700 338 705 q 339 695 339 695 q 343 706 339 695 q 354 733 347 718 q 367 766 360 749 q 378 795 373 783 q 385 812 383 807 q 387 821 387 818 q 388 826 387 823 q 391 833 389 829 q 396 846 393 838 q 402 881 404 862 q 395 913 400 900 q 388 927 390 927 q 378 926 388 927 q 355 922 368 925 q 330 913 341 919 q 313 899 318 908 m 336 224 l 336 224 q 351 242 339 232 q 378 262 363 252 q 404 278 393 271 q 415 284 415 284 l 380 363 q 374 376 380 363 q 360 408 368 390 q 345 441 352 426 q 327 477 337 457 q 307 511 316 496 q 298 526 298 526 q 290 515 298 526 q 258 473 278 498 q 222 436 239 449 q 211 427 214 431 q 208 421 208 424 q 207 414 207 418 q 207 406 208 411 q 203 393 207 401 q 193 368 200 384 q 168 307 181 340 q 155 260 155 274 q 171 220 155 241 q 198 186 186 198 q 209 181 203 181 q 224 183 214 180 q 279 192 239 188 q 317 197 306 195 q 332 204 329 200 q 335 215 334 209 q 336 224 335 220 z "},"'":{"ha":313,"x_min":46,"x_max":260,"o":"m 213 1004 l 213 1004 l 213 1004 q 223 1001 215 1005 q 240 992 231 998 q 255 982 250 987 q 256 977 260 978 q 254 967 256 977 q 251 944 253 958 q 247 917 250 930 q 241 896 245 904 q 241 893 241 895 q 232 868 236 881 q 220 831 227 855 l 46 776 q 55 806 50 789 q 65 843 60 825 q 75 872 71 861 q 85 903 79 886 q 94 933 90 920 q 99 951 98 947 l 213 1004 z "},"(":{"ha":324,"x_min":54,"x_max":296,"o":"m 296 1011 l 296 1011 l 296 1011 q 287 1009 293 1012 q 272 1003 280 1006 q 259 997 264 1000 q 254 994 254 994 l 146 878 l 106 797 q 97 777 106 797 q 79 731 89 758 q 61 683 68 705 q 54 653 54 661 q 57 632 55 649 q 62 591 59 616 q 71 515 66 555 q 80 444 76 475 q 87 406 85 413 q 91 376 89 399 q 95 326 93 353 q 99 278 98 298 q 100 257 100 257 q 110 240 100 257 q 134 201 120 224 q 163 157 149 178 q 193 115 176 136 q 221 79 209 94 q 233 64 233 64 l 269 64 l 239 116 q 229 137 239 116 q 205 190 219 158 q 179 254 191 221 q 160 311 166 286 q 162 498 147 370 q 176 680 170 572 q 199 817 181 756 q 240 921 218 878 q 279 988 262 965 q 296 1011 296 1011 z "},")":{"ha":337,"x_min":36,"x_max":278,"o":"m 36 1011 l 36 1011 l 36 1011 q 45 1009 39 1012 q 59 1003 52 1006 q 72 997 66 1000 q 78 994 78 994 l 185 878 l 226 797 q 234 777 226 797 q 253 731 242 758 q 271 683 263 705 q 277 653 278 661 q 275 632 277 649 q 270 591 273 616 q 260 514 265 555 q 251 444 255 474 q 245 406 247 413 q 240 376 243 399 q 236 326 238 353 q 233 278 234 298 q 231 257 231 257 q 221 240 231 257 q 197 201 212 224 q 169 157 183 178 q 138 115 155 136 q 110 79 122 94 q 98 64 98 64 l 63 64 l 93 116 q 103 137 93 116 q 126 190 113 158 q 152 254 140 221 q 172 311 165 286 q 169 498 184 370 q 155 680 162 572 q 132 817 151 756 q 92 921 114 878 q 53 988 69 965 q 36 1011 36 1011 z "},"*":{"ha":311,"x_min":56,"x_max":273,"o":"m 98 994 l 98 994 l 98 994 q 92 988 98 994 q 77 975 85 983 q 63 962 69 968 q 56 956 56 956 l 111 922 l 56 890 l 83 862 l 134 877 l 138 814 l 176 826 l 186 880 l 246 862 l 273 890 l 220 922 l 273 956 q 267 962 273 956 q 253 975 261 968 q 239 988 245 983 q 231 994 233 994 l 184 966 l 178 1038 q 170 1035 178 1038 q 152 1028 162 1031 q 133 1021 141 1024 q 125 1017 125 1018 l 128 977 l 98 994 z "},"+":{"ha":621,"x_min":43,"x_max":584,"o":"m 393 810 l 393 810 l 393 810 q 397 810 393 811 q 407 807 401 808 q 416 803 412 805 q 422 799 420 800 q 422 797 425 798 q 422 792 422 797 q 422 781 422 787 q 420 767 421 774 q 418 757 420 761 q 418 755 418 756 q 413 741 415 749 q 406 719 410 734 q 401 703 403 707 q 400 697 401 700 q 398 690 399 694 q 393 680 396 686 q 389 667 390 672 q 388 659 388 663 q 387 649 389 654 q 382 635 386 644 q 388 635 385 635 q 392 635 389 634 q 416 630 403 633 q 436 627 429 628 q 465 626 446 627 q 485 626 475 626 q 500 625 494 625 q 516 624 507 624 q 533 623 526 623 q 543 623 540 623 l 583 558 q 583 553 584 557 q 582 544 583 549 q 579 534 581 538 q 577 527 578 529 q 575 526 576 524 q 570 525 575 526 q 558 523 566 524 q 545 522 551 522 q 534 522 538 521 q 532 522 533 522 q 517 523 525 522 q 492 524 509 524 q 475 525 481 525 q 469 525 472 524 q 462 526 467 525 q 450 528 458 526 q 437 529 442 529 q 429 528 433 528 q 417 526 424 526 q 399 529 411 526 q 345 538 375 534 q 321 458 332 496 q 296 380 306 399 q 294 376 295 378 q 289 368 291 371 q 283 363 287 365 q 273 357 279 361 q 255 347 267 354 q 232 332 243 340 q 211 319 220 325 q 202 314 202 314 q 204 318 202 314 q 208 328 205 322 q 211 338 210 333 q 212 346 212 343 q 215 366 212 349 q 220 405 217 382 q 226 446 223 427 q 230 473 229 465 l 233 479 l 245 520 q 247 521 247 521 q 248 526 248 522 q 248 534 248 529 q 249 545 249 539 q 212 546 230 545 q 129 552 149 547 q 123 553 125 553 q 114 556 117 555 q 108 561 111 557 q 100 569 105 564 q 86 584 96 574 q 67 603 77 593 q 50 620 57 613 q 43 627 43 627 q 47 627 43 627 q 57 626 52 626 q 68 625 63 625 q 77 625 74 625 q 97 628 80 626 q 138 631 115 629 q 181 635 161 633 q 210 637 201 637 l 216 635 l 260 633 q 261 632 260 632 q 271 633 263 631 q 272 635 272 634 q 273 641 272 638 q 273 645 274 642 q 283 667 278 654 q 292 685 289 679 q 299 712 294 694 q 304 731 302 722 q 308 745 307 740 q 313 760 311 752 q 317 775 315 768 q 319 785 319 782 l 393 810 z "},",":{"ha":277,"x_min":40,"x_max":254,"o":"m 87 65 l 87 65 l 87 65 q 77 68 85 64 q 60 77 69 72 q 45 87 50 83 q 45 93 40 92 q 46 102 45 93 q 49 125 47 112 q 53 152 51 139 q 58 174 56 165 q 60 176 59 175 q 68 201 64 189 q 80 238 73 214 l 254 294 q 245 264 250 280 q 234 226 239 244 q 226 197 229 208 q 216 166 221 183 q 206 136 210 150 q 201 118 201 122 l 87 65 z "},"-":{"ha":706,"x_min":63,"x_max":669,"o":"m 509 665 l 509 665 l 509 665 q 583 601 543 636 q 642 547 623 566 q 669 522 659 529 q 399 535 532 532 q 233 544 273 537 q 222 547 227 545 q 204 551 211 549 q 192 557 198 553 q 176 570 186 562 q 149 592 168 578 q 111 621 131 606 q 77 647 92 636 q 63 657 63 657 q 72 656 63 657 q 92 654 80 655 q 114 653 103 654 q 131 654 125 653 q 172 657 138 654 q 251 663 205 660 q 336 669 296 666 q 393 673 376 671 l 405 670 l 492 666 q 495 664 494 665 q 509 665 498 663 z "},".":{"ha":247,"x_min":40,"x_max":201,"o":"m 134 228 l 134 228 l 134 228 q 140 226 134 228 q 155 223 146 224 q 169 219 163 221 q 176 218 176 218 q 189 203 176 218 q 196 190 195 197 q 199 168 198 183 q 200 163 199 165 q 191 130 201 146 q 172 102 182 114 q 170 98 171 100 q 146 76 161 87 q 123 64 132 64 q 108 67 113 64 q 98 73 103 69 q 85 80 92 77 q 64 92 73 84 q 50 118 58 101 q 41 149 42 136 q 46 168 40 159 q 61 186 52 176 q 71 196 65 191 q 87 209 77 203 q 108 219 98 215 q 126 226 119 224 q 134 228 134 228 z "},"/":{"ha":527,"x_min":54,"x_max":461,"o":"m 441 1069 l 441 1069 l 441 1069 q 445 1065 441 1069 q 453 1057 449 1062 q 459 1046 457 1051 q 458 1041 461 1042 q 456 1031 458 1041 q 450 1008 454 1021 q 443 981 447 994 q 436 960 439 968 q 435 957 435 958 q 424 928 430 944 q 408 882 418 913 q 397 850 401 860 q 391 832 395 842 q 380 803 388 823 q 371 779 374 789 q 366 762 368 770 q 360 741 364 753 q 347 707 356 728 q 282 541 317 637 q 218 357 248 445 q 161 199 178 237 q 157 189 159 194 q 146 168 151 175 q 132 151 142 161 q 112 131 125 145 q 86 102 100 117 q 64 76 73 87 q 54 64 54 64 q 57 73 54 64 q 64 92 60 81 q 72 113 68 102 q 77 130 76 123 q 88 169 79 136 q 111 248 98 203 q 135 331 123 292 q 151 387 146 370 l 156 398 l 185 481 q 187 484 186 482 q 190 492 188 485 q 195 509 192 499 q 201 535 197 522 q 208 558 204 548 q 212 570 210 566 q 214 578 213 575 q 216 585 215 581 q 221 602 218 590 q 225 616 223 610 q 232 638 229 629 q 239 660 235 648 q 247 677 243 669 q 258 706 255 696 q 260 712 259 709 q 264 726 262 720 q 267 734 266 728 q 285 777 275 753 q 300 814 295 802 q 319 870 307 832 q 332 908 326 890 q 342 937 338 926 q 353 967 347 950 q 363 997 359 983 q 370 1016 368 1011 l 441 1069 z "},":":{"ha":365,"x_min":67,"x_max":336,"o":"m 269 760 l 269 760 l 269 760 q 276 758 270 759 q 290 754 282 756 q 305 751 298 752 q 311 749 311 749 q 325 734 311 749 q 332 721 330 728 q 335 699 334 714 q 336 694 335 697 q 327 661 336 677 q 308 633 317 645 q 305 629 307 631 q 282 607 296 618 q 258 596 268 596 q 243 598 248 596 q 233 605 239 600 q 220 611 228 608 q 200 624 208 615 q 185 650 193 633 q 176 681 178 667 q 181 700 176 691 q 197 718 187 708 q 206 728 201 722 q 223 741 212 735 q 244 751 233 747 q 262 757 254 755 q 269 760 269 760 m 161 345 l 161 345 l 161 345 q 168 342 161 344 q 182 339 174 341 q 196 336 190 337 q 203 334 203 334 q 216 319 203 334 q 223 306 222 313 q 227 284 225 299 q 227 279 227 282 q 218 246 228 262 q 199 218 209 230 q 197 214 198 216 q 174 192 188 203 q 150 181 159 181 q 135 183 140 181 q 125 190 130 185 q 112 196 119 193 q 92 209 100 200 q 77 235 85 218 q 68 266 69 252 q 73 284 67 276 q 88 302 79 293 q 98 313 92 307 q 114 326 104 320 q 135 336 125 332 q 153 342 146 340 q 161 345 161 345 z "},";":{"ha":382,"x_min":51,"x_max":353,"o":"m 286 760 l 286 760 l 286 760 q 293 758 286 759 q 307 754 299 756 q 321 751 315 752 q 328 749 328 749 q 341 734 328 749 q 348 721 347 728 q 351 699 350 714 q 352 694 352 697 q 343 661 353 677 q 325 633 334 645 q 321 629 323 631 q 298 607 313 618 q 275 596 284 596 q 260 598 265 596 q 250 605 255 600 q 237 611 245 608 q 216 624 225 615 q 202 650 210 633 q 193 681 194 667 q 198 700 192 691 q 213 718 203 708 q 222 728 218 722 q 239 741 229 735 q 260 751 250 747 q 278 757 271 755 q 286 760 286 760 m 97 159 l 97 159 l 97 159 q 87 162 96 159 q 70 172 79 166 q 56 181 61 177 q 55 187 51 186 q 56 197 55 187 q 59 220 57 206 q 63 247 61 234 q 68 268 66 260 q 70 271 69 270 q 79 296 74 283 q 90 332 83 309 l 264 389 q 256 358 260 374 q 244 320 250 338 q 236 292 239 302 q 226 261 231 278 q 216 231 220 245 q 211 212 212 217 l 97 159 z "},"<":{"ha":642,"x_min":26,"x_max":608,"o":"m 583 808 l 583 808 l 583 808 q 578 787 583 805 q 568 746 574 768 q 553 708 561 724 q 536 691 545 691 q 525 686 530 691 q 515 674 519 682 q 497 653 508 664 q 466 634 486 642 q 436 614 446 626 q 420 591 426 603 q 412 576 416 583 q 398 566 407 570 q 360 539 387 562 q 302 489 333 517 q 250 441 272 462 q 227 420 227 420 q 240 409 227 420 q 279 382 252 399 q 319 357 300 369 q 376 322 349 339 q 399 307 386 316 q 542 224 444 273 q 576 208 564 215 q 593 197 588 201 q 599 190 598 193 q 599 185 600 187 q 598 181 598 183 q 602 176 599 179 q 607 168 606 172 q 608 160 608 164 q 606 154 607 157 q 603 150 604 152 q 602 149 602 149 q 601 142 602 149 q 596 128 600 136 q 588 112 593 119 q 575 101 583 104 q 555 102 567 98 q 505 127 534 113 q 395 178 462 151 q 343 203 363 191 q 305 229 323 216 q 238 271 281 246 q 191 301 208 288 q 161 327 174 315 q 111 366 142 346 q 95 376 101 371 q 84 385 88 381 q 78 393 80 389 q 75 399 76 396 q 75 403 75 401 q 76 406 75 405 q 77 408 77 408 q 78 409 78 409 l 26 474 l 94 493 q 165 541 94 493 q 329 651 237 589 q 498 760 422 712 q 583 808 574 808 z "},"=":{"ha":750,"x_min":50,"x_max":720,"o":"m 543 640 l 543 640 l 543 640 q 625 576 581 612 q 690 522 669 541 q 720 497 709 505 q 421 510 568 508 q 238 519 282 513 q 225 522 231 521 q 207 526 214 524 q 193 532 199 528 q 175 545 186 536 q 145 568 165 553 q 103 596 125 582 q 65 622 81 611 q 50 633 50 633 q 59 632 50 633 q 81 630 68 631 q 106 628 94 629 q 125 629 119 628 q 170 632 132 630 q 258 638 208 635 q 352 644 308 642 q 414 648 395 647 l 428 645 l 524 642 q 528 640 526 640 q 543 640 531 639 m 543 342 l 543 342 l 543 342 q 625 278 581 313 q 690 224 669 243 q 720 199 709 206 q 421 212 568 210 q 238 221 282 214 q 225 224 231 222 q 207 228 214 226 q 193 234 199 230 q 175 247 186 238 q 145 269 165 255 q 103 298 125 283 q 65 323 81 313 q 50 334 50 334 q 59 333 50 334 q 81 331 68 332 q 106 330 94 330 q 125 330 119 330 q 170 334 132 332 q 258 340 208 336 q 352 346 308 343 q 414 350 395 349 l 428 347 l 524 343 q 528 341 526 341 q 543 342 531 340 z "},">":{"ha":648,"x_min":34,"x_max":615,"o":"m 59 808 l 59 808 l 59 808 q 63 787 59 805 q 74 746 68 768 q 89 708 81 724 q 105 691 97 691 q 117 686 113 691 q 127 674 122 682 q 145 653 134 664 q 176 634 156 642 q 206 614 197 626 q 221 591 216 603 q 230 576 225 583 q 243 566 235 570 q 282 539 255 562 q 339 489 309 517 q 392 441 370 462 q 414 420 414 420 q 402 409 414 420 q 363 382 389 399 q 322 357 342 369 q 265 322 292 339 q 243 307 256 316 q 100 224 198 273 q 66 208 78 215 q 49 197 54 201 q 43 190 44 193 q 43 185 43 187 q 44 181 44 183 q 40 176 43 179 q 35 168 37 172 q 35 160 34 164 q 37 154 35 157 q 39 150 38 152 q 40 149 40 149 q 41 142 40 149 q 46 128 43 136 q 54 112 49 119 q 67 101 59 104 q 86 102 75 98 q 137 127 109 113 q 246 178 180 151 q 298 203 278 191 q 337 229 319 216 q 404 271 361 246 q 451 301 433 288 q 481 327 468 315 q 531 366 499 346 q 548 376 541 371 q 558 385 554 381 q 564 393 562 389 q 567 399 566 396 q 567 403 568 401 q 566 406 567 405 q 564 408 565 408 q 564 409 564 409 l 615 474 l 547 493 q 476 541 547 493 q 313 651 406 589 q 144 760 220 712 q 59 808 68 808 z "},"?":{"ha":574,"x_min":46,"x_max":542,"o":"m 229 482 l 229 482 l 229 482 l 227 482 l 282 564 q 288 572 282 564 q 304 591 294 580 q 330 612 315 602 q 362 626 345 622 q 404 641 391 633 q 424 656 418 650 q 430 661 427 659 q 438 668 435 665 q 443 675 441 672 q 445 677 445 677 q 447 695 445 677 q 452 738 450 713 q 453 783 454 762 q 446 813 452 804 q 430 829 440 821 q 409 843 420 837 q 391 853 399 849 q 384 857 384 857 q 376 859 384 857 q 356 864 368 862 q 328 865 343 866 q 316 864 321 864 q 286 860 300 863 q 255 847 273 857 q 245 842 250 844 q 219 825 229 833 q 203 805 210 818 q 191 781 197 791 q 180 762 184 771 q 175 742 177 752 q 171 725 172 732 q 170 716 170 722 q 170 706 170 711 q 170 696 170 701 q 170 692 170 692 l 172 669 l 142 660 q 137 658 142 660 q 125 654 132 656 q 114 649 119 651 q 100 644 110 648 q 78 635 90 640 q 60 629 67 631 q 53 626 52 626 q 51 634 53 626 q 47 656 48 643 q 50 687 46 670 q 64 721 53 703 q 77 748 73 736 q 81 770 80 760 q 87 795 82 783 q 110 821 92 807 q 129 840 123 832 q 138 854 134 848 q 145 866 140 861 q 158 876 149 871 q 186 886 168 881 q 248 907 221 897 q 327 930 292 924 q 339 932 335 931 q 345 934 343 933 q 348 935 347 935 q 351 937 349 936 q 356 938 353 937 q 367 938 359 938 q 387 938 374 938 q 415 940 406 938 q 431 945 425 943 q 440 947 436 947 q 450 946 444 948 q 465 938 456 944 q 489 928 480 930 q 500 923 496 927 q 510 907 505 920 q 519 867 514 895 q 534 814 528 831 q 540 792 538 802 q 541 767 542 782 q 536 726 541 753 q 530 663 530 685 q 526 632 530 644 q 506 604 522 619 q 465 569 488 587 q 425 538 442 551 q 408 526 408 526 l 369 499 q 323 368 341 433 q 308 224 305 302 l 163 199 q 176 266 173 245 l 182 277 l 199 340 q 200 340 199 340 q 200 340 200 340 q 200 340 200 340 q 201 340 201 340 q 202 342 201 341 q 203 348 203 342 q 205 361 204 353 q 209 390 207 374 q 214 416 212 405 q 220 435 218 429 q 222 448 221 442 q 224 461 223 454 q 227 473 226 469 q 228 477 227 476 q 228 480 228 479 q 229 482 229 481 m 218 171 l 218 171 l 218 171 q 225 169 218 170 q 239 165 231 168 q 254 162 248 163 q 260 161 260 161 q 273 146 260 161 q 280 132 279 139 q 284 111 282 125 q 284 106 284 109 q 276 72 286 88 q 257 45 267 56 q 254 41 256 43 q 231 18 245 29 q 207 7 217 7 q 193 9 197 7 q 182 16 188 12 q 170 22 177 20 q 149 35 157 26 q 134 61 142 44 q 125 92 127 79 q 130 111 124 102 q 146 129 136 119 q 155 139 150 134 q 172 152 161 146 q 193 162 182 158 q 211 169 203 166 q 218 171 218 171 z "},"@":{"ha":948,"x_min":42,"x_max":910,"o":"m 374 2 q 355 3 366 2 q 221 28 235 18 q 177 57 203 39 l 170 59 q 162 72 162 62 q 163 78 162 75 q 163 89 163 82 q 161 103 163 96 l 159 107 q 102 197 145 146 q 68 251 77 226 q 53 307 58 277 q 46 336 50 320 q 42 368 42 357 q 50 397 42 381 q 72 481 59 412 q 83 594 81 524 q 92 646 85 629 q 111 676 99 663 q 146 745 132 705 q 215 819 165 798 q 336 855 265 841 q 393 869 363 861 q 480 880 443 880 q 574 863 528 880 q 602 855 590 857 q 665 834 629 850 q 740 810 701 819 q 764 801 755 808 q 781 777 773 794 q 802 726 789 759 q 870 559 821 673 q 910 416 910 467 q 869 323 910 373 q 837 279 853 304 q 798 195 816 247 q 760 103 766 115 q 738 84 753 88 q 714 73 730 81 q 671 60 690 60 q 616 96 636 60 q 555 166 605 115 l 505 215 l 495 212 q 470 203 486 208 q 444 182 455 199 q 412 155 432 165 q 387 149 399 149 q 334 163 374 149 l 311 171 q 279 197 282 181 q 277 213 277 205 q 279 231 277 222 q 281 257 281 243 q 275 301 280 273 q 263 392 263 368 q 267 418 263 409 q 281 454 277 434 q 302 508 287 476 q 318 531 310 522 q 334 546 326 539 q 354 565 343 553 q 376 597 364 576 q 417 629 387 618 q 481 644 447 640 q 541 648 516 648 l 566 648 l 566 648 q 575 616 568 648 q 580 581 580 593 q 578 571 580 574 q 571 532 571 558 l 570 503 q 566 402 566 425 l 567 380 q 575 329 568 358 q 610 270 582 300 q 656 229 639 240 q 718 214 679 214 q 728 215 723 214 q 734 219 732 216 q 735 231 735 223 q 740 252 735 239 q 749 303 749 275 l 748 314 q 758 390 748 364 q 774 513 774 441 q 772 544 774 528 q 757 577 770 559 q 715 627 744 595 q 668 678 686 658 q 635 715 651 698 q 552 777 579 771 q 532 779 543 779 q 513 778 524 779 q 481 776 502 776 q 400 781 450 776 q 345 785 362 785 q 326 783 333 785 q 310 768 315 781 q 267 729 304 745 q 219 690 229 712 q 207 646 208 669 q 193 597 205 620 q 180 558 180 574 q 183 534 180 547 q 189 494 189 520 q 187 425 189 461 q 186 317 186 379 q 195 246 186 271 q 229 182 204 222 q 277 93 260 130 q 385 73 318 88 q 439 65 395 71 q 556 57 507 57 q 579 60 567 57 q 591 62 587 62 q 595 61 595 62 q 592 56 595 59 q 587 49 589 52 q 578 38 584 43 q 561 28 573 33 q 524 20 548 24 q 480 12 491 14 q 457 7 469 9 q 421 5 446 5 l 393 3 q 374 2 381 2 m 392 269 q 448 294 422 272 q 483 335 474 315 q 490 469 490 355 l 489 586 q 435 515 474 564 q 356 405 360 421 q 347 380 354 392 q 336 348 336 362 l 336 340 q 392 269 345 270 z "},"A":{"ha":581,"x_min":-85,"x_max":635,"o":"m 477 910 l 477 910 l 477 910 q 481 929 479 921 q 483 941 483 938 l 588 992 q 597 989 589 992 q 615 980 606 985 q 630 971 625 975 q 631 965 635 966 q 631 956 631 965 q 630 933 631 947 q 629 907 630 920 q 625 887 627 895 q 625 884 625 886 q 617 857 621 871 q 608 812 614 842 q 602 781 604 791 q 599 764 601 772 q 590 735 597 755 q 584 712 585 722 q 583 696 583 703 q 582 675 583 687 q 572 643 580 663 q 526 483 547 575 q 488 305 505 390 q 453 153 466 189 q 448 143 450 147 q 442 128 445 134 q 434 118 439 123 q 419 106 429 113 q 393 87 410 100 q 359 59 377 73 q 330 34 342 44 q 317 23 317 23 q 319 31 317 23 q 324 49 321 38 q 329 70 327 60 q 332 85 332 80 q 335 123 332 90 q 342 199 338 157 q 350 280 346 242 q 355 334 354 317 l 360 345 l 361 349 q 318 338 345 345 q 268 324 292 330 q 239 316 245 317 q 228 311 233 314 q 218 303 222 307 q 210 296 213 299 q 207 294 207 294 q 204 288 207 294 q 196 275 201 283 q 185 259 191 267 q 174 245 180 251 q 156 219 167 239 q 135 178 146 199 q 115 138 122 151 q 112 134 113 136 q 102 121 107 126 q 85 114 97 117 q 48 109 73 111 q 4 90 27 106 q -39 53 -19 73 q -72 16 -59 32 q -85 0 -85 0 q -82 12 -85 0 q -75 42 -80 24 q -73 64 -73 56 q -77 87 -74 73 q -81 105 -79 94 q -83 120 -83 115 q -82 125 -83 124 q -77 127 -80 127 q -69 131 -74 128 q -57 140 -64 133 q -47 153 -50 149 q -43 159 -44 157 q -43 164 -43 161 q -41 179 -43 168 q -22 215 -36 194 q -6 245 -14 230 q 2 275 2 261 l -72 277 q -64 279 -72 277 q -45 286 -56 282 q -25 294 -35 290 q -13 303 -16 298 q 3 312 -9 308 q 29 319 14 315 q 63 329 50 323 q 74 334 71 332 q 78 336 77 335 q 82 339 80 337 q 87 347 83 342 q 87 347 87 347 q 103 379 94 359 q 120 414 110 392 q 177 512 133 437 q 258 651 218 582 q 307 746 297 721 q 348 798 315 766 q 418 862 380 830 q 477 910 455 893 m 382 436 l 382 436 l 382 436 q 382 452 382 443 q 383 477 382 464 q 386 499 384 490 q 388 511 387 507 q 389 518 389 515 q 389 525 389 521 q 391 542 390 530 q 392 555 392 549 q 395 577 393 568 q 400 597 396 587 q 406 614 403 606 q 414 642 412 633 q 414 648 414 645 q 417 661 415 656 q 417 669 418 663 q 426 694 421 680 q 405 649 418 677 q 378 593 392 622 q 355 545 365 565 q 345 523 346 525 q 344 522 345 522 q 342 521 343 522 q 338 519 340 521 q 332 513 336 518 q 324 497 329 508 q 307 463 315 474 q 296 438 301 452 q 284 419 292 427 q 271 406 277 411 q 265 401 265 401 q 280 405 265 401 q 313 416 294 410 q 348 427 332 422 q 368 433 363 432 q 380 435 373 435 q 382 436 380 436 z "},"B":{"ha":580,"x_min":-54,"x_max":634,"o":"m 226 1004 l 226 1004 l 226 1004 q 236 1001 228 1004 q 255 991 245 997 q 270 982 264 986 q 271 976 275 977 q 271 964 271 976 q 270 938 271 953 q 281 942 275 940 q 289 941 285 941 q 299 940 296 941 q 304 940 302 940 q 306 940 305 940 q 309 941 307 940 q 317 944 311 942 q 324 947 321 945 q 328 950 327 949 q 333 953 330 951 q 341 956 336 954 q 357 958 347 957 q 423 968 408 963 q 427 970 426 969 q 429 972 429 970 q 432 974 431 973 q 438 976 434 975 q 452 978 443 977 q 490 981 472 979 q 516 984 508 983 q 524 985 519 985 q 541 979 533 981 q 564 970 551 975 q 595 956 587 959 q 602 954 600 955 q 605 951 604 953 q 607 948 606 950 q 610 941 608 945 q 613 934 612 935 q 613 932 613 932 q 614 930 614 931 q 614 928 614 929 q 615 925 614 926 q 616 923 615 924 q 617 921 616 922 q 617 918 617 920 q 616 912 616 916 q 614 907 614 909 q 613 902 613 904 q 613 898 612 900 q 614 891 613 895 q 616 886 615 888 q 620 875 617 880 q 631 861 623 869 q 634 856 634 858 q 632 854 634 854 q 627 852 630 853 q 618 850 622 852 q 616 844 615 849 q 619 833 617 838 q 621 825 621 829 q 616 817 621 821 q 608 801 610 811 q 604 780 606 790 q 601 763 603 768 q 594 749 597 758 q 590 735 591 741 q 585 724 588 729 q 580 713 583 720 q 575 701 577 705 q 568 688 572 696 q 561 674 563 681 q 553 656 559 666 q 545 646 548 650 q 541 640 543 644 q 538 637 540 638 q 524 622 529 627 q 515 614 519 617 q 509 609 512 612 q 500 600 505 606 q 493 592 496 595 q 488 587 490 589 q 483 584 486 585 q 473 576 479 582 q 466 570 468 572 q 463 568 464 568 q 459 564 461 566 q 452 558 456 562 l 450 557 q 473 548 467 550 q 479 546 477 547 q 481 544 480 545 q 484 541 483 543 q 486 534 484 538 q 488 528 487 530 q 488 527 488 528 q 489 526 488 526 q 489 523 489 525 q 489 521 489 522 q 490 519 490 520 q 491 518 490 519 q 491 515 491 517 q 490 510 490 513 q 488 505 488 507 q 486 501 486 503 q 486 497 486 499 q 487 492 486 495 q 488 487 488 489 q 491 477 489 482 q 500 466 494 473 q 503 461 503 463 q 501 459 503 460 q 496 458 499 458 q 489 456 492 458 q 486 451 486 455 q 489 442 488 446 q 491 435 491 438 q 486 427 490 431 q 478 413 481 422 q 474 395 475 404 q 470 381 472 385 q 464 369 467 376 q 459 357 461 362 q 455 347 458 352 q 450 338 452 344 q 445 327 447 332 q 438 316 442 323 q 431 304 434 310 q 423 289 429 297 q 416 280 419 283 q 412 275 415 277 q 410 272 412 273 q 397 259 401 264 q 389 252 392 255 q 383 248 386 250 q 375 240 380 245 q 368 233 371 235 q 363 229 366 230 q 359 226 361 227 q 351 220 357 224 q 344 215 346 216 q 340 212 342 213 q 337 209 339 211 q 331 204 335 208 q 323 198 326 200 q 320 196 322 197 q 316 193 319 195 q 306 188 313 191 q 289 179 295 182 q 277 174 283 176 q 271 171 275 172 q 258 166 265 168 q 247 164 252 165 q 241 163 241 163 l 230 159 q 242 159 230 159 q 275 159 254 159 q 220 134 242 140 q 192 128 201 130 q 174 124 182 126 q 151 117 165 122 q 103 103 132 111 q 57 91 75 96 q 51 87 54 89 q 24 66 41 80 q -11 37 7 52 q -41 11 -28 22 q -54 0 -54 0 q -52 8 -54 0 q -47 27 -50 16 q -42 48 -44 38 q -39 64 -39 59 q -36 104 -39 69 q -29 183 -33 138 q -20 266 -24 227 q -15 322 -16 305 l -9 333 l 8 416 q 11 418 10 417 q 13 427 12 420 q 13 444 13 434 q 14 470 14 456 q 16 493 15 483 q 19 506 18 501 q 20 513 20 510 q 20 519 20 516 q 22 538 21 525 q 24 551 23 545 q 26 574 24 564 q 31 595 28 584 q 37 612 35 604 q 46 641 45 631 q 47 648 47 644 q 49 661 47 656 q 50 669 50 663 q 64 712 56 688 q 76 749 73 736 q 87 805 80 768 q 94 843 90 825 q 100 871 98 861 q 107 902 104 885 q 114 932 111 919 q 117 951 117 946 l 226 1004 m 109 224 l 109 224 l 109 224 q 120 227 115 225 q 132 231 125 228 q 157 239 140 233 q 174 245 168 243 q 184 250 180 248 q 189 253 187 252 q 195 257 191 255 q 208 263 199 260 q 234 272 217 267 q 289 284 271 283 q 312 289 302 285 q 333 306 322 292 q 386 406 390 376 q 341 437 382 435 q 245 425 300 439 q 144 394 190 411 q 123 292 133 340 q 109 224 115 256 m 189 581 l 189 581 l 189 581 q 207 584 201 582 q 223 589 214 585 q 252 599 233 592 q 271 606 264 603 q 282 611 278 609 q 288 615 286 613 q 295 621 290 618 q 309 627 300 623 q 338 637 319 631 q 399 651 379 650 q 426 656 415 652 q 448 675 437 661 q 504 789 508 754 q 456 828 500 824 q 352 817 412 831 q 240 783 292 802 q 237 765 239 774 q 228 738 235 756 q 222 714 223 724 q 221 697 221 705 q 219 675 221 688 q 210 642 218 663 q 189 581 199 614 z "},"C":{"ha":626,"x_min":-54,"x_max":680,"o":"m 602 937 l 602 937 l 602 937 q 607 937 602 936 q 617 940 611 937 q 630 945 624 942 q 640 949 635 947 q 644 951 644 951 l 680 948 l 673 924 q 672 913 673 924 q 670 887 671 902 q 667 859 669 872 q 663 840 665 846 q 659 829 661 834 q 652 814 656 823 q 637 784 648 804 q 616 745 626 759 q 585 707 606 730 q 578 698 581 703 q 563 681 568 688 q 555 671 558 675 q 552 665 553 667 q 550 660 551 663 q 548 654 549 658 q 544 645 547 651 q 530 630 539 636 q 511 621 521 624 q 494 616 501 617 q 487 614 487 614 q 493 625 487 614 q 506 651 498 636 q 520 680 513 667 q 528 701 526 694 q 530 723 530 713 q 522 751 529 733 q 505 780 515 769 q 472 806 495 791 q 436 820 451 821 q 401 810 421 819 q 393 806 397 808 q 273 744 340 787 q 250 715 256 731 q 240 679 243 699 q 212 602 237 644 q 189 550 196 576 q 179 501 182 525 q 161 435 175 465 q 136 359 144 404 q 100 256 125 307 q 85 215 88 233 q 85 184 83 197 q 91 165 87 172 q 95 159 95 159 q 100 156 95 159 q 112 149 104 153 q 127 142 119 145 q 141 139 135 139 q 173 145 154 139 q 206 159 193 152 q 237 167 216 163 q 326 197 279 174 q 348 210 338 205 q 366 218 357 214 q 392 231 376 223 q 434 256 407 239 q 456 271 448 264 q 470 285 465 279 q 476 297 475 292 q 478 307 478 302 q 477 314 478 311 q 475 318 476 317 q 474 320 474 320 l 551 359 l 553 242 q 546 228 553 242 q 528 193 540 213 q 502 154 517 173 q 469 125 486 135 q 433 104 448 114 q 395 82 415 92 q 343 61 375 71 q 290 35 305 48 q 265 22 279 28 q 227 14 252 16 q 179 7 197 11 q 140 3 160 4 q 84 5 119 1 q -6 5 29 11 q -41 0 -41 0 l -43 25 l -45 44 q -46 54 -45 44 q -50 76 -47 63 q -53 103 -52 90 q -54 125 -54 117 q -47 172 -53 144 q -41 220 -42 201 q -33 261 -40 229 q -15 331 -25 293 q 2 397 -5 369 q 9 425 9 425 q 14 441 9 425 q 23 479 18 457 q 34 520 29 500 q 41 551 39 541 q 79 682 46 589 q 113 764 91 714 q 157 857 136 814 q 189 909 178 899 q 205 919 195 916 q 231 923 216 921 q 298 935 255 924 q 358 944 332 943 q 409 945 383 946 q 463 945 432 945 q 529 945 497 947 q 581 940 560 943 q 602 937 602 937 z "},"D":{"ha":618,"x_min":-54,"x_max":673,"o":"m 226 1004 l 226 1004 l 226 1004 q 236 1001 228 1004 q 255 991 245 997 q 270 982 264 986 q 271 976 275 977 q 271 963 271 976 q 270 935 271 951 q 330 945 301 941 q 372 949 358 949 q 391 949 385 949 q 402 949 397 949 q 415 949 407 949 q 450 951 425 950 q 480 954 469 952 q 499 957 492 956 q 516 960 507 959 q 543 960 526 960 q 578 964 567 959 q 596 966 587 966 q 618 954 604 965 q 658 919 643 935 q 673 903 673 903 q 662 857 673 903 q 637 745 652 811 q 607 613 622 679 q 583 504 593 547 q 567 435 573 460 q 555 393 560 410 q 543 360 549 377 q 532 330 538 347 q 480 247 508 275 q 456 214 466 230 q 426 173 442 190 q 380 135 409 157 q 364 123 371 129 q 334 103 346 110 q 296 86 321 96 q 217 63 261 74 q 144 48 174 53 q 64 38 117 45 q -21 28 11 32 q -45 8 -35 16 q -54 0 -54 0 q -52 8 -54 0 q -47 27 -50 16 q -42 48 -44 38 q -39 64 -39 59 q -36 104 -39 69 q -29 183 -33 138 q -20 266 -24 227 q -15 322 -16 305 l -9 333 l 8 416 q 11 418 10 417 q 13 427 12 420 q 13 444 13 434 q 14 470 14 456 q 16 493 15 483 q 19 506 18 501 q 20 513 20 510 q 20 519 20 516 q 22 538 21 525 q 24 551 23 545 q 26 574 24 564 q 31 595 28 584 q 37 612 35 604 q 46 641 45 631 q 47 648 47 644 q 49 661 47 656 q 50 669 50 663 q 64 712 56 688 q 76 749 73 736 q 87 805 80 768 q 94 843 90 825 q 100 871 98 861 q 107 902 104 885 q 114 932 111 919 q 117 951 117 946 l 226 1004 m 96 164 l 96 164 l 96 164 q 156 168 121 163 q 225 186 191 172 q 321 244 271 205 q 410 363 372 283 q 433 415 424 395 q 447 446 442 435 q 455 462 452 456 q 460 473 458 468 q 467 485 463 477 q 478 510 471 496 q 490 540 484 525 q 500 565 496 555 q 505 574 505 574 q 503 583 505 574 q 502 606 502 592 q 505 637 502 620 q 509 680 508 661 q 510 721 510 699 q 509 754 510 735 q 507 791 507 773 q 510 819 507 808 q 516 844 514 833 q 518 854 518 854 q 502 851 518 854 q 465 843 486 848 q 426 829 444 838 q 409 822 415 825 q 399 818 404 819 q 382 810 393 815 q 347 794 372 806 q 315 779 328 785 q 279 762 292 768 q 255 748 267 755 q 229 742 242 741 q 228 738 229 740 q 222 714 223 724 q 221 697 221 705 q 219 675 221 688 q 210 642 218 663 q 162 476 184 572 q 123 292 140 380 q 96 164 107 211 z "},"E":{"ha":677,"x_min":-35,"x_max":732,"o":"m 696 886 l 696 886 l 696 886 q 698 887 695 885 q 705 894 701 890 q 712 903 709 898 q 715 911 715 907 q 720 925 716 916 q 730 964 727 942 q 732 974 732 970 q 731 977 732 977 q 728 976 730 977 q 724 974 726 975 q 718 972 722 972 q 668 979 699 972 q 657 981 661 981 q 648 982 653 982 q 616 986 641 983 q 610 987 614 987 q 564 992 587 991 q 505 989 542 993 q 494 989 500 989 q 402 977 448 985 q 399 983 405 978 q 385 992 394 987 q 369 1001 376 998 q 359 1004 361 1004 l 245 951 q 240 932 244 946 q 231 902 236 919 q 220 871 225 885 q 212 843 217 861 q 201 805 206 825 q 184 749 191 768 q 169 712 180 736 q 151 669 159 688 q 149 661 151 663 q 146 648 147 656 q 144 641 145 644 q 135 617 142 633 q 128 611 130 614 q 124 605 125 608 q 123 601 123 602 q 123 600 123 600 q 123 595 123 600 q 121 585 122 591 q 113 551 117 570 q 111 538 112 545 q 107 519 108 525 q 106 513 106 516 q 104 506 105 510 q 101 493 103 501 q 96 470 98 483 q 93 444 94 456 q 91 427 92 434 q 88 418 90 420 q 85 416 87 417 l 60 333 l 54 322 q 39 250 50 301 q 20 148 29 199 q -6 84 6 115 q -27 33 -19 54 q -35 13 -35 13 l -8 23 q -14 7 -12 14 q -17 0 -17 0 q -2 12 -17 0 q 33 39 12 23 l 73 54 l 115 69 q 119 73 115 69 q 132 82 124 77 q 147 93 139 87 q 185 102 156 98 q 248 110 215 106 q 312 119 292 115 q 354 126 328 123 q 407 132 381 130 q 444 134 433 134 q 468 140 452 134 q 502 152 484 145 q 531 163 519 158 q 544 169 544 169 l 593 285 l 595 286 q 595 287 595 286 q 595 287 595 287 q 595 287 595 287 q 594 287 595 287 q 593 288 594 288 q 592 289 593 288 q 590 290 591 289 q 587 291 589 290 q 584 292 586 291 q 579 294 582 292 q 566 303 572 296 q 557 317 561 309 q 546 331 552 326 q 537 336 542 335 q 527 336 532 336 q 518 334 522 335 q 515 333 515 333 l 210 294 l 259 456 q 275 466 259 456 q 314 489 292 476 q 358 511 337 501 q 389 524 378 522 q 424 531 399 525 q 477 543 449 536 q 527 554 506 549 q 549 559 549 559 l 525 592 l 524 673 q 508 672 524 673 q 473 668 493 670 q 436 663 452 665 q 416 661 419 661 q 401 661 414 661 q 375 659 389 660 q 349 657 360 658 q 338 656 338 656 l 320 671 q 325 697 324 687 q 328 714 326 705 q 336 738 330 724 q 348 767 345 758 q 353 785 351 777 q 361 817 355 795 q 370 844 367 833 q 376 846 373 846 q 437 876 399 852 q 500 891 458 887 q 586 893 541 895 q 663 889 631 892 q 696 886 696 886 z "},"F":{"ha":522,"x_min":-54,"x_max":646,"o":"m 227 1004 l 227 1004 l 227 1004 q 237 1001 229 1004 q 255 991 245 997 q 270 982 264 986 q 272 976 276 977 q 271 964 272 976 q 409 989 345 985 q 419 989 414 989 q 479 992 456 993 q 525 987 501 991 q 531 986 528 987 q 563 982 555 983 q 572 981 568 982 q 583 979 576 981 q 632 972 612 972 q 638 974 635 972 q 642 976 641 975 q 645 977 644 977 q 646 974 646 977 q 645 964 646 970 q 634 925 642 942 q 630 911 631 916 q 626 903 629 907 q 619 894 623 898 q 612 887 615 890 q 610 886 610 885 q 577 889 610 886 q 500 893 545 892 q 414 891 456 895 q 352 876 373 887 q 291 846 314 852 q 252 826 268 840 q 248 821 250 824 l 247 817 q 241 785 243 795 q 238 767 240 777 q 229 738 235 758 q 223 714 224 724 q 222 697 222 705 q 221 684 222 691 l 252 656 q 263 657 252 656 q 289 659 274 658 q 316 661 303 660 q 331 661 328 661 q 350 663 334 661 q 387 668 367 665 q 422 672 407 670 q 438 673 438 673 l 439 592 l 463 559 q 441 554 463 559 q 392 543 420 549 q 338 531 363 536 q 302 524 313 525 q 272 511 293 522 q 229 489 252 501 q 190 466 206 476 q 173 456 173 456 l 151 385 l 142 385 q 123 292 132 336 q 87 135 100 172 q 82 124 84 129 q 75 109 78 115 q 67 98 72 103 q 52 87 62 94 q 25 66 42 80 q -10 37 8 52 q -41 11 -28 22 q -54 0 -54 0 q -51 8 -54 0 q -46 27 -49 16 q -41 48 -43 38 q -39 64 -39 59 q -36 104 -39 69 q -28 183 -33 138 q -20 266 -24 227 q -14 322 -16 305 l -9 333 l 9 416 q 12 418 11 417 q 13 427 12 420 q 14 444 13 434 q 14 470 14 456 q 17 493 15 483 q 19 506 18 501 q 20 513 20 510 q 21 519 20 516 q 22 538 21 525 q 24 551 24 545 q 26 574 25 564 q 32 595 28 584 q 38 612 35 604 q 47 641 45 631 q 47 648 47 644 q 50 661 47 656 q 50 669 50 663 q 65 712 57 688 q 76 749 73 736 q 87 805 81 768 q 95 843 91 825 q 100 871 98 861 q 108 902 104 885 q 115 932 112 919 q 118 951 117 946 l 227 1004 z "},"G":{"ha":626,"x_min":-54,"x_max":680,"o":"m 602 937 l 602 937 l 602 937 q 607 937 602 936 q 617 940 611 937 q 630 945 624 942 q 640 949 635 947 q 644 951 644 951 l 680 948 l 673 924 q 672 913 673 924 q 670 887 671 902 q 667 859 669 872 q 663 840 665 846 q 659 829 661 834 q 652 814 656 823 q 637 784 648 804 q 616 745 626 759 q 585 707 606 730 q 578 698 581 703 q 563 681 568 688 q 555 671 558 675 q 552 665 553 667 q 550 660 551 663 q 548 654 549 658 q 544 645 547 651 q 530 630 539 636 q 511 621 521 624 q 494 616 501 617 q 487 614 487 614 q 493 625 487 614 q 506 651 498 636 q 520 680 513 667 q 528 701 526 694 q 530 723 530 713 q 522 751 529 733 q 505 780 515 769 q 472 806 495 791 q 436 820 451 821 q 401 810 421 819 q 393 806 397 808 q 273 744 340 787 q 250 715 256 731 q 240 679 243 699 q 212 602 237 644 q 189 550 196 576 q 179 501 182 525 q 161 435 175 465 q 136 359 144 404 q 100 256 125 307 q 85 215 88 233 q 85 184 83 197 q 91 165 87 172 q 95 159 95 159 q 100 156 95 159 q 112 149 104 153 q 127 142 119 145 q 141 139 135 139 q 173 145 154 139 q 206 159 193 152 q 229 174 217 164 q 279 208 244 187 q 302 220 292 216 q 319 229 311 225 q 346 242 330 234 q 388 267 361 250 q 410 282 401 275 q 424 296 418 290 q 430 308 429 302 q 432 318 432 313 q 431 325 432 322 q 429 329 430 328 q 428 331 428 331 l 429 332 q 436 344 430 335 q 449 364 446 357 q 455 380 453 371 q 457 398 457 391 q 458 406 458 406 q 402 397 458 406 q 360 392 374 392 q 335 397 345 393 q 313 412 326 402 q 296 424 306 417 l 254 492 q 253 493 254 492 q 249 498 251 495 q 247 503 248 500 q 246 506 245 505 q 250 506 247 507 q 261 501 254 505 q 295 487 283 490 q 307 485 307 485 q 308 485 307 485 q 310 484 309 484 q 312 483 311 483 q 314 482 313 482 q 315 482 315 481 q 316 482 316 482 q 316 482 316 482 q 316 481 317 481 q 316 480 316 481 q 317 480 316 480 q 319 479 317 479 q 323 479 320 479 q 330 479 326 479 q 340 480 334 479 q 355 481 347 480 q 374 483 363 482 q 399 486 385 484 q 471 496 446 492 q 508 501 495 499 q 531 505 520 503 q 539 507 535 506 q 568 513 554 509 q 590 519 581 516 q 599 522 599 522 q 591 505 599 522 q 575 466 584 488 q 561 425 566 444 q 535 373 551 395 q 516 337 523 355 q 511 309 511 321 q 507 283 511 298 l 507 253 q 500 238 507 253 q 482 204 494 224 q 455 165 471 184 q 422 136 440 146 q 401 119 408 127 q 391 101 395 110 q 377 79 387 90 q 343 61 368 69 q 290 35 305 48 q 265 22 279 28 q 227 14 252 16 q 179 7 197 11 q 140 3 160 4 q 84 5 119 1 q -6 5 29 11 q -41 0 -41 0 l -43 25 l -45 44 q -46 54 -45 44 q -50 76 -47 63 q -53 103 -52 90 q -54 125 -54 117 q -47 172 -53 144 q -41 220 -42 201 q -33 261 -40 229 q -15 331 -25 293 q 2 397 -5 369 q 9 425 9 425 q 14 441 9 425 q 23 479 18 457 q 34 520 29 500 q 41 551 39 541 q 79 682 46 589 q 113 764 91 714 q 157 857 136 814 q 189 909 178 899 q 205 919 195 916 q 231 923 216 921 q 298 935 255 924 q 358 944 332 943 q 409 945 383 946 q 463 945 432 945 q 529 945 497 947 q 581 940 560 943 q 602 937 602 937 z "},"H":{"ha":650,"x_min":-54,"x_max":760,"o":"m 322 1004 l 322 1004 l 322 1004 q 332 1001 324 1004 q 350 991 340 997 q 364 982 359 986 q 364 976 369 977 q 363 966 364 976 q 360 943 362 957 q 356 917 359 930 q 351 895 353 903 q 349 892 350 894 q 339 863 345 879 q 325 817 334 848 q 316 785 318 795 q 311 767 314 777 q 299 738 308 758 q 290 714 292 724 q 288 697 288 705 q 284 675 287 688 q 271 642 281 663 q 233 547 252 600 q 243 549 238 548 q 251 549 248 549 q 256 550 254 549 q 261 551 258 551 q 273 553 264 551 q 283 555 278 554 q 298 557 291 557 q 313 557 304 558 q 325 557 319 557 q 345 556 338 555 q 349 557 347 556 q 358 557 355 558 q 364 559 360 557 q 395 557 378 558 q 421 555 412 555 q 460 558 434 556 q 469 559 464 559 q 479 595 471 577 q 486 612 483 604 q 498 641 496 631 q 499 648 499 644 q 503 661 500 656 q 504 669 504 663 q 523 712 513 688 q 538 749 534 736 q 555 805 544 768 q 565 843 560 825 q 574 871 570 861 q 585 902 579 885 q 594 932 590 919 q 599 951 598 946 l 713 1004 q 723 1001 715 1004 q 740 991 731 997 q 754 982 749 986 q 755 976 760 977 q 754 966 755 976 q 751 943 753 957 q 747 917 749 930 q 741 895 744 903 q 740 892 741 894 q 730 863 735 879 q 715 817 725 848 q 707 785 709 795 q 702 767 705 777 q 690 738 699 758 q 681 714 683 724 q 678 697 679 705 q 674 675 677 688 q 662 642 671 663 q 606 507 632 578 l 614 496 q 614 490 615 495 q 612 479 614 486 q 610 467 611 473 q 607 458 608 461 q 604 458 605 455 q 599 456 604 458 q 587 453 594 455 q 555 360 570 404 q 509 235 526 269 q 503 224 506 229 q 495 209 498 215 q 486 199 492 203 q 469 187 480 194 q 441 166 459 180 q 403 137 422 153 q 370 111 383 122 q 356 100 356 100 q 359 108 356 100 q 366 127 361 116 q 373 149 370 138 q 376 165 376 159 q 385 211 378 175 q 399 286 392 248 q 407 322 404 307 l 413 333 l 439 416 q 441 418 441 417 q 420 418 431 418 q 366 415 394 418 q 286 404 338 413 q 170 356 228 392 q 151 292 160 323 q 100 135 116 172 q 94 124 96 129 q 85 109 89 115 q 76 98 82 103 q 60 87 71 94 q 31 66 50 80 q -7 37 13 52 q -40 11 -26 22 q -54 0 -54 0 q -51 8 -54 0 q -44 27 -48 16 q -37 48 -40 38 q -33 64 -33 59 q -26 105 -32 71 q -11 183 -20 138 q 5 266 -2 227 q 16 322 13 305 l 22 333 l 48 416 q 52 418 50 417 q 53 427 52 420 q 56 444 54 434 q 56 450 56 447 q 50 456 54 453 q 31 472 43 462 q 6 492 19 481 q -16 509 -7 502 q -26 516 -26 516 q -20 516 -26 516 q -6 516 -14 516 q 8 516 1 516 q 20 518 16 517 q 38 522 24 519 q 72 528 53 525 q 74 538 73 532 q 77 551 75 545 q 81 574 79 564 q 88 595 83 584 q 96 612 92 604 q 108 641 105 631 q 109 648 109 644 q 112 661 110 656 q 113 669 113 663 q 133 712 122 688 q 147 749 143 736 q 164 805 153 768 q 175 843 170 825 q 184 871 180 861 q 194 902 189 885 q 203 932 199 919 q 208 951 208 946 l 322 1004 z "},"I":{"ha":314,"x_min":-54,"x_max":368,"o":"m 321 1004 l 321 1004 l 321 1004 q 332 1001 323 1004 q 349 991 340 997 q 363 982 358 986 q 364 976 368 977 q 363 966 364 976 q 360 943 362 957 q 356 917 358 930 q 351 895 353 903 q 349 892 350 894 q 339 863 345 879 q 324 817 334 848 q 316 785 318 795 q 310 767 313 777 q 298 738 307 758 q 290 714 292 724 q 288 697 288 705 q 284 675 287 688 q 271 642 281 663 q 208 476 239 572 q 151 292 176 380 q 99 135 116 172 q 94 124 96 129 q 85 109 89 115 q 76 98 81 103 q 60 87 71 94 q 31 66 50 80 q -7 37 12 52 q -40 11 -26 22 q -54 0 -54 0 q -51 8 -54 0 q -44 27 -48 16 q -37 48 -40 38 q -33 64 -34 59 q -26 105 -33 71 q -11 183 -20 138 q 5 266 -3 227 q 16 322 13 305 l 22 333 l 48 416 q 51 418 50 417 q 53 427 52 420 q 56 444 54 434 q 59 470 57 456 q 64 493 61 483 q 67 506 66 501 q 68 513 68 510 q 70 519 69 516 q 73 538 71 525 q 76 551 75 545 q 81 574 78 564 q 88 595 83 584 q 96 612 92 604 q 107 641 104 631 q 109 648 108 644 q 112 661 110 656 q 113 669 113 663 q 132 712 121 688 q 147 749 142 736 q 163 805 153 768 q 174 843 169 825 q 183 871 180 861 q 193 902 188 885 q 203 932 199 919 q 208 951 207 946 l 321 1004 z "},"J":{"ha":593,"x_min":-55,"x_max":704,"o":"m 400 804 l 400 804 l 400 804 q 405 804 402 804 q 415 841 410 823 q 425 870 420 859 q 427 878 426 873 q 264 891 326 879 q 254 893 258 892 q 239 897 245 895 q 229 902 234 899 q 216 913 224 906 q 193 932 208 920 q 160 957 177 944 q 132 978 144 969 q 120 987 120 987 q 127 986 120 987 q 144 985 134 985 q 163 984 154 984 q 177 984 172 983 q 211 987 182 985 q 278 991 240 989 q 350 997 317 994 q 399 1000 384 999 l 408 998 l 482 995 q 485 993 484 993 q 492 993 486 992 q 507 995 498 994 q 528 998 517 996 q 549 999 540 999 q 555 998 553 999 l 563 1002 q 572 1000 565 1002 q 587 1000 576 1000 q 599 1001 593 1001 q 618 1002 610 1002 q 637 1001 627 1002 q 652 998 645 1000 q 668 996 661 997 q 684 991 676 994 q 694 989 690 989 q 701 990 699 989 q 703 990 703 991 q 703 989 704 990 q 701 985 703 987 q 684 961 699 981 q 651 919 670 941 q 613 889 631 898 q 588 884 606 886 q 579 858 584 873 q 566 816 574 843 q 557 784 559 793 q 552 766 555 775 q 540 736 549 756 q 532 713 534 722 q 529 695 530 703 q 525 674 528 686 q 512 640 522 662 q 502 618 507 630 q 486 578 494 600 q 436 435 460 511 l 425 435 q 388 346 399 376 q 342 246 375 312 q 276 122 309 180 q 231 57 243 65 q 221 52 224 54 q 214 47 217 50 q 202 38 210 43 q 176 26 194 33 q 147 13 159 18 q 125 3 134 7 q 104 0 115 0 q 66 4 88 0 q 33 14 44 9 q 1 50 21 20 q -34 136 -18 81 q -48 212 -45 178 q -52 283 -51 246 q -54 332 -52 305 q -54 365 -55 355 q -48 379 -52 376 q -39 385 -45 382 q -26 390 -33 386 q -9 407 -18 395 q 15 450 10 434 q 20 486 20 466 q 22 501 21 493 q 44 543 24 517 q 89 594 64 568 q 134 638 115 620 q 154 656 154 656 q 153 647 154 656 q 150 625 152 638 q 143 600 147 612 q 132 580 138 587 q 122 565 123 570 q 122 555 121 560 q 123 539 123 549 q 124 518 123 530 q 123 470 126 490 q 123 455 121 463 q 132 436 126 447 q 148 394 138 421 q 154 374 153 380 q 152 367 155 368 q 143 367 149 366 q 117 365 134 369 q 95 333 102 359 q 85 278 88 307 q 77 239 82 253 q 77 214 73 224 q 89 195 81 204 q 100 176 96 186 q 113 159 107 161 q 130 167 119 158 q 153 188 138 174 q 182 220 168 203 q 203 250 197 237 q 218 277 209 265 q 247 334 235 295 q 273 386 258 370 q 289 415 284 399 q 309 528 296 452 q 317 564 313 552 q 326 583 321 576 q 330 593 327 588 q 337 610 333 602 q 349 640 346 630 q 350 646 349 643 q 353 659 351 654 q 354 667 354 662 q 368 698 360 681 q 382 730 376 715 q 400 804 393 772 z "},"K":{"ha":657,"x_min":-54,"x_max":777,"o":"m 321 1004 l 321 1004 l 321 1004 q 332 1001 323 1004 q 349 991 340 997 q 363 982 358 986 q 364 976 368 977 q 363 966 364 976 q 360 943 362 957 q 356 917 358 930 q 351 895 353 903 q 349 892 350 894 q 343 874 346 883 q 336 852 340 865 q 336 851 336 852 q 334 827 334 843 q 334 813 334 818 q 333 805 334 808 q 331 800 332 802 q 329 795 330 798 q 327 786 328 792 q 325 754 325 773 q 325 721 324 734 q 325 712 325 715 q 325 708 325 711 q 324 700 324 705 q 323 692 323 696 q 323 689 323 689 q 335 698 323 689 q 362 720 347 707 q 391 744 378 732 q 407 760 404 755 q 432 772 412 766 q 463 785 446 777 q 494 808 480 793 q 623 912 556 871 q 733 972 689 954 q 773 982 777 990 l 725 913 q 717 902 725 913 q 699 877 709 891 q 681 850 688 862 q 665 826 679 846 q 633 781 651 806 q 603 736 616 755 q 589 716 589 718 q 563 708 572 712 q 551 699 555 704 q 546 689 548 694 q 539 676 544 683 q 522 659 534 669 q 485 630 507 647 q 441 596 463 613 q 404 568 419 579 q 389 556 389 556 l 422 505 q 426 498 422 505 q 434 481 429 491 q 444 460 439 471 q 454 441 449 450 q 467 415 463 427 q 477 380 472 402 q 484 357 481 365 q 492 341 487 350 q 507 312 497 332 q 529 258 520 283 q 548 199 537 233 q 549 193 549 196 q 574 139 558 167 q 603 92 589 111 q 616 72 616 72 q 607 77 616 72 q 584 89 597 81 q 557 106 570 97 q 534 123 543 115 q 520 135 526 132 q 510 141 515 138 q 499 148 505 143 q 481 162 492 153 q 465 178 471 172 q 456 190 460 184 q 443 205 451 195 q 418 232 435 215 q 404 248 409 242 q 396 257 399 254 q 393 261 393 260 q 392 264 392 262 q 391 268 392 265 q 387 274 390 270 q 378 288 384 279 q 362 311 366 302 q 356 326 357 320 q 352 335 354 330 q 342 347 349 340 q 316 372 334 355 q 276 406 297 388 q 240 437 256 424 q 225 450 225 450 q 222 440 225 450 q 213 419 218 431 q 200 396 207 407 q 193 383 195 389 q 189 370 191 376 q 168 320 186 354 q 159 302 162 309 q 156 292 157 296 q 156 286 155 289 q 155 274 156 281 q 149 252 154 267 q 140 227 143 235 q 136 212 137 218 q 132 197 134 205 q 127 174 131 189 q 124 161 125 167 q 122 153 123 156 q 121 148 121 150 q 120 146 121 146 q 120 145 120 145 q 120 145 120 145 q 119 143 119 144 q 118 141 119 142 q 118 138 118 140 q 92 120 115 131 q 80 102 86 109 q 60 87 74 96 q 31 66 50 80 q -7 37 13 52 q -40 11 -26 22 q -54 0 -54 0 q -51 8 -54 0 q -44 27 -48 16 q -37 48 -40 38 q -33 64 -34 59 q -26 105 -33 71 q -11 183 -20 138 q 5 266 -3 227 q 16 322 13 305 l 22 333 l 48 416 q 51 418 50 417 q 53 427 52 420 q 56 444 54 434 q 59 470 57 456 q 64 493 61 483 q 67 506 66 501 q 69 513 68 510 q 70 519 69 516 q 73 538 71 525 q 76 551 75 545 q 81 574 79 564 q 88 595 83 584 q 96 612 92 604 q 107 641 105 631 q 109 648 108 644 q 112 661 110 656 q 113 669 113 663 q 132 712 122 688 q 147 749 142 736 q 163 805 153 768 q 174 843 169 825 q 183 871 180 861 q 193 902 188 885 q 203 932 199 919 q 208 951 207 946 l 320 1003 l 321 1004 l 321 1004 l 321 1004 z "},"L":{"ha":536,"x_min":-189,"x_max":627,"o":"m -31 0 l -28 7 q -21 26 -25 15 q -14 47 -18 37 l -39 45 q -84 40 -79 40 q -168 33 -90 40 l -186 31 q -189 32 -189 31 q -181 36 -189 33 q -163 46 -174 40 q -141 60 -158 49 q -94 83 -123 72 q -64 96 -80 88 q -38 107 -48 103 q -3 124 -7 119 l -1 119 l 39 322 q 71 416 45 333 q 76 427 74 417 l 82 470 q 87 493 83 483 l 93 519 l 96 538 q 104 574 101 565 q 119 612 108 589 q 130 641 127 631 q 135 661 134 659 q 136 669 136 663 q 155 712 144 688 q 170 749 165 736 q 186 805 176 768 q 206 871 195 835 l 216 902 q 231 951 229 943 l 345 1004 q 372 991 351 1004 q 389 978 389 981 q 387 976 389 977 l 383 943 q 373 895 378 906 l 372 892 q 338 785 353 838 q 321 738 334 768 q 311 697 313 717 q 294 642 309 674 q 174 292 243 531 q 144 195 157 236 l 168 203 q 200 212 192 212 q 207 211 205 212 q 211 210 209 209 l 213 210 l 239 218 l 258 220 l 265 219 q 283 218 273 218 l 308 219 q 338 216 322 219 q 380 212 359 212 q 477 221 393 212 l 498 210 l 541 194 q 562 178 556 189 l 565 168 l 627 156 l 592 147 l 548 130 q 517 117 530 122 l 503 112 q 477 105 489 106 q 447 89 468 103 q 422 75 426 75 q 341 72 396 72 q 308 73 322 72 q 274 75 293 75 q 214 70 243 75 q 130 60 198 67 q 34 51 100 58 l -31 0 z "},"M":{"ha":722,"x_min":-54,"x_max":776,"o":"m 62 488 l 62 488 l 62 488 q 66 490 64 490 q 108 626 84 550 q 152 763 132 703 q 178 835 172 823 q 198 868 182 843 q 232 924 214 894 q 265 976 251 954 q 279 998 279 998 q 280 987 279 998 q 281 960 280 976 q 285 927 283 943 q 291 899 288 910 q 302 867 298 878 q 306 852 304 860 q 313 833 309 845 q 323 795 319 810 q 331 762 325 783 q 344 719 337 739 q 362 675 351 699 q 373 635 368 663 q 383 576 378 607 q 390 523 387 545 q 393 500 393 500 q 394 503 393 500 q 399 510 396 506 q 406 518 402 514 q 413 524 410 522 q 429 536 420 528 q 454 555 441 547 q 464 564 461 559 q 469 576 467 570 q 476 589 471 584 q 491 611 480 593 q 528 664 507 635 q 566 700 549 692 q 582 710 578 705 q 588 724 586 716 q 603 753 589 735 q 634 804 612 766 q 679 886 655 842 q 719 962 702 930 q 736 995 736 995 q 737 977 736 985 q 740 949 739 960 q 744 925 741 938 q 751 892 746 913 q 763 836 759 859 q 770 798 766 817 q 774 741 776 772 q 774 703 773 724 q 772 654 774 672 q 772 633 771 637 q 762 604 773 628 q 744 558 753 584 q 730 507 734 532 q 727 505 728 506 q 661 292 690 395 q 609 135 626 172 q 604 124 606 129 q 595 109 599 115 q 586 98 591 103 q 570 87 581 94 q 541 66 559 80 q 503 37 522 52 q 470 11 484 22 q 456 0 456 0 q 459 8 456 0 q 466 27 462 16 q 473 48 470 38 q 477 64 476 59 q 484 105 477 71 q 499 183 490 138 q 515 266 507 227 q 526 322 523 305 l 532 333 l 558 416 q 561 418 560 417 q 564 437 563 422 q 547 413 559 435 q 526 388 538 398 q 505 368 515 380 q 488 352 496 356 q 479 345 483 349 q 472 333 475 341 q 465 322 470 326 q 454 315 460 318 q 445 310 449 313 q 438 300 440 307 q 430 284 435 290 q 418 274 425 279 q 406 263 412 269 q 388 245 400 258 q 360 219 375 233 q 335 195 346 205 q 324 185 324 185 q 320 198 322 186 q 315 226 318 210 q 311 254 313 240 q 306 277 309 268 q 296 310 300 295 q 290 345 292 325 q 276 394 288 361 q 254 458 265 427 q 241 493 245 480 q 237 504 237 504 q 237 497 236 505 q 235 460 237 484 q 213 414 229 433 q 196 384 201 399 q 189 370 193 374 q 179 363 184 366 q 170 356 174 361 q 151 292 160 323 q 99 135 116 172 q 94 124 96 129 q 85 109 89 115 q 76 98 81 103 q 60 87 71 94 q 31 66 50 80 q -7 37 12 52 q -40 11 -26 22 q -54 0 -54 0 q -51 8 -54 0 q -44 27 -48 16 q -37 48 -40 38 q -33 64 -34 59 q -26 105 -33 71 q -11 183 -20 138 q 5 266 -3 227 q 16 322 13 305 l 22 333 l 48 416 q 51 418 50 417 q 53 427 52 420 q 56 444 54 434 q 62 488 58 467 z "},"N":{"ha":696,"x_min":-54,"x_max":751,"o":"m 393 500 l 396 502 l 426 357 q 471 470 449 406 q 475 488 473 480 q 478 490 476 489 q 546 706 515 602 q 597 863 581 827 q 603 874 600 869 q 611 889 608 884 q 621 900 615 895 q 637 911 626 905 q 666 932 647 918 q 704 961 684 946 q 737 987 723 977 q 751 998 751 998 q 748 990 751 998 q 741 971 745 983 q 733 950 736 960 q 730 934 730 940 q 726 892 728 922 q 720 826 723 861 q 713 765 716 790 q 711 738 711 739 q 703 714 705 724 q 700 697 701 705 q 696 675 699 688 q 683 642 693 663 q 637 528 661 593 q 634 510 636 518 q 631 509 633 509 q 563 292 593 397 q 511 135 528 172 q 506 124 509 129 q 497 109 501 115 q 488 98 494 103 q 472 87 483 94 q 443 66 462 80 q 405 37 425 52 q 372 11 386 22 q 358 0 358 0 q 351 94 358 60 q 324 185 345 128 q 320 198 322 186 q 315 226 318 210 q 311 254 313 240 q 306 277 309 268 q 296 310 300 295 q 290 345 292 325 q 276 394 288 361 q 254 458 265 427 q 241 493 245 480 q 237 504 237 504 q 237 497 236 505 q 235 460 237 484 q 213 414 229 433 q 196 384 201 399 q 189 370 193 374 q 179 363 184 366 q 170 356 174 361 q 151 292 160 323 q 99 135 116 172 q 94 124 96 129 q 85 109 89 115 q 76 98 81 103 q 60 87 71 94 q 31 66 50 80 q -7 37 12 52 q -40 11 -26 22 q -54 0 -54 0 q -51 8 -54 0 q -44 27 -48 16 q -37 48 -40 38 q -33 64 -34 59 q -26 105 -33 71 q -11 183 -20 138 q 5 266 -3 227 q 16 322 13 305 l 22 333 l 48 416 q 51 418 50 417 q 53 427 52 420 q 56 444 54 434 q 62 488 58 467 l 62 488 q 66 490 64 490 q 108 626 84 550 q 152 763 132 703 q 178 835 172 823 q 198 868 182 843 q 232 924 214 894 q 265 976 251 954 q 279 998 279 998 q 280 987 279 998 q 281 960 280 976 q 285 927 283 943 q 291 899 288 910 q 299 873 296 882 q 305 856 302 865 q 313 833 308 847 q 323 795 319 810 q 331 762 325 783 q 344 719 337 739 q 362 675 351 699 q 373 635 368 663 q 383 576 378 607 q 390 523 387 545 q 393 500 393 500 z "},"O":{"ha":652,"x_min":-25,"x_max":693,"o":"m 307 254 q 306 253 307 253 l 306 252 q 300 242 304 250 q 280 215 293 230 q 248 192 267 201 q 227 182 235 186 q 212 174 219 178 q 201 167 207 170 l 205 166 l 205 166 q 206 165 205 165 q 208 165 207 165 q 213 162 210 163 q 233 153 220 158 q 259 147 245 149 q 289 150 274 145 q 316 169 304 155 q 363 227 349 208 q 382 255 378 245 q 391 276 387 265 q 398 300 393 285 q 416 342 404 316 q 434 387 429 370 q 453 432 439 406 q 459 443 456 438 q 478 483 470 461 q 494 554 486 504 q 513 617 500 587 q 538 671 526 646 q 564 736 561 711 q 564 772 566 755 q 568 821 562 798 q 548 829 559 827 q 513 834 537 831 q 450 842 491 836 q 388 839 414 846 q 345 819 362 831 q 320 796 328 806 l 320 795 l 319 795 l 319 795 q 313 787 315 789 q 312 786 313 786 q 313 787 313 786 q 320 800 315 789 q 343 830 328 813 q 380 857 359 847 q 405 869 395 864 q 422 879 414 874 q 444 892 431 884 l 439 893 l 437 893 q 429 892 434 892 q 405 890 418 892 q 380 885 391 888 q 368 880 370 883 l 367 880 q 366 879 367 879 q 351 870 363 877 q 313 844 334 861 q 274 807 291 827 q 254 763 257 786 q 247 731 252 740 q 237 719 242 723 q 229 709 233 715 q 222 687 224 703 q 218 663 221 673 q 211 645 215 654 q 199 614 206 634 q 184 554 193 594 q 146 438 166 471 q 130 391 134 413 q 129 368 129 377 q 127 348 129 359 q 120 319 126 338 q 100 267 114 300 q 98 218 89 237 q 134 212 108 214 q 188 205 153 210 q 241 208 218 201 q 278 225 263 214 q 300 245 292 236 q 306 252 304 250 l 306 253 l 307 254 m 380 1002 q 402 1003 382 1003 q 449 1003 422 1003 q 495 1002 475 1002 l 495 1002 l 515 1002 l 572 977 l 575 977 q 581 977 577 977 q 600 975 588 976 q 624 972 612 973 q 662 932 644 967 q 686 863 680 897 q 691 807 693 834 q 675 744 690 780 q 654 681 667 722 q 620 585 637 632 q 589 519 602 537 q 565 454 579 505 q 535 340 550 403 q 509 242 522 286 q 488 180 497 197 q 439 119 475 155 q 363 52 404 83 q 293 9 323 20 q 242 0 264 0 q 208 3 220 0 l 208 3 q 197 5 200 5 l 196 6 l 195 6 l 117 17 l 81 28 q 81 28 81 28 l 80 29 q 72 37 78 31 q 43 58 62 45 q 23 80 30 68 q 11 105 16 93 q 5 117 8 112 q -11 168 -1 132 q -24 239 -21 203 q -17 301 -25 269 q 2 368 -9 334 q 11 397 7 382 q 34 477 19 424 q 68 598 51 538 q 95 682 86 658 q 114 734 102 700 q 146 823 129 779 q 176 885 163 868 q 231 922 200 909 q 266 942 248 930 q 298 961 279 951 q 335 980 317 971 q 367 996 354 989 l 378 1001 q 379 1002 378 1001 l 380 1002 z "},"P":{"ha":696,"x_min":-54,"x_max":759,"o":"m 321 1004 l 321 1004 l 321 1004 q 332 1001 323 1004 q 349 991 340 997 q 363 982 358 986 q 364 976 368 977 q 363 968 364 976 q 360 947 362 960 q 357 922 359 935 q 406 942 377 932 q 413 941 409 941 q 424 940 420 941 q 428 940 427 940 q 430 940 429 940 q 433 941 431 940 q 441 944 435 942 q 449 947 446 945 q 453 950 451 949 q 458 953 455 951 q 466 956 460 954 q 481 958 471 957 q 547 968 532 963 q 551 970 550 969 q 554 972 553 970 q 557 974 555 973 q 563 976 559 975 q 576 978 568 977 q 615 981 597 979 q 640 984 633 983 q 648 985 644 985 q 666 979 657 981 q 688 970 676 975 q 720 956 712 959 q 726 954 724 955 q 730 951 728 953 q 732 948 731 950 q 734 941 733 945 q 737 934 736 935 q 738 932 738 932 q 739 930 739 931 q 739 928 739 929 q 740 925 739 926 q 741 923 740 924 q 741 921 741 922 q 742 918 742 920 q 740 912 741 916 q 739 907 739 909 q 737 902 737 904 q 737 898 736 900 q 739 891 737 895 q 741 886 740 888 q 745 875 742 880 q 755 861 747 869 q 759 856 758 858 q 756 854 759 854 q 751 852 754 853 q 743 850 747 852 q 740 844 739 849 q 743 833 742 838 q 746 825 746 829 q 740 817 745 821 q 733 801 735 811 q 729 780 730 790 q 725 763 727 768 q 719 749 722 758 q 714 735 716 741 q 709 724 713 729 q 704 713 707 720 q 699 701 701 705 q 692 688 697 696 q 686 674 688 681 q 677 656 683 666 q 670 646 673 650 q 665 640 668 644 q 663 637 664 638 q 649 622 654 627 q 640 614 644 617 q 633 609 637 612 q 625 600 630 606 q 617 592 620 595 q 612 587 614 589 q 608 584 610 585 q 597 576 604 582 q 590 570 593 572 q 587 568 588 568 q 583 564 585 566 q 576 558 581 562 q 568 551 570 553 q 565 549 566 550 q 560 545 564 547 q 549 539 556 543 q 530 529 536 532 q 517 523 523 526 q 509 519 514 522 q 496 515 503 517 q 483 511 488 513 q 477 510 477 510 l 463 506 q 477 506 463 506 q 515 506 492 506 q 454 478 479 484 q 422 471 433 473 q 402 466 412 469 q 376 457 393 463 q 326 443 361 452 q 251 426 290 435 q 187 412 212 418 q 151 292 168 349 q 99 135 116 172 q 94 124 96 129 q 85 109 89 115 q 76 98 81 103 q 59 87 70 94 q 31 66 49 80 q -7 37 12 52 q -40 11 -26 22 q -54 0 -54 0 q -51 8 -54 0 q -44 27 -48 16 q -37 48 -41 38 q -33 64 -34 59 q -26 105 -33 71 q -11 183 -20 138 q 5 266 -3 227 q 16 322 12 305 l 22 333 l 47 416 q 51 418 50 417 q 53 427 52 420 q 55 444 54 434 q 58 470 56 456 q 63 493 60 483 q 67 506 66 501 q 68 513 68 510 q 70 519 69 516 q 73 538 71 525 q 76 551 75 545 q 80 574 78 564 q 88 595 83 584 q 96 612 92 604 q 107 641 104 631 q 109 648 108 644 q 112 661 109 656 q 113 669 113 663 q 132 712 121 688 q 147 749 142 736 q 163 805 153 768 q 174 843 169 825 q 183 871 179 861 q 193 902 188 885 q 203 932 199 919 q 208 951 207 946 l 321 1004 m 243 576 l 243 576 l 243 576 q 273 578 254 577 q 283 579 279 578 q 316 582 305 581 q 333 584 326 583 q 348 589 339 585 q 376 599 357 592 q 396 606 389 603 q 406 611 403 609 q 412 615 410 613 q 419 621 415 618 q 434 627 424 623 q 462 637 444 631 q 524 651 503 650 q 551 656 540 652 q 573 675 562 661 q 626 801 642 768 q 548 828 610 833 q 416 800 486 823 q 307 758 346 777 q 298 738 304 750 q 290 714 292 724 q 288 697 288 705 q 284 675 287 688 q 271 642 281 663 q 243 576 256 612 z "},"Q":{"ha":610,"x_min":-54,"x_max":664,"o":"m 658 858 l 658 858 q 662 801 664 828 q 647 739 661 774 q 625 675 638 715 q 591 578 608 626 q 560 513 573 531 q 536 448 550 499 q 506 334 522 397 q 480 236 492 280 q 460 174 468 191 q 420 124 448 153 q 359 65 393 94 q 362 61 360 63 q 446 -19 407 9 q 484 -47 484 -47 q 478 -52 484 -47 q 461 -62 473 -57 q 433 -68 450 -66 q 394 -64 416 -69 q 346 -42 372 -58 q 282 11 310 -20 q 264 3 273 6 q 214 -6 235 -6 q 179 -3 192 -6 q 167 1 167 1 l 88 12 l 53 22 q 43 31 53 22 q 15 52 33 39 q -6 74 1 62 q -18 99 -14 87 q -23 112 -20 106 q -40 161 -31 125 q -53 234 -50 197 q -46 295 -54 262 q -27 361 -38 328 q -18 391 -22 376 q 5 471 -10 418 q 40 592 22 532 q 66 676 57 652 q 85 728 73 694 q 117 818 100 772 q 148 880 134 863 q 201 916 171 903 q 237 937 219 924 q 269 955 250 945 q 306 974 288 965 q 338 990 325 983 q 351 996 351 996 q 373 997 353 997 q 420 997 393 997 q 467 997 446 997 q 487 996 487 996 l 544 972 q 552 971 544 972 q 571 969 559 970 q 595 966 583 968 q 632 926 614 962 q 658 858 650 891 m 545 829 l 545 829 q 540 845 550 838 q 511 856 530 851 q 475 863 493 860 q 435 874 446 869 q 417 885 423 882 q 411 888 411 888 q 400 887 411 888 q 376 884 389 886 q 351 879 362 882 q 339 874 340 877 q 322 864 339 874 q 284 838 306 854 q 245 801 262 821 q 225 758 228 780 q 218 725 222 734 q 208 713 213 717 q 200 703 203 709 q 194 682 196 697 q 189 657 192 667 q 182 640 186 648 q 170 609 177 629 q 156 549 163 589 q 118 432 137 465 q 102 386 105 408 q 100 361 100 371 q 98 342 100 353 q 91 313 97 332 q 72 261 85 294 q 68 215 61 233 q 92 186 75 197 q 129 169 109 175 q 162 162 148 163 q 176 161 176 161 q 186 155 176 161 q 213 144 197 149 q 216 186 210 168 q 220 234 222 208 q 212 284 218 260 q 200 322 205 307 q 194 338 194 338 q 199 338 194 338 q 211 336 203 338 q 228 330 219 334 q 245 316 237 325 q 258 296 254 307 q 265 276 263 286 q 268 262 267 267 q 267 259 268 257 q 275 235 267 259 q 297 175 283 210 q 337 225 325 208 q 354 251 350 241 q 361 270 359 260 q 370 294 364 279 q 388 337 375 310 q 405 380 400 363 q 425 427 410 399 q 430 437 427 432 q 449 476 441 455 q 465 549 456 498 q 484 611 471 581 q 510 665 496 640 q 536 730 532 705 q 536 766 536 749 q 545 829 532 802 z "},"R":{"ha":678,"x_min":-81,"x_max":732,"o":"m 295 1004 l 295 1004 l 295 1004 q 305 1001 297 1004 q 322 991 313 997 q 337 982 332 986 q 338 976 342 977 q 337 968 338 976 q 334 947 336 960 q 330 922 332 935 q 380 942 351 932 q 387 941 383 941 q 397 940 394 941 q 402 940 401 940 q 405 940 404 940 q 407 941 406 940 q 416 944 409 942 q 422 947 420 945 q 427 950 425 949 q 431 953 429 951 q 439 956 434 954 q 456 958 445 957 q 522 968 506 963 q 526 970 524 969 q 528 972 527 970 q 531 974 529 973 q 537 976 532 975 q 550 978 541 977 q 588 981 570 979 q 614 984 606 983 q 622 985 617 985 q 640 979 631 981 q 662 970 650 975 q 694 956 686 959 q 700 954 698 955 q 703 951 702 953 q 706 948 705 950 q 709 941 707 945 q 711 934 710 935 q 712 932 711 932 q 712 930 712 931 q 713 928 712 929 q 713 925 713 926 q 714 923 713 924 q 715 921 715 922 q 715 918 715 920 q 714 912 715 916 q 712 907 713 909 q 711 902 711 904 q 711 898 711 900 q 713 891 711 895 q 714 886 713 888 q 718 875 715 880 q 729 861 721 869 q 732 856 732 858 q 730 854 732 854 q 725 852 728 853 q 717 850 720 852 q 714 844 713 849 q 718 833 715 838 q 720 825 720 829 q 714 817 720 821 q 706 801 709 811 q 703 780 704 790 q 699 763 701 768 q 693 749 696 758 q 688 735 690 741 q 684 724 686 729 q 678 713 681 720 q 673 701 675 705 q 666 688 671 696 q 659 674 661 681 q 651 656 657 666 q 644 646 646 650 q 639 640 642 643 q 637 637 638 638 q 622 622 627 627 q 614 614 617 617 q 607 609 610 612 q 599 600 604 606 q 591 592 594 595 q 586 587 588 589 q 581 584 584 585 q 572 576 578 582 q 564 570 566 572 q 561 568 562 568 q 557 564 559 566 q 550 558 555 562 q 542 551 544 553 q 539 549 541 550 q 534 545 537 547 q 523 539 530 543 q 504 529 511 532 q 491 523 496 526 q 484 519 488 522 q 469 515 477 517 q 456 511 462 513 q 451 510 451 510 l 437 506 q 451 506 437 506 q 489 506 465 506 q 428 478 452 484 q 395 471 407 473 q 387 469 391 469 q 405 433 397 448 q 420 403 415 417 q 432 363 426 389 q 440 338 436 347 q 449 319 444 329 q 465 286 454 308 q 491 224 481 253 q 513 157 500 196 q 515 149 513 153 q 542 87 524 119 q 575 33 560 56 q 591 11 591 11 q 580 16 591 11 q 554 31 569 22 q 523 50 538 39 q 497 70 507 60 q 481 83 487 79 q 470 90 475 87 q 456 98 464 93 q 437 115 449 103 q 418 132 425 125 q 408 146 412 139 q 393 163 402 153 q 365 194 384 174 q 348 212 354 205 q 339 222 342 219 q 335 228 336 226 q 334 231 334 229 q 333 235 334 232 q 329 243 332 237 q 318 258 326 248 q 300 285 305 275 q 293 301 295 295 q 289 312 292 307 q 278 326 286 317 q 235 365 265 338 q 176 416 204 392 q 161 412 168 414 q 124 292 141 349 q 73 135 90 172 q 67 124 70 129 q 59 109 62 115 q 50 98 55 103 q 33 87 44 94 q 4 66 23 80 q -34 37 -14 52 q -67 11 -53 22 q -81 0 -81 0 q -78 8 -81 0 q -71 27 -75 16 q -63 48 -66 38 q -60 64 -60 59 q -53 105 -59 71 q -38 183 -46 138 q -21 266 -29 227 q -10 322 -14 305 l -4 333 l 22 416 q 24 418 24 417 q 27 427 26 420 q 29 444 28 434 q 33 470 31 456 q 37 493 35 483 q 40 506 39 501 q 42 513 41 510 q 43 519 43 516 q 47 538 44 525 q 50 551 48 545 q 54 574 52 564 q 62 595 57 584 q 69 612 65 604 q 81 641 78 631 q 82 648 81 644 q 85 661 83 656 q 87 669 87 663 q 105 712 95 688 q 121 749 116 736 q 137 805 127 768 q 148 843 142 825 q 157 871 153 861 q 167 902 161 885 q 176 932 172 919 q 182 951 180 946 l 295 1004 m 216 576 l 216 576 l 216 576 q 246 578 228 577 q 257 579 252 578 q 290 582 279 581 q 306 584 300 583 q 321 589 313 585 q 350 599 331 592 q 370 606 363 603 q 380 611 376 609 q 386 615 384 613 q 393 621 389 618 q 408 627 398 623 q 436 637 417 631 q 498 651 477 650 q 524 656 513 652 q 547 675 535 661 q 600 801 616 768 q 522 828 584 833 q 390 800 460 823 q 281 758 320 777 q 272 738 277 750 q 264 714 266 724 q 261 697 262 705 q 257 675 260 688 q 244 642 254 663 q 216 576 231 612 z "},"S":{"ha":669,"x_min":-205,"x_max":724,"o":"m 554 854 l 554 854 l 554 854 q 548 849 553 854 q 536 836 543 843 q 524 827 529 829 q 521 826 522 825 q 522 830 521 827 q 523 836 522 833 q 522 841 523 839 q 519 855 520 844 q 518 877 519 865 q 518 891 518 884 q 517 900 517 897 q 514 911 516 903 q 509 927 512 918 q 505 941 507 935 q 503 947 503 947 l 448 966 q 440 965 448 966 q 420 963 431 964 q 397 960 408 962 q 382 960 391 959 q 350 956 370 960 q 292 932 329 951 q 278 925 284 928 q 269 920 273 922 q 264 916 266 918 q 261 914 262 915 q 260 913 260 913 q 261 912 260 912 q 261 910 261 911 q 260 908 261 909 q 257 903 260 906 q 250 897 255 901 q 238 886 245 892 q 190 840 217 869 q 135 780 162 811 q 90 728 109 749 q 72 706 72 706 l 32 532 l 47 417 q 53 413 47 417 q 69 402 60 408 q 86 389 78 395 q 100 380 95 383 q 125 357 111 372 q 136 345 130 352 q 151 333 142 339 q 176 317 160 327 q 247 275 199 304 q 272 258 262 264 q 286 248 281 252 q 290 243 290 245 q 289 241 291 241 q 286 241 288 241 q 280 240 282 241 q 279 237 278 239 q 279 232 280 233 q 275 231 279 231 q 235 224 267 232 q 220 218 225 220 q 212 215 214 216 q 208 212 209 213 q 202 208 205 210 q 192 203 199 206 q 172 196 185 200 q 98 180 121 181 q 75 177 85 179 q 47 168 66 174 q 7 155 28 162 q -30 142 -14 147 q -45 136 -45 136 q -43 132 -45 136 q -38 120 -41 128 q -36 102 -36 113 q -71 69 -36 90 q -144 30 -106 48 q -196 5 -182 12 q -205 0 -205 1 q -197 0 -204 -1 q -180 3 -191 1 q -166 5 -173 4 q -124 8 -149 8 q -70 11 -104 9 q 30 13 -31 13 q 153 16 100 12 q 273 34 238 24 q 351 61 310 41 q 376 80 368 71 q 391 98 385 88 q 395 104 393 100 q 419 137 404 116 q 450 182 434 159 q 460 210 460 197 q 454 237 459 222 q 444 269 449 250 q 428 332 438 302 q 397 383 417 361 q 363 405 386 394 q 317 425 341 416 q 279 441 296 434 q 256 456 263 449 q 225 489 241 471 q 199 517 209 506 q 192 543 194 525 q 190 581 190 561 q 191 614 190 601 q 248 675 194 637 q 294 713 268 691 q 352 752 326 739 q 394 769 378 765 q 410 774 410 774 q 410 755 410 774 q 410 727 410 747 q 410 686 410 707 q 411 680 410 682 q 411 678 411 678 q 412 680 412 678 q 413 683 412 681 q 414 686 413 684 q 414 687 414 687 q 414 686 414 687 q 413 682 414 685 q 412 676 413 680 q 408 643 410 658 q 403 605 405 623 q 405 591 402 595 q 412 587 408 588 q 424 581 417 585 q 435 575 430 576 q 447 575 439 574 q 471 582 455 577 q 488 587 482 585 q 496 590 493 589 q 502 594 499 592 q 514 602 505 597 q 524 607 520 606 q 531 609 528 608 q 535 610 534 610 q 538 613 537 611 q 543 620 540 615 q 546 625 544 623 q 550 628 548 627 q 555 632 553 629 q 560 641 557 635 q 565 660 563 647 q 593 727 573 695 q 616 771 604 746 q 642 818 625 789 q 677 876 659 846 q 710 925 696 905 q 724 945 724 945 q 718 943 724 945 q 698 936 713 941 q 684 932 690 934 q 668 927 676 930 q 648 918 661 924 q 623 902 638 911 q 592 881 608 892 q 565 862 576 870 q 554 854 554 854 z "},"T":{"ha":566,"x_min":-55,"x_max":803,"o":"m 442 1004 l 442 1004 l 442 1004 q 451 1001 444 1004 q 523 993 491 1000 q 568 978 550 985 q 587 972 587 972 q 588 977 587 972 q 591 977 590 977 q 628 971 613 972 q 657 968 640 970 q 690 964 675 966 q 731 960 711 964 q 746 956 741 958 q 755 954 751 955 q 761 952 758 953 q 772 949 765 951 q 792 945 783 947 q 801 944 799 945 q 799 942 803 943 q 780 938 795 941 q 747 931 765 935 q 713 925 728 928 q 695 921 699 922 q 674 917 690 920 q 642 910 659 913 q 617 906 625 907 l 618 905 q 607 903 618 905 q 579 898 596 901 q 547 892 563 895 q 519 887 530 889 q 472 878 498 883 q 464 876 468 877 q 445 817 458 859 q 436 785 439 795 q 431 767 434 777 q 419 738 428 758 q 411 714 413 724 q 408 697 409 705 q 405 675 408 688 q 391 642 401 663 q 328 476 359 572 q 271 292 297 380 q 220 135 237 172 q 214 124 216 129 q 206 109 210 115 q 197 98 202 103 q 180 87 191 94 q 152 66 170 80 q 114 37 133 52 q 80 11 94 22 q 66 0 66 0 q 70 8 66 0 q 77 27 73 16 q 84 48 81 38 q 87 64 87 59 q 95 105 88 71 q 110 183 101 138 q 126 266 118 227 q 137 322 134 305 l 142 333 l 169 416 q 172 418 171 417 q 174 427 173 420 q 176 444 175 434 q 180 470 178 456 q 184 493 182 483 q 188 506 186 501 q 189 513 189 510 q 191 519 190 516 q 194 538 191 525 q 197 551 195 545 q 201 574 199 564 q 209 595 204 584 q 216 612 212 604 q 228 641 225 631 q 229 648 229 644 q 233 661 231 656 q 234 669 234 663 q 253 712 242 688 q 268 749 263 736 q 284 805 274 768 q 294 839 289 823 q 290 838 292 838 q 243 822 270 830 q 174 806 193 809 q 162 807 170 805 q 145 811 155 808 q 126 817 136 814 q 110 818 117 819 q 97 817 102 817 q 82 817 92 817 q 66 819 76 818 q 32 821 51 819 q -3 823 12 822 q -18 825 -18 825 l -55 823 l 3 853 q 3 856 3 853 q 4 864 3 859 q 9 874 5 868 q 20 885 13 880 q 48 905 36 897 q 60 913 60 913 l 77 930 q 94 933 77 930 q 133 940 111 936 q 172 947 155 943 q 218 965 197 954 q 257 979 239 975 q 292 989 280 984 q 304 994 298 993 q 308 995 307 994 q 309 995 309 995 q 310 995 309 995 q 313 996 311 996 q 318 997 315 996 q 347 996 340 996 q 350 997 349 996 q 352 998 351 998 q 354 1001 353 1000 q 359 1002 355 1002 q 360 1002 360 1002 l 360 1002 q 395 1003 368 1004 q 435 1002 416 1002 q 437 1002 437 1002 l 442 1004 z "},"U":{"ha":624,"x_min":-54,"x_max":678,"o":"m 254 979 l 254 979 l 254 979 q 265 964 261 972 q 271 938 269 956 q 271 927 271 932 q 268 919 270 923 q 262 897 264 911 q 260 848 259 882 q 250 838 255 842 q 238 824 243 833 q 231 793 233 815 q 225 772 229 779 q 216 758 221 764 q 206 743 211 752 q 199 717 201 734 q 184 661 195 688 q 156 554 172 629 q 118 438 137 471 q 102 391 105 413 q 100 368 100 377 q 98 348 100 359 q 91 319 97 338 q 72 267 85 300 q 68 221 61 239 q 92 192 75 203 q 129 175 109 180 q 162 168 148 170 q 176 166 176 166 q 184 162 176 166 q 203 153 191 158 q 231 147 216 149 q 260 150 245 145 q 288 169 275 155 q 334 227 319 208 q 354 255 349 245 q 361 276 359 265 q 370 300 364 285 q 388 342 375 316 q 405 387 400 370 q 425 432 410 406 q 430 443 427 438 q 449 483 441 461 q 465 554 456 504 q 490 644 472 591 q 525 745 507 697 q 552 828 549 811 q 552 835 552 832 q 553 839 553 838 q 553 842 553 841 q 553 844 553 843 q 553 844 553 844 q 553 845 553 844 q 552 845 553 845 q 552 846 552 846 q 552 848 552 846 q 561 859 557 854 q 568 873 564 864 q 591 911 574 884 q 619 951 607 937 q 643 975 631 964 q 663 994 652 983 q 665 987 664 989 q 668 980 667 983 q 671 971 669 977 q 674 956 672 966 q 677 905 678 936 q 663 836 677 873 q 649 780 657 820 q 632 690 641 741 q 607 562 620 621 q 585 486 595 503 q 553 401 572 467 q 516 282 538 344 q 460 180 493 220 q 357 72 406 119 q 264 9 307 25 q 214 0 235 0 q 179 3 192 0 q 167 6 167 6 l 88 17 l 53 28 q 43 37 53 28 q 15 58 33 45 q -6 80 1 68 q -18 105 -14 93 q -23 117 -20 112 q -40 168 -31 132 q -53 239 -50 203 q -46 301 -54 269 q -27 368 -38 334 q -18 397 -22 382 q 11 500 -8 429 q 46 627 28 566 q 72 711 63 689 q 90 764 79 730 q 122 853 105 808 q 153 915 139 898 q 184 940 166 929 q 220 960 203 951 q 243 972 234 966 q 246 974 244 973 q 249 976 248 975 q 251 977 250 977 q 252 978 252 978 q 253 979 252 979 q 253 979 253 979 q 254 979 254 979 q 254 979 254 979 q 253 979 254 979 q 253 979 253 979 q 253 979 253 979 q 253 979 253 979 q 253 979 253 979 q 254 979 254 979 z "},"V":{"ha":623,"x_min":25,"x_max":760,"o":"m 143 1014 l 143 1014 l 143 1014 q 135 1004 140 1016 q 123 973 130 993 q 111 933 117 954 q 108 924 109 928 q 101 897 102 906 q 101 880 100 888 q 101 866 101 874 q 98 844 100 857 q 86 792 96 825 q 64 724 76 760 q 31 615 41 659 q 25 549 25 584 q 28 486 25 514 q 31 458 31 458 q 28 430 31 458 q 26 360 25 402 q 37 274 27 318 q 69 195 46 229 q 125 81 102 146 q 162 -36 149 16 q 176 -88 176 -88 q 184 -77 176 -88 q 204 -48 193 -65 q 224 -16 215 -32 q 237 8 234 -1 q 242 20 239 17 q 253 26 246 24 q 291 50 264 30 q 319 69 309 62 q 340 86 332 77 q 359 121 349 96 q 374 148 366 139 q 389 161 381 156 q 401 172 395 165 q 413 191 408 178 q 441 247 427 222 q 465 291 454 267 q 497 337 480 321 q 513 358 508 349 q 520 378 515 366 q 533 412 526 395 q 545 439 540 429 q 562 456 551 448 q 600 496 579 467 q 611 517 608 509 q 616 530 615 524 q 619 542 618 535 q 622 561 620 549 q 625 579 625 572 q 624 589 625 585 q 621 597 623 593 q 616 609 618 602 q 611 632 613 616 q 607 666 608 648 q 604 696 605 684 q 603 709 603 709 l 654 744 q 665 752 654 744 q 688 773 675 760 q 712 798 702 785 q 719 808 717 805 q 720 811 720 810 q 718 812 720 812 q 708 814 713 812 q 696 827 702 817 q 686 850 688 840 q 687 873 684 860 q 696 911 690 887 q 699 920 698 916 q 715 980 705 943 q 736 1055 726 1017 q 753 1119 746 1093 q 760 1145 760 1145 q 740 1125 760 1145 q 691 1075 719 1104 q 637 1018 663 1046 q 600 975 611 991 q 582 947 588 960 q 572 921 576 935 q 548 866 566 901 q 524 813 532 833 q 509 778 518 798 q 481 724 500 758 q 452 670 460 688 q 439 633 444 652 q 415 567 433 613 q 371 473 401 532 q 310 355 342 415 q 255 253 278 295 q 232 210 232 210 q 227 230 232 210 q 215 273 222 249 q 199 317 208 298 q 192 332 195 326 q 178 367 183 349 q 171 419 173 385 q 170 442 170 435 q 171 453 170 450 q 173 460 172 457 q 177 471 175 463 q 182 500 180 479 q 182 507 182 503 q 189 574 187 548 q 191 625 191 600 q 197 676 191 650 q 204 737 204 705 q 204 761 204 753 q 203 775 204 768 q 200 793 202 782 q 195 824 198 804 q 182 878 191 846 q 165 941 174 909 q 150 993 157 972 q 143 1014 143 1014 z "},"W":{"ha":748,"x_min":-9,"x_max":903,"o":"m 473 783 l 473 783 l 473 783 q 477 770 475 781 q 481 744 479 760 q 484 716 482 730 q 489 694 486 703 q 498 663 495 677 q 503 629 502 649 q 516 583 505 614 q 537 522 526 551 q 549 489 546 500 q 554 478 553 478 q 554 486 555 478 q 557 522 553 498 q 581 566 564 548 q 602 601 594 581 q 610 622 606 614 q 617 641 614 629 q 622 677 621 652 q 635 715 624 698 q 661 749 646 733 q 690 798 684 774 q 704 849 696 826 q 718 899 712 871 q 728 922 722 916 q 741 930 734 928 q 752 936 747 932 q 762 947 757 939 q 781 968 774 964 q 785 972 784 970 q 785 977 787 974 q 797 981 785 979 q 826 985 808 983 q 861 988 843 987 q 890 990 878 989 q 903 991 903 991 q 897 978 903 991 q 884 948 891 966 q 870 915 876 931 q 862 890 864 899 q 837 833 857 867 q 819 798 828 817 q 810 779 814 787 q 792 744 800 760 q 772 710 784 728 q 761 687 764 698 q 756 665 758 677 q 738 600 753 644 q 708 513 729 576 q 661 374 686 451 q 602 202 628 278 q 570 114 576 125 q 554 92 566 106 q 531 65 543 79 q 509 41 518 51 q 500 32 500 32 q 494 47 500 32 q 481 85 488 63 q 473 109 476 100 q 467 127 470 117 q 460 146 465 134 q 451 183 454 168 q 444 214 449 195 q 431 256 437 237 q 414 296 425 275 q 404 335 409 309 q 396 392 399 362 q 390 444 392 422 q 388 465 388 465 q 386 462 388 465 q 380 455 384 459 q 373 447 377 451 q 366 440 370 443 q 348 427 358 435 q 320 406 335 414 q 309 395 313 401 q 304 383 306 389 q 296 369 301 375 q 279 347 291 365 q 238 291 261 321 q 196 251 214 260 q 178 239 183 245 q 172 225 174 233 q 166 212 170 219 q 154 194 162 204 q 113 117 141 176 q 58 -6 85 57 q 20 -94 31 -68 q 15 -36 18 -74 q 8 22 12 1 q 2 62 5 35 q -3 120 -1 90 q -7 174 -6 151 q -9 196 -9 196 q -5 205 -9 196 q 3 227 -1 214 q 10 253 7 240 q 18 287 13 265 q 30 333 24 310 q 35 367 35 356 q 36 382 35 376 q 38 394 37 388 q 42 421 40 404 q 56 466 45 443 q 66 503 66 488 q 73 547 66 517 q 78 592 78 578 q 80 604 78 599 q 85 614 83 609 q 96 644 92 623 q 99 673 97 661 q 102 706 102 687 q 104 727 102 717 q 106 743 105 736 q 107 749 107 749 l 110 790 l 146 829 q 234 926 220 909 q 241 935 239 932 q 243 937 243 937 l 286 893 q 288 892 286 893 q 295 889 291 891 q 301 885 298 887 q 305 880 304 882 q 302 874 306 877 q 291 847 295 866 q 278 812 287 831 q 270 795 272 802 q 268 783 269 789 q 260 751 267 774 q 247 697 256 735 q 229 615 238 659 q 213 540 219 572 q 206 508 206 508 q 212 514 206 508 q 227 535 218 519 q 251 562 237 551 q 273 584 262 570 q 292 601 283 596 q 302 609 298 605 q 310 622 307 613 q 318 633 313 629 q 329 640 323 637 q 340 647 335 644 q 347 658 345 651 q 370 685 355 675 q 384 697 377 690 q 403 717 389 703 q 433 745 417 730 q 461 771 449 760 q 473 783 473 783 z "},"X":{"ha":673,"x_min":-255,"x_max":799,"o":"m 757 932 l 757 932 l 757 932 q 767 923 760 931 q 783 903 775 914 q 795 884 791 892 q 793 877 799 876 q 786 866 793 877 q 770 839 780 854 q 749 808 760 823 q 731 785 739 793 q 728 782 730 783 q 700 752 715 768 q 657 703 685 736 q 629 668 637 679 q 612 648 621 658 q 581 618 603 639 q 558 594 566 604 q 545 574 551 583 q 529 549 540 563 q 495 515 519 536 q 412 435 456 481 q 457 349 435 386 q 471 319 467 330 q 475 300 474 309 q 479 285 477 293 q 488 264 481 277 q 501 240 497 248 q 507 224 505 232 q 517 196 509 215 q 533 156 527 169 q 544 131 539 142 q 545 129 545 130 q 552 110 549 121 q 557 86 555 98 q 561 65 559 74 q 563 56 563 56 q 564 53 566 56 q 555 44 561 50 q 543 35 549 39 q 530 27 536 30 q 524 24 525 24 l 412 54 q 407 70 411 58 q 396 97 402 82 q 385 123 390 111 q 375 149 380 133 q 363 181 369 164 q 345 230 351 214 q 328 261 339 241 q 308 298 317 282 q 306 306 307 303 q 302 316 304 310 q 155 146 224 228 q 5 -20 47 16 q -7 -31 -1 -26 q -26 -45 -18 -40 q -43 -54 -33 -51 q -69 -60 -52 -57 q -115 -71 -85 -63 q -177 -89 -145 -79 q -232 -104 -209 -98 q -255 -111 -255 -111 q -247 -102 -255 -111 q -228 -83 -239 -94 q -208 -60 -217 -71 q -194 -42 -198 -49 q -163 3 -189 -35 q -102 92 -137 41 q -36 185 -66 142 q 9 248 -5 229 l 22 259 l 100 348 q 104 349 102 348 q 112 359 106 351 q 124 378 117 367 q 142 408 132 393 q 161 434 152 423 q 172 448 168 443 q 178 456 176 452 q 183 463 180 459 q 197 484 187 469 q 208 499 203 492 q 230 528 220 515 l 204 592 l 198 602 q 184 651 194 616 q 164 725 175 686 q 146 795 154 765 q 138 830 139 825 q 133 845 137 836 q 125 863 130 854 q 118 880 121 873 q 115 886 115 886 q 129 879 115 886 q 162 860 142 871 q 199 839 181 849 q 227 825 217 829 q 243 817 238 820 q 253 808 249 813 q 262 795 256 804 q 268 787 264 792 q 325 650 286 756 q 336 622 330 637 q 355 638 346 630 q 388 665 375 654 q 404 678 401 676 q 450 734 418 694 q 486 777 469 756 q 515 810 504 798 q 544 842 528 824 q 572 874 559 860 q 589 895 585 889 l 757 932 z "},"Y":{"ha":507,"x_min":-13,"x_max":561,"o":"m 509 994 l 509 994 l 509 994 q 520 990 511 994 q 540 980 530 986 q 555 968 550 973 q 555 962 561 963 q 553 950 555 962 q 548 924 551 939 q 541 893 545 908 q 532 868 536 878 q 531 865 532 867 q 517 832 524 850 q 496 779 509 814 q 483 742 486 753 q 478 728 481 734 q 472 712 476 722 q 459 687 467 703 q 447 660 450 671 q 443 640 444 649 q 436 615 441 629 q 418 576 432 601 q 331 385 375 496 q 249 173 287 275 q 176 -9 198 34 q 168 -20 172 -16 q 157 -38 162 -32 q 146 -50 153 -45 q 125 -64 139 -56 q 91 -88 113 -72 q 45 -121 68 -104 q 4 -152 21 -139 q -13 -164 -13 -164 q -9 -155 -13 -164 q 1 -133 -5 -146 q 11 -109 6 -121 q 17 -90 16 -96 q 28 -43 18 -82 q 53 47 39 -5 q 79 143 66 98 q 96 208 91 188 l 104 220 l 142 316 q 145 319 144 317 q 149 329 146 321 q 153 349 151 337 q 159 378 155 363 q 166 405 162 393 q 171 419 170 414 q 174 428 173 424 q 176 435 175 431 q 179 446 177 439 l 161 496 q 146 536 155 513 q 128 582 136 559 q 119 610 123 596 q 99 663 112 637 q 83 690 90 678 q 62 728 73 705 q 36 785 42 769 q 36 796 35 789 q 39 812 37 804 q 42 831 41 822 q 42 846 43 840 q 39 857 39 852 q 37 870 38 862 q 37 885 37 876 q 35 916 36 899 q 34 947 35 934 q 34 961 34 961 l 28 994 l 66 949 q 68 949 66 949 q 76 950 71 950 q 87 948 81 950 q 100 941 94 947 q 124 921 114 930 q 134 912 134 912 l 153 901 q 158 886 153 901 q 170 853 163 871 q 182 820 176 834 q 206 783 192 800 q 225 751 219 766 q 240 723 233 732 q 245 713 243 718 q 247 710 246 711 q 248 709 247 709 q 248 708 248 709 q 249 706 248 707 q 250 701 250 704 q 253 675 252 681 q 254 672 254 673 q 256 671 255 671 q 258 670 257 671 q 261 666 260 669 q 261 665 261 665 l 261 665 q 264 655 262 662 q 286 701 279 685 q 309 764 294 721 q 325 808 317 787 q 338 841 332 829 q 352 877 345 857 q 366 911 360 896 q 373 932 372 927 l 509 994 z "},"Z":{"ha":708,"x_min":-54,"x_max":762,"o":"m 185 893 l 185 893 l 185 893 q 187 890 187 890 q 199 900 187 890 q 230 923 212 910 q 292 954 256 941 q 323 966 307 960 q 348 975 342 975 l 348 975 q 349 975 348 975 q 353 976 352 976 q 355 975 354 975 q 356 974 355 974 q 359 974 357 973 q 380 982 364 976 q 385 983 383 983 q 387 983 386 983 q 387 983 387 983 q 389 983 388 983 q 391 984 390 983 q 401 984 395 984 q 429 986 412 983 q 461 985 444 987 q 499 985 479 983 q 530 989 513 986 q 559 995 547 992 q 572 997 572 997 l 589 989 q 599 986 589 989 q 622 979 608 983 l 681 1004 q 690 1001 683 1004 q 705 991 697 997 q 716 982 712 986 q 715 976 720 977 q 711 966 715 976 q 702 943 707 957 q 690 917 696 930 q 678 895 684 903 q 676 892 677 893 q 658 863 667 879 q 630 817 648 848 q 612 785 617 795 q 606 773 609 779 q 597 760 602 768 q 581 738 591 751 q 566 714 571 724 q 559 697 562 705 q 549 675 555 688 q 526 642 543 663 q 416 476 474 572 q 306 292 357 380 q 212 138 241 178 q 267 159 236 149 q 304 172 284 165 q 335 181 328 180 l 335 181 q 336 181 335 181 q 341 180 340 181 q 344 179 343 180 q 346 178 345 178 q 349 178 347 178 q 375 186 355 180 q 380 188 378 187 q 383 188 382 188 q 384 188 384 188 q 386 188 385 188 q 389 188 387 188 q 401 187 394 189 q 435 187 414 186 q 475 184 453 189 q 522 180 498 180 q 559 184 538 182 q 597 188 581 186 q 613 190 613 190 l 634 178 q 647 174 634 178 q 677 163 660 170 q 690 155 686 159 q 697 147 695 151 q 701 140 700 142 q 701 137 701 137 l 762 125 l 728 115 q 715 110 728 115 q 684 98 701 104 q 654 86 667 91 q 639 81 644 83 q 626 76 631 77 q 613 74 621 75 q 599 68 607 73 q 583 57 591 63 q 569 48 575 52 q 558 43 562 44 q 490 40 540 41 q 444 42 463 40 q 410 44 429 43 q 350 39 379 44 q 319 35 334 36 q 266 29 294 32 q 220 25 240 27 q 194 22 210 24 q 162 19 178 21 q 136 16 146 18 q 125 15 125 15 l 125 16 q 102 14 118 16 q 71 10 86 12 q 51 9 56 9 q 28 7 46 9 q 18 0 18 0 q 22 6 18 0 q 0 4 12 5 q -32 1 -18 3 q -50 0 -46 0 q -53 1 -54 0 q -45 5 -51 3 q -27 14 -37 9 q -19 20 -22 18 q -13 24 -16 22 q -6 28 -10 25 q 7 36 -1 31 q 43 52 25 45 q 53 56 47 54 q 57 64 56 61 q 76 105 60 71 q 113 183 92 138 q 153 266 134 227 q 180 322 172 305 l 189 333 l 239 416 q 242 418 241 417 q 247 427 244 420 q 254 444 250 434 q 277 493 264 471 q 283 506 281 501 q 287 513 286 510 q 290 519 289 516 q 299 538 293 525 q 306 551 302 545 q 317 574 311 564 q 330 595 322 584 q 342 612 336 604 q 362 641 357 631 q 366 648 364 644 q 372 661 369 656 q 376 669 374 663 q 408 712 391 688 q 433 749 425 736 q 466 805 444 768 q 487 843 477 825 q 505 871 498 861 l 505 873 q 473 870 492 871 q 436 869 452 868 q 408 869 424 869 q 360 861 384 867 q 335 856 348 859 q 292 849 315 852 q 255 844 271 846 q 234 840 247 842 q 208 836 221 838 q 186 832 195 833 q 178 830 178 830 l 178 831 q 160 828 173 831 q 134 824 146 826 q 118 821 122 821 q 103 820 115 821 q 77 815 92 818 q 52 811 63 813 q 37 809 40 809 q 35 810 33 809 q 41 814 36 811 q 56 822 47 817 q 62 827 60 825 q 67 830 65 829 q 73 834 69 831 q 83 841 76 837 q 112 856 97 850 q 136 867 123 861 q 157 878 149 874 q 182 892 168 883 q 185 893 184 892 z "},"[":{"ha":709,"x_min":74,"x_max":645,"o":"m 454 1004 l 454 1004 l 454 1004 q 464 1001 456 1005 q 481 992 472 998 q 496 982 491 987 q 496 977 501 978 q 496 971 496 977 q 532 966 522 969 q 540 964 536 964 q 551 959 547 961 q 559 953 555 957 q 570 940 564 949 q 588 918 576 932 q 613 889 600 904 q 636 864 627 874 q 645 853 645 853 q 640 854 645 853 q 626 856 634 854 q 611 857 618 857 q 600 857 604 857 q 573 853 596 855 q 520 847 551 850 q 464 841 490 844 q 457 819 461 831 q 448 787 450 796 q 443 768 446 777 q 431 739 439 759 q 422 715 425 724 q 420 698 420 706 q 416 676 419 689 q 404 643 413 664 q 340 477 371 573 q 283 293 309 381 q 235 144 252 187 q 334 125 292 134 q 358 120 353 121 q 375 120 364 119 q 398 121 386 120 q 418 123 410 122 q 427 123 427 123 q 412 113 427 123 q 378 87 398 102 q 340 58 358 73 q 313 36 322 44 q 298 23 304 28 q 285 17 292 19 q 268 13 279 15 q 256 10 263 12 q 91 1 216 3 q 79 1 85 1 l 79 1 l 79 1 l 74 1 l 88 26 q 95 49 92 38 q 99 65 98 60 q 106 105 100 72 q 121 183 113 139 q 138 267 130 228 q 149 323 145 306 l 155 334 l 180 417 q 183 419 182 418 q 185 428 184 421 q 188 445 186 435 q 191 471 189 458 q 196 494 193 484 q 199 506 198 502 q 201 514 201 511 q 203 521 202 517 q 205 538 203 526 q 209 553 208 546 q 213 575 211 565 q 220 595 216 585 q 228 613 224 605 q 239 642 237 633 q 241 648 240 646 q 244 661 242 656 q 245 670 245 664 q 265 713 254 689 q 279 750 275 737 q 296 806 286 768 q 307 843 302 825 q 316 872 312 861 q 326 903 320 886 q 336 933 332 920 q 340 951 340 947 l 454 1004 z "},"\\":{"ha":503,"x_min":53,"x_max":460,"o":"m 74 1069 l 74 1069 l 74 1069 q 69 1065 73 1069 q 61 1057 65 1062 q 55 1046 57 1051 q 56 1041 53 1042 q 58 1031 56 1041 q 64 1008 60 1021 q 71 981 67 994 q 78 960 75 968 q 79 957 79 958 q 90 928 84 944 q 106 882 96 913 q 117 850 114 860 q 123 832 119 842 q 135 803 126 823 q 143 779 140 789 q 148 762 146 770 q 154 741 150 753 q 167 707 158 728 q 232 541 197 637 q 296 357 266 445 q 353 199 337 237 q 357 189 355 194 q 368 168 363 175 q 382 151 372 161 q 402 131 389 145 q 428 102 414 117 q 450 76 441 87 q 460 64 460 64 q 457 73 460 64 q 450 92 454 81 q 442 113 446 102 q 437 130 438 123 q 426 169 435 136 q 404 248 416 203 q 379 331 391 292 q 363 387 368 370 l 358 398 l 329 481 q 327 484 328 482 q 324 492 326 485 q 320 509 322 499 q 313 535 317 522 q 307 558 310 548 q 302 570 304 566 q 300 578 301 575 q 298 585 299 581 q 293 602 296 590 q 289 616 291 610 q 282 638 286 629 q 275 660 279 648 q 267 677 271 669 q 256 706 259 696 q 254 713 255 709 q 250 726 252 720 q 248 734 249 728 q 229 777 239 753 q 214 814 219 802 q 195 870 208 832 q 182 908 189 890 q 173 937 176 926 q 161 967 168 950 q 151 997 155 983 q 145 1016 146 1011 l 74 1069 z "},"]":{"ha":533,"x_min":26,"x_max":499,"o":"m 410 999 l 410 999 l 410 999 q 402 997 409 1000 q 386 991 395 995 q 369 983 377 987 q 356 976 360 979 q 355 971 351 972 q 353 966 355 971 q 314 960 326 964 q 305 958 309 959 q 292 954 297 956 q 281 947 287 951 q 264 935 275 943 q 236 912 254 926 q 197 884 217 899 q 162 858 177 869 q 148 848 148 848 q 154 848 148 848 q 168 850 160 849 q 184 851 176 851 q 195 851 191 852 q 220 847 199 850 q 270 842 241 845 q 324 836 299 838 q 320 813 322 826 q 314 781 317 791 q 311 763 312 772 q 309 734 310 753 q 307 710 309 719 q 301 692 304 701 q 295 671 298 684 q 292 637 292 659 q 278 472 292 568 q 249 288 264 376 q 227 138 231 182 q 119 119 165 128 q 93 115 99 115 q 76 114 87 114 q 54 116 66 115 q 35 117 43 117 q 26 118 26 118 q 36 107 26 118 q 58 82 45 97 q 83 53 71 67 q 99 31 94 39 q 113 14 107 18 q 134 7 119 10 q 144 5 138 6 q 305 -4 180 -2 q 317 -5 311 -4 l 317 -5 l 317 -5 l 321 -5 l 320 21 q 323 43 321 33 q 327 60 325 54 q 338 100 329 66 q 360 178 348 134 q 382 261 372 222 q 397 317 393 300 l 397 328 l 410 412 q 408 414 408 413 q 410 423 408 416 q 415 439 412 430 q 424 466 420 452 q 430 489 428 479 q 432 501 431 496 q 434 508 433 505 q 436 515 435 511 q 441 533 437 520 q 445 547 443 541 q 450 569 448 559 q 453 590 452 579 q 453 608 453 600 q 455 637 454 627 q 457 643 456 640 q 460 656 460 651 q 463 665 460 659 q 464 708 463 684 q 466 745 465 732 q 475 800 469 763 q 482 838 479 820 q 487 867 486 856 q 491 897 488 880 q 495 928 493 914 q 499 946 498 941 l 410 999 z "},"^":{"ha":328,"x_min":37,"x_max":300,"o":"m 132 1053 l 132 1053 l 132 1053 q 126 1049 130 1053 q 119 1042 123 1046 q 113 1034 115 1038 q 114 1029 111 1030 q 116 1022 114 1029 q 121 1005 118 1015 q 128 983 124 994 q 111 943 119 962 q 100 920 106 935 q 87 889 94 905 q 68 843 75 858 q 55 814 64 833 q 37 779 45 795 q 90 703 60 743 q 116 755 104 732 q 129 783 125 772 q 135 800 133 793 q 140 814 137 806 q 149 833 142 822 q 160 858 157 850 q 167 873 163 865 q 170 883 168 877 q 174 873 173 877 q 181 858 178 865 q 193 833 184 850 q 201 814 199 822 q 206 800 204 806 q 212 783 208 793 q 225 755 216 772 q 248 711 236 734 q 300 787 274 747 q 284 819 292 802 q 273 843 276 835 q 254 889 266 858 q 241 920 247 905 q 231 943 235 935 q 213 983 222 962 q 220 1005 216 994 q 225 1022 223 1015 q 227 1029 227 1029 q 228 1034 230 1030 q 222 1042 226 1038 q 215 1049 218 1046 q 210 1053 211 1053 l 170 1029 l 132 1053 z "},"_":{"ha":672,"x_min":50,"x_max":655,"o":"m 496 209 l 496 209 l 496 209 q 569 145 529 180 q 628 91 609 111 q 655 66 645 73 q 385 79 518 77 q 220 88 260 81 q 208 91 213 90 q 191 95 197 93 q 178 101 184 97 q 163 114 172 106 q 136 136 154 122 q 98 165 117 151 q 64 191 78 180 q 50 201 50 201 q 58 200 50 201 q 78 199 66 199 q 101 198 90 198 q 117 198 112 197 q 158 201 124 199 q 237 207 192 204 q 322 213 283 210 q 379 217 362 216 l 391 214 l 478 210 q 481 208 480 209 q 496 209 484 208 z "},"`":{"ha":233,"x_min":0,"x_max":214,"o":"m 47 1004 l 47 1004 l 47 1004 q 37 1001 45 1005 q 20 992 29 998 q 5 982 10 987 q 5 977 0 978 q 6 967 5 977 q 9 944 7 958 q 13 917 11 930 q 18 896 16 904 q 20 893 19 895 q 28 868 24 881 q 40 831 33 855 l 214 776 q 205 806 210 789 q 194 843 199 825 q 186 872 189 861 q 176 903 181 886 q 166 933 170 920 q 161 951 161 947 l 47 1004 z "},"a":{"ha":499,"x_min":-54,"x_max":553,"o":"m 420 749 l 420 749 l 420 749 q 423 765 422 758 q 425 774 425 772 l 513 818 q 522 815 515 818 q 537 808 529 812 q 549 800 545 804 q 550 795 553 796 q 550 787 550 795 q 549 768 550 779 q 548 747 549 758 q 545 729 547 736 q 545 727 545 728 q 538 704 541 716 q 530 666 535 691 q 526 640 526 648 q 523 625 524 633 q 515 602 521 618 q 510 582 511 589 q 509 568 509 574 q 508 550 509 560 q 500 523 507 541 q 461 388 479 466 q 429 238 444 310 q 399 110 410 140 q 396 102 397 105 q 390 89 393 94 q 383 80 387 84 q 371 71 379 77 q 349 54 363 65 q 320 31 335 43 q 295 9 306 18 q 285 0 285 0 q 287 6 285 0 q 291 22 289 13 q 295 40 294 31 q 297 53 297 48 q 300 85 297 57 q 306 149 302 113 q 313 217 309 185 q 317 262 316 249 l 321 271 l 322 275 q 286 266 308 272 q 243 254 263 260 q 218 248 224 249 q 210 243 214 246 q 201 237 205 240 q 195 231 197 233 q 192 229 192 229 q 190 224 192 229 q 183 212 187 219 q 174 199 178 205 q 164 188 169 193 q 149 165 158 182 q 132 130 140 149 q 114 98 121 109 q 112 94 113 96 q 104 83 108 87 q 90 77 100 79 q 58 73 79 75 q 21 57 40 71 q -16 25 1 43 q -43 -6 -33 7 q -54 -19 -54 -19 q -52 -9 -54 -19 q -46 16 -50 1 q -44 35 -43 28 q -47 54 -45 43 q -51 70 -49 60 q -53 82 -53 78 q -52 87 -53 85 q -47 88 -50 88 q -40 91 -45 89 q -31 99 -36 93 q -22 109 -25 106 q -19 115 -20 113 q -18 119 -18 117 q -17 132 -18 123 q -2 162 -13 144 q 13 188 6 175 q 19 213 19 201 l -43 214 q -37 216 -43 214 q -21 222 -30 218 q -4 229 -12 225 q 7 237 4 233 q 20 243 9 240 q 42 250 30 247 q 71 258 60 254 q 79 262 77 261 q 84 264 82 263 q 87 267 85 265 q 90 273 88 269 q 91 274 91 273 q 104 300 97 284 q 119 330 110 312 q 167 413 130 350 q 235 531 201 472 q 276 610 269 589 q 311 654 283 627 q 370 708 338 682 q 420 749 401 734 m 339 349 l 339 349 l 339 349 q 340 362 340 354 q 340 383 340 372 q 342 402 341 393 q 345 412 344 408 q 346 418 345 416 q 346 423 346 420 q 347 438 346 428 q 349 450 348 444 q 351 468 349 460 q 355 485 352 475 q 359 498 357 492 q 367 522 366 515 q 368 528 367 525 q 369 538 368 534 q 370 545 370 541 q 376 566 372 554 q 359 529 370 552 q 336 482 348 506 q 317 441 325 458 q 308 422 309 424 q 308 421 308 421 q 306 420 307 420 q 303 419 305 420 q 298 414 301 418 q 291 400 295 410 q 277 371 283 380 q 267 350 271 361 q 258 335 264 342 q 247 323 252 328 q 241 319 241 319 q 253 323 241 319 q 281 332 265 327 q 311 341 298 337 q 328 347 324 345 q 338 349 332 347 q 339 349 338 349 z "},"b":{"ha":472,"x_min":-54,"x_max":526,"o":"m 182 818 l 182 818 l 182 818 q 191 815 184 818 q 207 807 198 812 q 219 799 215 803 q 220 794 224 795 q 220 785 220 794 q 220 762 220 775 q 229 766 224 764 q 235 765 232 765 q 244 764 241 764 q 248 764 247 764 q 250 764 249 764 q 252 765 251 764 q 259 767 254 766 q 265 770 263 768 q 269 772 267 771 q 273 775 271 774 q 279 777 275 776 q 293 779 284 778 q 349 787 336 783 q 352 789 351 788 q 354 791 353 790 q 356 793 355 792 q 362 795 358 794 q 372 795 366 795 q 405 798 390 797 q 427 801 420 800 q 433 802 430 802 q 448 796 441 799 q 467 789 457 793 q 494 778 487 780 q 499 775 497 777 q 502 773 501 774 q 504 770 503 772 q 507 764 505 768 q 509 759 508 760 q 509 757 509 758 q 510 756 509 757 q 510 753 510 755 q 510 751 510 752 q 511 750 511 750 q 512 748 511 749 q 512 746 512 747 q 511 741 512 744 q 509 736 510 738 q 508 731 509 733 q 508 728 508 730 q 510 722 509 726 q 511 718 511 720 q 514 709 512 713 q 524 697 517 705 q 526 693 526 694 q 525 691 526 692 q 520 690 523 690 q 514 688 517 690 q 511 683 511 687 q 514 674 512 677 q 515 667 515 671 q 511 660 515 664 q 505 646 507 655 q 501 629 503 637 q 498 615 500 618 q 493 603 496 610 q 490 591 491 596 q 486 582 488 586 q 481 572 483 578 q 476 562 478 566 q 471 551 475 558 q 465 539 467 545 q 458 525 463 532 q 452 516 454 519 q 448 511 450 513 q 446 509 447 509 q 434 496 438 500 q 427 489 429 492 q 421 484 424 487 q 414 477 418 481 q 407 470 410 473 q 403 466 405 467 q 399 463 401 465 q 391 457 397 462 q 385 452 387 454 q 382 450 383 450 q 379 447 380 448 q 372 442 377 446 l 372 441 q 391 433 386 435 q 395 431 394 432 q 398 430 397 431 q 399 427 399 429 q 401 422 400 425 q 403 416 403 418 q 404 415 404 416 q 404 414 404 415 q 404 412 404 414 q 405 410 404 411 q 405 409 405 410 q 406 408 406 408 q 406 405 406 407 q 404 401 406 404 q 403 397 404 399 q 402 393 402 395 q 402 390 401 392 q 403 385 402 389 q 404 382 404 383 q 406 374 404 378 q 414 363 408 370 q 416 360 416 361 q 415 358 416 359 q 411 357 413 358 q 405 356 408 357 q 402 351 401 355 q 404 344 403 347 q 406 338 406 340 q 401 331 406 335 q 395 320 397 328 q 391 304 393 312 q 389 292 390 296 q 383 282 386 288 q 379 272 380 276 q 376 264 378 268 q 371 256 374 261 q 367 247 369 250 q 361 237 365 243 q 356 227 357 232 q 349 214 354 221 q 343 207 346 210 q 340 203 342 205 q 338 201 339 201 q 327 190 331 193 q 320 184 323 186 q 315 180 317 182 q 309 174 312 178 q 302 167 304 170 q 298 164 300 165 q 295 161 296 163 q 288 156 292 160 q 282 152 283 153 q 279 150 280 151 q 276 147 278 149 q 271 143 275 146 q 264 138 266 140 q 262 136 263 137 q 258 134 261 135 q 250 129 256 132 q 235 122 241 124 q 226 117 230 119 q 220 115 223 117 q 210 112 215 113 q 200 109 204 110 q 195 108 195 108 l 185 105 q 196 105 185 105 q 224 104 206 104 q 178 84 196 88 q 153 79 162 81 q 138 76 146 77 q 119 69 131 74 q 79 58 102 64 q 40 47 55 52 q 35 44 37 46 q 13 27 27 39 q -17 2 -2 15 q -43 -20 -33 -11 q -54 -29 -54 -29 q -52 -23 -54 -29 q -48 -7 -50 -16 q -43 12 -45 3 q -41 25 -41 20 q -39 59 -41 30 q -32 125 -36 87 q -25 196 -28 163 q -20 243 -22 229 l -16 252 l -1 322 q 1 324 1 323 q 2 331 2 326 q 3 346 3 337 q 3 367 3 356 q 5 387 4 378 q 7 397 7 393 q 8 404 8 401 q 9 410 9 406 q 10 425 9 414 q 12 436 11 431 q 14 455 12 447 q 18 473 15 463 q 23 488 20 480 q 31 512 29 504 q 31 517 31 515 q 33 528 31 524 q 33 535 34 530 q 46 572 39 551 q 56 603 53 592 q 65 650 59 618 q 71 682 68 667 q 76 706 74 697 q 82 732 79 718 q 88 758 85 746 q 91 773 90 769 l 182 818 m 83 160 l 83 160 l 83 160 q 93 162 89 161 q 102 165 97 163 q 124 172 109 168 q 139 178 134 176 q 146 181 144 180 q 151 184 149 183 q 157 189 153 186 q 168 193 160 191 q 189 201 175 196 q 235 210 220 210 q 255 215 247 212 q 273 229 264 218 q 317 313 321 288 q 279 339 314 338 q 198 330 245 341 q 113 303 152 318 q 96 217 104 258 q 83 160 89 186 m 152 461 l 152 461 l 152 461 q 167 463 161 462 q 180 468 172 465 q 204 476 188 471 q 221 482 215 479 q 230 486 227 484 q 235 490 233 488 q 240 494 237 492 q 253 500 244 496 q 277 509 261 503 q 329 520 311 519 q 351 525 342 521 q 370 541 360 528 q 417 636 420 607 q 377 669 414 666 q 289 660 340 672 q 195 631 239 648 q 191 616 193 624 q 184 593 189 609 q 179 573 180 581 q 178 559 178 566 q 177 541 178 551 q 169 513 175 530 q 152 461 160 490 z "},"c":{"ha":511,"x_min":-54,"x_max":566,"o":"m 499 806 l 499 806 l 499 806 q 504 806 500 805 q 513 808 507 806 q 523 812 518 810 q 532 816 528 814 q 535 818 535 818 l 566 815 l 559 794 q 559 785 559 794 q 557 763 558 776 q 555 740 556 751 q 551 724 553 729 q 547 715 549 719 q 542 702 545 710 q 530 677 538 694 q 511 644 519 656 q 485 611 503 631 q 479 604 482 608 q 467 590 471 595 q 460 582 463 585 q 457 576 458 578 q 456 572 456 574 q 454 567 455 570 q 451 559 453 564 q 439 547 447 552 q 423 539 431 542 q 408 535 414 536 q 402 534 402 534 q 407 543 402 534 q 419 565 412 552 q 430 589 425 578 q 437 606 435 601 q 439 625 439 616 q 432 649 438 633 q 418 673 427 664 q 390 696 410 682 q 360 707 372 708 q 330 699 347 706 q 323 695 327 697 q 222 643 279 680 q 203 618 208 632 q 195 588 197 605 q 171 523 191 559 q 143 438 146 479 q 127 383 139 408 q 106 319 114 356 q 77 231 98 275 q 63 196 66 212 q 63 171 61 181 q 69 155 66 160 q 72 149 72 149 q 76 146 72 149 q 86 141 80 144 q 99 135 92 138 q 111 132 106 132 q 138 138 121 132 q 166 149 154 143 q 192 157 174 153 q 266 182 227 163 q 285 192 277 189 q 300 199 293 196 q 322 210 309 203 q 358 231 335 217 q 377 244 370 238 q 388 256 384 251 q 394 266 392 262 q 395 274 395 271 q 394 280 395 278 q 392 284 393 283 q 391 285 391 285 l 456 318 l 458 220 q 453 208 458 220 q 437 178 447 195 q 415 145 427 161 q 387 121 402 130 q 357 103 370 111 q 325 84 342 93 q 281 67 308 75 q 236 45 249 56 q 215 34 227 39 q 182 27 204 29 q 143 22 159 24 q 110 18 127 19 q 62 20 92 16 q -14 20 16 24 q -43 15 -43 15 l -44 37 l -46 53 q -47 61 -46 53 q -51 80 -49 68 q -53 102 -52 91 q -54 121 -54 113 q -48 161 -53 136 q -43 201 -44 185 q -36 236 -42 209 q -21 294 -29 262 q -7 350 -13 326 q -1 374 -1 374 q 3 388 -1 374 q 12 419 7 401 q 21 454 16 437 q 26 480 25 471 q 58 590 31 512 q 87 660 68 618 q 124 738 106 702 q 151 783 142 774 q 165 790 157 788 q 187 794 174 793 q 243 804 207 795 q 293 812 272 810 q 336 812 315 813 q 382 813 356 812 q 438 812 411 814 q 482 808 465 810 q 499 806 499 806 z "},"d":{"ha":551,"x_min":-54,"x_max":559,"o":"m 182 818 l 182 818 l 182 818 q 191 815 184 818 q 207 807 198 812 q 219 799 215 803 q 220 794 224 795 q 220 784 220 794 q 219 760 220 773 q 270 768 246 764 q 305 771 294 771 q 321 771 316 771 q 331 771 327 771 q 342 772 335 772 q 372 774 351 772 q 397 776 388 774 q 413 779 407 777 q 428 781 420 780 q 450 781 435 781 q 479 784 470 780 q 494 785 487 786 q 513 776 501 785 q 547 746 534 760 q 559 732 559 732 q 550 694 559 732 q 529 600 542 655 q 504 488 517 544 q 484 396 492 433 q 470 337 475 359 q 460 302 465 316 q 450 275 455 289 q 440 250 446 264 q 397 179 420 203 q 376 151 385 165 q 351 117 365 132 q 312 85 337 103 q 299 75 304 79 q 273 58 283 64 q 241 43 263 52 q 175 24 212 33 q 113 12 138 15 q 45 3 90 8 q -26 -5 1 -2 q -46 -22 -38 -16 q -54 -29 -54 -29 q -52 -23 -54 -29 q -48 -7 -50 -16 q -43 12 -45 3 q -41 25 -41 20 q -39 59 -41 30 q -32 125 -36 87 q -25 196 -28 163 q -20 243 -22 229 l -16 252 l -1 322 q 1 324 1 323 q 2 331 2 326 q 3 346 3 337 q 3 367 3 356 q 5 387 4 378 q 7 397 7 393 q 8 404 8 401 q 9 410 9 406 q 10 425 9 414 q 12 436 11 431 q 14 455 12 447 q 18 473 15 463 q 23 488 21 480 q 31 512 29 504 q 31 517 31 515 q 33 528 31 524 q 33 535 34 530 q 46 572 39 551 q 56 603 53 592 q 65 650 59 618 q 71 682 68 667 q 76 706 74 697 q 82 732 79 718 q 88 758 85 746 q 91 773 90 769 l 182 818 m 73 110 l 73 110 l 73 110 q 123 113 94 109 q 182 128 153 116 q 263 177 220 144 q 337 277 305 210 q 357 321 350 304 q 369 347 365 338 q 375 361 373 356 q 380 370 378 366 q 385 380 382 374 q 395 401 390 389 q 406 426 401 414 q 414 447 410 439 q 417 456 417 456 q 416 463 417 456 q 415 482 415 471 q 417 508 415 494 q 421 544 420 528 q 422 579 422 560 q 421 607 422 591 q 420 638 420 623 q 422 661 420 653 q 427 683 425 674 q 429 691 429 691 q 415 689 429 691 q 384 682 402 686 q 351 671 366 677 q 337 664 342 667 q 328 661 332 662 q 314 654 323 659 q 285 641 305 650 q 257 628 269 633 q 228 614 238 619 q 207 602 217 608 q 185 597 196 596 q 184 593 184 595 q 179 573 180 581 q 178 559 178 566 q 177 541 178 551 q 169 513 175 530 q 129 373 147 454 q 96 217 110 292 q 73 110 82 149 z "},"e":{"ha":539,"x_min":-54,"x_max":593,"o":"m 563 719 l 563 719 l 563 719 q 565 720 562 718 q 570 725 567 722 q 576 732 574 728 q 580 739 579 736 q 583 751 581 743 q 593 784 589 766 q 593 792 593 790 q 593 795 593 795 q 590 794 592 795 q 587 792 589 793 q 582 791 585 791 q 540 797 565 791 q 531 799 534 798 q 523 800 527 799 q 496 803 517 800 q 491 804 494 803 q 452 808 471 806 q 401 806 433 809 q 393 805 397 806 q 315 795 354 802 q 313 800 318 796 q 301 808 309 804 q 287 815 294 812 q 279 818 280 818 l 183 773 q 179 758 182 769 q 171 732 175 746 q 162 706 166 718 q 154 682 159 697 q 145 650 150 667 q 132 603 136 618 q 119 572 127 592 q 103 535 110 551 q 102 528 103 530 q 99 517 100 524 q 98 512 98 515 q 90 492 96 505 q 84 486 86 489 q 81 481 81 484 q 80 478 80 479 q 80 477 80 477 q 80 473 80 477 q 79 465 79 470 q 72 436 75 452 q 69 425 71 431 q 66 410 67 414 q 65 404 66 406 q 64 397 65 401 q 61 387 63 393 q 57 367 59 378 q 54 346 56 356 q 52 331 53 337 q 50 324 52 326 q 48 322 50 323 l 26 252 l 21 243 q 9 182 18 224 q -7 96 1 139 q -30 42 -19 68 q -47 -1 -40 16 q -54 -18 -54 -18 l -31 -9 q -36 -23 -34 -18 q -38 -29 -38 -29 q -26 -19 -38 -29 q 3 3 -14 -9 l 37 16 l 73 29 q 77 32 73 29 q 87 40 81 35 q 100 50 93 45 q 133 57 108 54 q 185 64 157 60 q 239 71 222 68 q 275 77 252 74 q 319 82 298 80 q 351 84 341 84 q 371 89 357 84 q 399 99 385 93 q 424 109 414 104 q 435 113 435 113 l 476 211 l 479 212 q 479 213 479 212 q 478 213 479 213 q 478 213 478 213 q 477 214 478 214 q 476 214 477 214 q 474 215 475 214 q 472 216 473 216 q 469 217 471 216 q 465 218 467 218 q 454 226 458 220 q 446 238 449 232 q 437 250 441 245 q 429 254 433 254 q 420 254 425 255 q 413 253 416 254 q 410 252 410 252 l 153 218 l 194 356 q 208 364 194 356 q 241 383 222 372 q 278 402 260 394 q 304 412 295 411 q 333 418 312 414 q 379 429 355 423 q 421 439 403 435 q 439 443 439 443 l 419 471 l 418 539 q 405 537 418 539 q 375 534 392 536 q 344 530 358 532 q 328 529 330 529 q 315 528 325 529 q 292 527 304 528 q 270 525 279 526 q 261 524 261 524 l 246 538 q 250 559 250 550 q 252 573 250 566 q 259 593 254 581 q 269 618 267 610 q 274 633 272 626 q 281 661 276 642 q 288 683 286 674 q 294 685 291 684 q 345 709 313 690 q 398 723 363 720 q 471 725 433 726 q 536 721 509 724 q 563 719 563 719 z "},"f":{"ha":427,"x_min":-54,"x_max":536,"o":"m 182 818 l 182 818 l 182 818 q 191 815 183 818 q 206 807 198 812 q 219 799 214 803 q 220 794 223 795 q 220 785 220 794 q 336 805 282 802 q 345 806 340 806 q 395 808 376 809 q 434 804 414 806 q 439 803 436 803 q 466 800 459 800 q 473 799 470 799 q 482 797 477 798 q 524 791 508 791 q 529 792 527 791 q 533 794 532 793 q 535 795 534 795 q 536 792 536 795 q 535 784 536 790 q 526 751 532 766 q 522 739 523 743 q 519 732 522 736 q 513 725 516 728 q 507 720 509 722 q 505 719 505 718 q 478 721 505 719 q 413 725 451 724 q 340 723 375 726 q 288 709 305 720 q 236 685 256 690 q 203 667 217 680 q 200 663 201 666 l 199 661 q 195 633 195 642 q 191 618 193 626 q 184 593 189 610 q 179 573 180 581 q 178 559 178 566 q 177 547 178 553 l 203 524 q 213 525 203 524 q 234 527 222 526 q 257 528 247 528 q 270 529 268 529 q 286 530 272 529 q 317 534 300 532 q 347 537 334 536 q 360 539 360 539 l 361 471 l 381 443 q 363 439 381 443 q 321 429 346 435 q 276 418 297 423 q 246 412 255 414 q 220 402 237 411 q 184 383 203 394 q 151 364 165 372 q 137 356 137 356 l 119 295 l 111 295 q 95 218 102 254 q 64 85 75 115 q 60 76 62 79 q 54 63 57 68 q 47 54 52 58 q 35 44 43 50 q 12 27 26 39 q -18 2 -3 15 q -44 -20 -33 -11 q -54 -29 -54 -29 q -53 -23 -54 -29 q -48 -7 -51 -16 q -44 12 -46 3 q -42 25 -42 20 q -39 59 -42 30 q -33 125 -37 87 q -26 196 -29 163 q -21 243 -22 229 l -17 252 l -2 322 q 1 324 0 323 q 2 331 1 326 q 2 346 2 337 q 3 367 3 356 q 5 387 3 378 q 7 397 6 393 q 8 404 7 401 q 8 410 8 406 q 9 425 9 414 q 11 436 11 431 q 13 455 12 447 q 18 473 14 463 q 22 488 20 480 q 30 512 28 504 q 31 517 31 515 q 33 528 31 524 q 33 535 33 530 q 45 572 39 551 q 55 603 52 592 q 64 650 58 618 q 71 682 68 667 q 76 706 73 697 q 82 732 79 718 q 87 758 85 746 q 90 773 90 769 l 182 818 z "},"g":{"ha":511,"x_min":-54,"x_max":566,"o":"m 499 806 l 499 806 l 499 806 q 504 806 500 805 q 513 808 508 806 q 523 812 518 810 q 532 816 528 814 q 535 818 535 818 l 566 815 l 559 794 q 559 785 559 794 q 557 763 559 776 q 555 740 556 751 q 551 724 553 729 q 547 715 549 719 q 542 702 545 710 q 530 677 538 694 q 511 644 519 656 q 485 611 503 631 q 479 604 482 608 q 467 590 471 595 q 460 582 463 585 q 457 576 458 578 q 456 572 456 574 q 454 567 456 570 q 451 559 453 564 q 439 547 447 552 q 423 539 431 542 q 409 535 414 536 q 403 534 403 534 q 408 543 403 534 q 419 565 412 552 q 430 589 425 578 q 437 606 435 601 q 439 625 439 616 q 432 649 438 633 q 418 673 427 664 q 390 696 410 682 q 360 707 372 708 q 330 699 347 706 q 323 695 327 697 q 222 643 279 680 q 203 618 208 632 q 195 588 197 605 q 171 523 192 559 q 143 438 146 479 q 127 383 139 408 q 106 319 114 356 q 77 231 98 275 q 64 196 66 212 q 64 171 62 181 q 69 155 66 160 q 72 149 72 149 q 76 146 72 149 q 86 141 80 144 q 99 135 92 138 q 111 132 106 132 q 138 138 121 132 q 166 149 155 143 q 185 162 175 153 q 227 191 198 173 q 247 201 239 197 q 261 209 254 205 q 283 220 271 213 q 319 240 296 227 q 338 254 330 248 q 349 265 345 260 q 355 275 353 271 q 356 283 356 280 q 355 289 356 287 q 354 293 355 292 q 353 294 353 294 l 354 295 q 359 305 355 298 q 371 322 368 317 q 376 336 374 328 q 377 352 377 345 q 378 358 378 358 q 331 350 378 358 q 296 347 308 347 q 275 351 283 347 q 256 363 267 355 q 241 373 250 368 l 206 430 q 205 432 206 430 q 202 435 203 433 q 200 439 201 437 q 199 442 199 441 q 203 442 200 443 q 212 438 205 441 q 241 426 231 428 q 251 425 251 425 q 252 424 251 425 q 253 423 252 424 q 255 422 254 422 q 257 422 256 422 q 258 422 258 422 q 259 422 258 422 q 259 422 259 422 q 259 421 259 422 q 259 421 258 421 q 259 420 259 420 q 261 420 260 420 q 264 419 262 420 q 270 419 267 419 q 279 420 274 420 q 291 421 284 420 q 308 423 298 422 q 329 425 317 424 q 389 433 368 431 q 420 438 410 436 q 440 441 431 439 q 446 443 443 442 q 471 448 459 445 q 490 453 482 451 q 497 455 497 455 q 491 441 497 455 q 477 409 484 427 q 465 374 469 390 q 444 330 457 349 q 427 300 433 315 q 423 277 423 286 q 419 254 423 267 l 420 229 q 414 216 420 229 q 398 187 408 204 q 376 154 389 170 q 349 130 363 138 q 330 115 336 123 q 321 100 325 108 q 310 82 318 91 q 281 67 302 74 q 236 45 249 56 q 215 34 227 39 q 183 27 204 29 q 143 22 159 24 q 110 18 127 19 q 63 20 93 16 q -13 20 16 24 q -43 15 -43 15 l -44 37 l -45 53 q -47 61 -45 53 q -50 80 -48 68 q -53 102 -52 91 q -54 121 -54 113 q -48 161 -52 136 q -43 201 -44 185 q -36 236 -42 209 q -21 294 -29 262 q -6 350 -13 326 q 0 374 0 374 q 3 388 0 374 q 12 419 7 401 q 21 454 17 437 q 26 480 25 471 q 58 590 31 512 q 87 660 68 618 q 124 738 106 702 q 151 783 142 774 q 165 790 157 788 q 187 794 174 793 q 243 804 207 795 q 294 812 272 810 q 336 812 315 813 q 382 813 357 812 q 438 812 411 814 q 482 808 465 810 q 499 806 499 806 z "},"h":{"ha":593,"x_min":-54,"x_max":648,"o":"m 270 818 l 270 818 l 270 818 q 279 815 272 818 q 294 807 286 812 q 306 799 302 802 q 307 793 311 795 q 306 785 307 793 q 303 765 304 777 q 299 742 302 753 q 295 724 297 731 q 294 722 294 723 q 285 697 290 710 q 273 657 281 684 q 265 629 267 638 q 260 614 263 622 q 250 589 258 606 q 243 568 245 576 q 241 553 241 560 q 237 534 240 545 q 227 505 235 524 q 193 423 210 470 q 202 425 198 425 q 209 426 207 425 q 214 426 212 426 q 218 427 216 427 q 228 429 220 427 q 236 431 233 430 q 249 433 243 432 q 262 433 255 433 q 273 432 267 433 q 290 431 284 431 q 294 432 292 431 q 302 433 298 433 q 307 434 303 433 q 333 432 318 433 q 356 431 348 431 q 389 433 367 431 q 397 434 393 434 q 406 465 399 450 q 412 479 409 473 q 422 505 420 496 q 423 511 422 508 q 426 522 424 517 q 427 529 427 524 q 444 566 435 545 q 456 598 452 587 q 471 646 462 614 q 480 679 475 663 q 488 703 484 694 q 496 730 492 715 q 505 756 501 745 q 509 772 508 768 l 607 818 q 616 815 609 818 q 631 807 623 812 q 643 799 639 802 q 644 793 648 795 q 643 785 644 793 q 641 765 642 777 q 636 742 639 753 q 632 724 634 731 q 631 722 631 723 q 622 697 627 710 q 610 657 618 684 q 602 629 604 638 q 597 614 600 622 q 587 589 595 606 q 580 568 582 576 q 578 553 578 560 q 574 534 577 545 q 564 505 572 524 q 515 389 537 450 l 522 380 q 522 375 523 379 q 520 365 522 370 q 518 354 519 359 q 515 347 517 349 q 513 347 514 345 q 509 345 513 347 q 498 342 505 344 q 471 262 484 300 q 431 155 446 184 q 427 145 429 149 q 419 132 422 137 q 412 123 416 127 q 397 113 407 119 q 373 95 389 107 q 340 70 357 83 q 311 47 323 57 q 299 38 299 38 q 302 45 299 38 q 308 61 304 52 q 314 80 311 71 q 317 94 317 89 q 325 134 318 102 q 337 198 331 165 q 343 230 341 216 l 349 239 l 371 311 q 373 313 372 311 q 355 312 363 312 q 308 310 332 312 q 239 300 284 308 q 139 258 189 290 q 123 203 130 230 q 78 68 92 100 q 73 59 75 62 q 66 45 69 50 q 58 37 63 41 q 43 26 53 33 q 19 8 35 20 q -14 -17 3 -3 q -42 -39 -31 -30 q -54 -49 -54 -49 q -52 -42 -54 -49 q -45 -26 -49 -35 q -39 -7 -42 -16 q -36 7 -37 2 q -30 42 -35 13 q -17 109 -24 71 q -3 181 -9 148 q 6 230 3 215 l 12 239 l 34 311 q 37 313 36 311 q 38 320 37 314 q 40 335 39 326 q 41 340 41 338 q 35 345 38 342 q 19 359 30 351 q -2 376 9 367 q -22 391 -14 385 q -30 397 -30 397 q -25 397 -30 397 q -14 397 -20 397 q -1 397 -7 397 q 9 399 5 397 q 25 402 13 399 q 54 408 38 404 q 56 416 55 411 q 58 427 57 422 q 62 447 60 438 q 68 465 64 455 q 75 479 72 473 q 85 505 83 496 q 86 511 85 508 q 89 522 87 517 q 90 529 90 524 q 106 566 98 545 q 119 598 115 587 q 134 646 125 614 q 143 679 138 663 q 151 703 147 694 q 159 730 155 715 q 168 756 164 745 q 172 772 171 768 l 270 818 z "},"i":{"ha":248,"x_min":-54,"x_max":302,"o":"m 263 818 l 263 818 l 263 818 q 271 815 264 818 q 286 807 278 812 q 298 799 294 803 q 298 794 302 795 q 298 786 298 794 q 295 766 297 778 q 292 744 294 755 q 287 726 290 733 q 286 724 287 725 q 278 700 282 713 q 265 661 273 686 q 258 633 260 642 q 254 618 256 626 q 243 593 251 610 q 236 573 238 581 q 234 559 235 566 q 231 541 233 551 q 220 513 229 530 q 166 373 193 454 q 119 217 140 292 q 75 85 90 115 q 71 76 73 79 q 63 63 66 68 q 56 54 60 58 q 41 44 51 50 q 18 27 33 39 q -14 2 2 15 q -42 -20 -31 -11 q -54 -29 -54 -29 q -52 -23 -54 -29 q -46 -7 -49 -16 q -40 12 -43 3 q -37 25 -37 20 q -31 59 -36 31 q -18 125 -25 87 q -4 196 -11 163 q 5 243 2 229 l 10 252 l 32 322 q 35 324 34 323 q 36 331 35 326 q 38 346 37 337 q 41 367 39 356 q 45 387 43 378 q 48 397 47 393 q 50 404 49 401 q 50 410 50 406 q 54 425 52 414 q 56 436 55 431 q 60 455 58 447 q 66 473 62 463 q 72 488 69 480 q 82 512 80 504 q 83 517 83 515 q 86 528 84 524 q 87 535 87 530 q 103 572 94 551 q 116 603 112 592 q 130 650 121 618 q 139 682 134 667 q 146 706 143 697 q 155 732 150 718 q 163 758 159 746 q 167 773 166 769 l 263 818 z "},"j":{"ha":503,"x_min":-54,"x_max":586,"o":"m 330 650 l 330 650 l 330 650 q 334 650 332 650 q 343 682 338 667 q 351 706 347 697 q 353 713 351 709 q 215 724 267 713 q 206 726 210 725 q 194 729 199 728 q 185 733 190 730 q 174 743 181 736 q 155 759 168 749 q 128 779 142 768 q 104 798 114 790 q 94 805 94 805 q 99 804 94 805 q 114 803 105 804 q 130 802 122 802 q 142 802 138 802 q 171 805 146 803 q 228 809 195 806 q 288 813 260 811 q 328 816 316 815 l 337 814 l 399 811 q 401 810 400 810 q 408 810 403 809 q 420 812 413 810 q 438 814 429 812 q 455 814 448 815 q 460 814 458 814 l 467 818 q 475 815 469 818 q 488 817 479 816 q 498 817 493 817 q 514 818 507 818 q 530 817 521 818 q 543 814 536 816 q 556 812 550 813 q 569 808 563 811 q 578 807 574 806 q 584 808 582 807 q 586 808 585 808 q 586 807 586 808 q 583 803 585 806 q 569 783 581 800 q 541 748 557 766 q 510 722 525 730 q 488 718 504 720 q 481 696 485 709 q 470 661 477 684 q 463 633 464 642 q 458 618 460 626 q 448 593 455 610 q 440 573 442 581 q 438 559 439 566 q 435 541 438 551 q 425 513 433 530 q 416 494 420 504 q 402 460 410 478 q 360 339 380 404 l 351 339 q 320 264 330 290 q 281 180 309 235 q 225 76 253 124 q 187 20 197 27 q 179 16 182 18 q 173 12 176 14 q 163 5 170 9 q 141 -5 156 1 q 117 -17 126 -12 q 98 -25 106 -22 q 80 -28 90 -28 q 48 -24 66 -28 q 20 -16 30 -20 q -6 14 10 -12 q -37 87 -23 40 q -48 151 -45 122 q -52 211 -51 180 q -53 252 -52 230 q -53 280 -54 271 q -48 292 -52 289 q -40 296 -45 295 q -29 301 -35 298 q -15 316 -23 305 q 5 352 1 338 q 9 382 9 365 q 11 395 10 388 q 29 430 12 408 q 67 473 46 452 q 105 511 89 495 q 122 526 122 526 q 121 518 122 526 q 119 500 121 511 q 113 478 117 489 q 104 462 109 468 q 95 449 96 454 q 96 440 94 445 q 97 427 96 435 q 97 410 97 419 q 96 369 99 385 q 96 356 94 363 q 103 340 98 349 q 117 304 109 328 q 122 287 121 292 q 120 281 123 282 q 113 281 118 281 q 91 280 105 283 q 72 253 78 275 q 64 207 66 231 q 58 174 61 186 q 58 153 54 161 q 67 136 61 144 q 77 121 73 130 q 88 106 83 108 q 102 113 93 105 q 122 131 109 119 q 146 158 134 143 q 163 184 158 172 q 177 206 169 196 q 200 254 191 221 q 222 298 210 284 q 236 323 233 309 q 253 417 243 353 q 259 448 256 438 q 267 465 262 458 q 270 473 269 469 q 277 488 273 480 q 286 512 284 504 q 288 517 287 515 q 290 528 288 524 q 292 535 291 530 q 303 561 296 547 q 315 589 309 576 q 330 650 323 624 z "},"k":{"ha":593,"x_min":-54,"x_max":647,"o":"m 263 818 l 263 818 l 263 818 q 272 815 264 818 q 286 807 279 812 q 298 799 294 803 q 299 794 302 795 q 298 786 299 794 q 295 766 297 778 q 292 744 294 755 q 288 726 290 733 q 286 724 287 725 q 281 708 283 716 q 275 690 278 701 q 275 689 275 690 q 274 669 274 682 q 274 656 274 661 q 273 650 273 652 q 271 646 272 648 q 269 642 270 644 q 267 634 269 639 q 265 607 265 623 q 266 579 265 591 q 266 572 266 574 q 266 568 266 571 q 265 562 265 566 q 264 555 264 558 q 264 553 264 553 q 274 560 264 553 q 297 578 284 568 q 321 598 311 589 q 335 612 332 608 q 356 623 339 618 q 382 633 368 627 q 409 652 397 640 q 517 741 461 705 q 610 791 572 776 q 644 800 647 806 l 603 742 q 596 732 603 742 q 581 710 589 723 q 566 688 572 698 q 553 668 564 685 q 526 630 541 651 q 500 592 511 608 q 488 575 489 576 q 467 568 474 572 q 457 561 460 565 q 452 552 454 557 q 446 541 450 547 q 432 527 442 535 q 401 503 419 517 q 364 474 382 488 q 333 450 345 460 q 320 440 320 440 l 348 397 q 351 391 348 397 q 357 377 353 385 q 366 359 361 368 q 374 343 371 350 q 386 320 382 331 q 394 292 390 310 q 400 273 397 279 q 407 258 403 267 q 419 234 411 251 q 438 189 431 210 q 454 139 445 168 q 455 134 454 136 q 476 88 463 111 q 500 48 489 64 q 511 31 511 31 q 504 35 511 31 q 484 46 496 39 q 461 60 473 52 q 442 75 450 68 q 430 84 435 81 q 422 90 426 87 q 412 95 418 92 q 397 108 407 99 q 384 121 389 116 q 376 131 380 126 q 366 144 372 136 q 345 167 359 152 q 332 180 337 175 q 326 188 328 185 q 323 191 323 190 q 322 193 322 193 q 321 197 322 195 q 318 202 321 199 q 310 214 315 206 q 297 234 300 227 q 292 245 293 241 q 288 254 290 250 q 281 264 286 258 q 258 284 274 271 q 225 313 242 298 q 195 339 208 328 q 182 350 182 350 q 179 342 182 350 q 171 325 176 335 q 160 305 166 314 q 155 294 157 299 q 151 283 153 289 q 134 241 149 269 q 126 226 128 231 q 123 217 124 220 q 123 212 123 214 q 122 202 123 208 q 117 184 121 197 q 110 162 113 170 q 106 150 107 155 q 103 137 105 144 q 99 118 102 130 q 97 107 98 111 q 95 100 96 102 q 94 96 94 97 q 93 94 94 95 q 93 94 93 94 q 93 93 93 93 q 92 92 92 92 q 92 90 92 92 q 91 87 92 89 q 69 73 89 81 q 59 57 64 62 q 42 44 54 52 q 18 27 33 39 q -14 2 2 15 q -42 -20 -31 -11 q -54 -29 -54 -29 q -52 -23 -54 -29 q -45 -7 -49 -16 q -39 12 -42 3 q -37 25 -37 20 q -31 59 -36 31 q -18 125 -25 87 q -4 196 -10 163 q 5 243 3 229 l 10 252 l 32 322 q 35 324 34 323 q 36 331 35 326 q 39 346 37 337 q 41 367 39 356 q 45 387 43 378 q 48 397 47 393 q 50 404 50 401 q 51 410 50 406 q 54 425 52 414 q 56 436 55 431 q 60 455 58 447 q 66 473 62 463 q 73 488 69 480 q 82 512 80 504 q 83 517 83 515 q 86 528 84 524 q 87 535 87 530 q 103 572 94 551 q 116 603 112 592 q 130 650 121 618 q 139 682 134 667 q 146 706 143 697 q 155 732 151 718 q 163 758 159 746 q 167 773 166 769 l 262 817 l 262 818 l 262 817 l 263 818 z "},"l":{"ha":473,"x_min":-162,"x_max":526,"o":"m -28 -29 l -14 11 q -35 8 -22 9 q -60 6 -48 7 q -75 5 -71 5 q -90 3 -78 5 q -117 1 -102 2 q -144 -2 -132 -1 q -159 -3 -156 -3 q -162 -2 -162 -3 q -155 1 -162 -1 q -128 17 -140 9 q -122 21 -125 19 q -111 27 -118 23 q -81 41 -96 36 q -56 52 -70 45 q -34 61 -43 58 q -5 75 -22 66 l -3 71 l 31 243 q 58 322 36 252 q 62 332 61 323 q 71 387 66 368 q 75 404 75 399 q 85 455 77 422 q 98 488 89 468 q 108 512 105 504 q 111 528 108 517 q 113 535 113 530 l 129 572 q 155 650 142 601 l 172 706 q 193 773 190 759 l 288 818 q 312 808 293 818 q 326 795 326 800 q 324 794 326 795 l 321 766 q 313 726 317 739 l 312 724 q 283 633 292 671 q 269 593 279 617 q 260 559 261 575 q 245 513 258 540 q 144 217 205 424 l 119 135 l 139 142 q 167 150 159 150 q 173 149 172 150 q 174 148 174 148 q 176 148 175 148 l 205 156 l 207 155 l 211 156 q 221 155 215 156 q 234 155 227 155 l 255 155 q 283 153 269 155 q 323 149 302 149 l 400 157 l 418 148 l 454 135 q 471 121 467 130 l 475 113 l 526 102 l 497 95 l 486 90 q 434 70 457 78 l 422 65 q 400 60 411 61 q 375 46 392 58 q 353 34 358 35 q 296 31 338 33 q 257 33 274 31 q 229 35 245 34 q 178 30 203 35 q 107 22 144 24 l 26 14 l -28 -29 z "},"m":{"ha":646,"x_min":-54,"x_max":647,"o":"m 45 388 l 45 388 l 45 388 q 48 389 46 388 q 83 504 63 439 q 121 619 104 568 q 142 680 138 670 q 159 708 146 687 q 188 755 172 730 q 216 799 204 780 q 228 818 228 818 q 228 808 228 818 q 230 785 229 799 q 233 757 231 771 q 237 733 235 743 q 246 707 243 716 q 250 695 248 701 q 256 679 252 688 q 264 646 262 659 q 271 618 267 636 q 282 582 277 600 q 297 545 288 565 q 307 511 302 534 q 315 461 311 488 q 321 416 319 435 q 323 397 323 397 q 325 400 323 397 q 329 406 326 403 q 335 413 332 410 q 340 418 338 416 q 354 428 346 420 q 375 444 364 437 q 384 452 381 447 q 388 461 387 456 q 394 473 390 468 q 406 491 397 476 q 437 535 420 511 q 469 566 455 559 q 483 575 479 570 q 488 586 486 580 q 501 611 490 595 q 527 654 509 622 q 564 723 545 686 q 598 787 584 760 q 613 815 613 815 q 614 800 614 806 q 616 777 615 786 q 620 756 618 767 q 626 728 622 745 q 635 681 632 700 q 642 649 639 665 q 645 600 647 627 q 645 568 644 586 q 644 527 645 543 q 644 509 643 513 q 635 485 644 505 q 619 446 627 468 q 608 403 611 425 q 606 401 607 402 q 549 222 575 309 q 506 89 520 120 q 501 80 503 84 q 494 67 497 72 q 486 58 491 62 q 473 49 481 54 q 448 31 464 43 q 416 7 433 20 q 388 -15 400 -6 q 376 -24 376 -24 q 379 -18 376 -24 q 385 -2 382 -12 q 391 16 389 7 q 394 30 394 25 q 400 64 395 35 q 413 130 406 92 q 427 200 420 167 q 436 248 433 233 l 441 256 l 463 327 q 465 328 465 328 q 468 345 467 332 q 454 324 464 342 q 435 303 446 311 q 418 286 427 296 q 404 273 410 276 q 396 267 399 270 q 391 256 393 263 q 385 247 389 250 q 376 241 380 243 q 367 237 371 239 q 361 229 363 234 q 355 216 359 220 q 345 207 350 211 q 334 197 339 203 q 319 183 330 193 q 296 160 309 172 q 275 140 283 149 q 266 132 266 132 q 262 143 264 133 q 258 166 260 153 q 254 190 256 178 q 250 210 252 201 q 241 237 245 224 q 237 267 238 250 q 225 308 235 280 q 206 361 216 336 q 195 391 199 380 q 192 401 193 401 q 192 395 191 401 q 191 363 193 384 q 172 324 186 340 q 157 299 162 312 q 151 287 155 291 q 143 282 147 283 q 136 276 138 280 q 119 222 127 248 q 76 89 90 120 q 71 80 73 84 q 64 67 67 72 q 56 58 61 62 q 42 49 52 54 q 18 31 34 43 q -14 7 3 20 q -42 -15 -31 -6 q -54 -24 -54 -24 q -51 -18 -54 -24 q -45 -2 -49 -12 q -39 16 -42 7 q -36 30 -37 25 q -30 64 -35 35 q -17 130 -24 92 q -4 200 -10 167 q 5 248 3 233 l 11 256 l 33 327 q 35 328 35 328 q 37 336 36 330 q 39 350 38 342 q 45 388 41 370 z "},"n":{"ha":570,"x_min":-54,"x_max":625,"o":"m 322 397 l 325 399 l 351 277 q 389 372 370 318 q 391 388 390 380 q 395 389 393 388 q 452 571 426 483 q 495 704 481 673 q 500 713 498 709 q 507 726 504 721 q 515 734 510 730 q 528 745 519 739 q 553 762 537 750 q 585 787 568 774 q 613 809 601 800 q 625 818 625 818 q 622 811 625 818 q 616 795 619 804 q 610 777 613 786 q 607 763 608 768 q 603 728 606 753 q 598 672 601 702 q 593 621 595 642 q 591 598 591 599 q 584 578 585 586 q 582 564 582 570 q 578 546 581 556 q 568 517 576 535 q 529 421 548 475 q 526 406 528 413 q 524 404 525 405 q 466 222 492 311 q 422 89 437 120 q 418 80 420 84 q 411 67 414 72 q 403 58 408 62 q 389 49 398 54 q 365 31 380 43 q 333 7 350 20 q 305 -15 317 -6 q 294 -24 294 -24 q 287 55 293 26 q 265 132 281 83 q 261 143 263 133 q 258 166 259 153 q 254 190 256 178 q 249 210 252 201 q 241 237 244 224 q 236 267 237 250 q 224 308 234 280 q 205 361 215 336 q 195 391 198 380 q 191 401 191 401 q 191 395 191 401 q 190 363 192 384 q 171 324 184 340 q 157 299 161 312 q 150 287 154 291 q 142 282 146 283 q 134 276 138 280 q 119 222 126 248 q 75 89 89 120 q 70 80 72 84 q 63 67 66 72 q 55 58 60 62 q 41 49 50 54 q 17 31 33 43 q -15 7 2 20 q -43 -15 -31 -6 q -54 -24 -54 -24 q -52 -18 -54 -24 q -46 -2 -50 -12 q -40 16 -43 7 q -37 30 -37 25 q -31 64 -36 35 q -18 130 -26 92 q -4 200 -11 167 q 5 248 2 233 l 9 256 l 32 327 q 34 328 33 328 q 36 336 35 330 q 38 350 37 342 q 44 388 40 370 l 44 388 q 47 389 45 388 q 83 504 62 439 q 120 619 103 568 q 141 680 136 670 q 158 708 145 687 q 187 755 171 730 q 215 799 203 780 q 227 818 227 818 q 227 808 227 818 q 229 785 228 799 q 232 757 230 771 q 237 733 233 743 q 242 716 240 723 q 247 703 245 709 q 255 679 250 694 q 263 646 261 659 q 270 618 265 636 q 282 582 276 600 q 296 545 288 565 q 306 511 301 534 q 314 461 310 488 q 320 416 318 435 q 322 397 322 397 z "},"o":{"ha":590,"x_min":-14,"x_max":592,"o":"m 328 817 l 328 817 l 328 817 q 347 818 330 818 q 386 818 363 818 q 425 817 408 817 q 442 817 442 817 l 490 796 q 497 795 490 796 q 513 794 503 795 q 534 791 523 793 q 565 758 550 787 q 587 700 581 728 q 590 652 592 675 q 577 600 589 629 q 559 546 570 580 q 530 465 545 505 q 504 410 515 425 q 484 354 496 397 q 458 258 471 311 q 437 176 447 213 q 419 123 427 138 q 378 72 408 102 q 314 15 349 42 q 254 -21 279 -12 q 212 -28 231 -28 q 183 -26 193 -28 q 172 -23 172 -23 l 106 -14 l 76 -5 q 68 2 76 -5 q 44 20 60 9 q 26 39 33 28 q 16 60 20 50 q 12 71 14 66 q -2 113 6 83 q -14 174 -11 143 q 9 281 -13 223 q 16 307 13 294 q 36 374 23 330 q 65 476 50 425 q 87 547 79 526 q 103 591 94 562 q 130 666 116 628 q 156 718 144 704 q 201 749 176 739 q 231 766 216 757 q 258 782 242 774 q 290 799 274 791 q 317 811 306 806 q 328 817 328 817 m 176 112 l 176 112 l 176 112 q 180 112 180 112 q 186 108 180 112 q 203 101 193 104 q 226 96 214 97 q 251 98 239 94 q 274 114 263 102 q 313 162 301 146 q 330 187 326 178 q 336 204 334 195 q 343 225 338 212 q 359 260 348 238 q 373 298 369 283 q 389 336 378 314 q 395 345 392 341 q 410 379 404 361 q 424 439 416 397 q 462 538 437 495 q 484 593 480 571 q 484 623 484 608 q 486 664 481 645 q 470 671 479 669 q 440 675 460 673 q 387 682 421 677 q 335 679 357 686 q 298 662 313 673 q 277 643 284 652 q 270 634 270 634 q 277 646 270 634 q 296 672 283 658 q 328 694 309 686 q 349 705 340 701 q 363 713 357 709 q 382 724 371 718 q 378 725 378 725 q 369 724 378 725 q 349 722 360 724 q 328 719 337 721 q 317 714 319 716 q 303 706 317 714 q 271 683 290 697 q 238 652 253 669 q 221 615 224 635 q 215 589 219 596 q 207 578 212 581 q 200 570 203 575 q 195 551 197 564 q 191 531 193 538 q 185 516 189 524 q 175 490 181 507 q 163 439 170 473 q 131 341 147 370 q 117 302 121 320 q 116 281 115 290 q 115 266 116 275 q 109 240 113 256 q 92 197 104 224 q 90 155 82 172 q 120 151 98 153 q 165 144 136 149 q 210 147 191 141 q 242 162 229 153 q 260 178 254 171 q 266 186 266 186 q 260 176 266 186 q 243 153 254 165 q 216 134 232 141 q 199 125 205 129 q 186 118 192 121 q 176 112 182 115 z "},"p":{"ha":577,"x_min":-54,"x_max":631,"o":"m 263 818 l 263 818 l 263 818 q 271 815 264 818 q 286 807 278 812 q 298 799 294 803 q 299 794 302 795 q 298 787 299 794 q 296 770 297 780 q 292 749 294 760 q 334 766 310 757 q 340 765 337 765 q 349 764 347 764 q 353 764 352 764 q 355 764 354 764 q 357 765 356 764 q 364 767 359 766 q 370 770 368 768 q 374 772 372 771 q 378 775 376 774 q 385 777 380 776 q 398 779 389 778 q 454 787 441 783 q 457 789 456 788 q 459 791 458 790 q 461 793 460 792 q 467 795 463 794 q 477 795 471 795 q 510 798 495 797 q 532 801 526 800 q 538 802 535 802 q 553 796 547 799 q 572 789 562 793 q 599 778 592 780 q 604 775 602 777 q 607 773 606 774 q 609 770 608 772 q 612 764 610 768 q 614 759 613 760 q 614 757 614 758 q 615 756 614 757 q 615 753 615 755 q 615 751 615 752 q 616 750 616 750 q 617 748 617 749 q 617 746 617 747 q 616 741 617 744 q 614 736 615 738 q 613 731 614 733 q 613 728 613 730 q 615 722 614 726 q 616 718 616 720 q 620 709 617 713 q 629 697 622 705 q 631 693 631 694 q 630 691 631 692 q 625 690 628 690 q 619 688 622 690 q 616 683 616 687 q 619 674 617 677 q 621 667 621 671 q 616 660 621 664 q 610 646 612 655 q 606 629 608 637 q 604 615 606 618 q 598 603 601 610 q 595 591 596 596 q 591 582 593 586 q 586 572 588 578 q 582 562 583 566 q 576 551 580 558 q 570 539 572 545 q 563 525 568 532 q 557 516 559 519 q 553 511 555 513 q 551 509 552 509 q 539 496 543 500 q 532 489 534 492 q 526 484 529 487 q 519 477 523 481 q 512 470 515 473 q 508 466 510 467 q 505 463 507 465 q 496 457 502 462 q 490 452 492 454 q 487 450 488 450 q 484 447 486 448 q 477 442 482 446 q 471 436 473 438 q 469 434 470 435 q 464 431 467 433 q 455 426 461 429 q 439 417 445 420 q 428 412 433 414 q 422 410 425 411 q 410 405 416 407 q 399 402 404 404 q 394 401 394 401 l 382 398 q 395 398 382 398 q 426 397 407 397 q 375 374 396 378 q 348 368 357 370 q 331 364 339 366 q 309 357 323 361 q 267 345 296 352 q 204 331 237 338 q 149 319 171 323 q 119 217 133 266 q 75 85 90 115 q 71 76 73 79 q 63 63 66 68 q 56 54 60 58 q 41 44 51 50 q 18 27 33 39 q -14 2 2 15 q -42 -20 -31 -11 q -54 -29 -54 -29 q -52 -23 -54 -29 q -46 -7 -49 -16 q -40 12 -43 3 q -37 25 -37 20 q -31 59 -36 31 q -18 125 -25 87 q -4 196 -11 163 q 5 243 2 229 l 10 252 l 32 322 q 35 324 34 323 q 36 331 35 326 q 38 346 37 337 q 41 367 39 356 q 45 387 43 378 q 48 397 47 393 q 50 404 49 401 q 51 410 50 406 q 54 425 52 414 q 56 436 55 431 q 60 455 58 447 q 66 473 62 463 q 72 488 69 480 q 82 512 80 504 q 83 517 83 515 q 86 528 84 524 q 87 535 87 530 q 103 572 94 551 q 116 603 112 592 q 130 650 121 618 q 139 682 134 667 q 146 706 143 697 q 155 732 150 718 q 163 758 159 746 q 167 773 166 769 l 263 818 m 197 456 l 197 456 l 197 456 q 222 458 206 458 q 231 459 227 459 q 258 461 250 460 q 272 464 267 462 q 286 468 277 465 q 309 476 293 471 q 326 482 320 479 q 335 486 332 484 q 340 490 338 488 q 346 494 342 492 q 358 500 349 496 q 382 509 366 503 q 434 520 416 519 q 457 525 448 521 q 475 541 466 528 q 520 646 534 618 q 454 669 507 674 q 342 646 401 665 q 250 610 283 627 q 243 593 248 604 q 236 573 238 581 q 234 559 235 566 q 231 541 233 551 q 220 513 229 530 q 197 456 208 488 z "},"q":{"ha":496,"x_min":-54,"x_max":551,"o":"m 545 700 l 545 700 q 549 652 551 675 q 536 600 548 629 q 517 546 529 580 q 489 465 504 505 q 463 410 474 425 q 443 354 454 397 q 417 258 431 311 q 396 176 406 213 q 378 123 386 138 q 346 81 369 106 q 293 31 322 56 q 296 28 294 29 q 366 -40 334 -16 q 399 -64 399 -64 q 394 -67 399 -64 q 380 -75 389 -71 q 356 -81 370 -79 q 323 -77 342 -82 q 282 -59 305 -73 q 229 -14 252 -41 q 214 -21 220 -18 q 171 -28 189 -28 q 142 -26 153 -28 q 131 -23 131 -23 l 65 -14 l 35 -5 q 27 2 35 -5 q 3 20 18 9 q -15 39 -9 28 q -24 60 -21 50 q -29 71 -26 66 q -43 113 -35 83 q -54 174 -52 143 q -32 281 -54 223 q -24 307 -28 294 q -5 374 -18 330 q 24 476 9 425 q 47 547 39 526 q 62 591 52 562 q 89 666 75 628 q 115 718 104 704 q 161 749 135 739 q 191 766 176 757 q 217 782 201 774 q 249 799 233 791 q 276 811 265 806 q 287 817 287 817 q 306 818 288 818 q 345 818 323 818 q 384 817 367 817 q 401 817 401 817 l 449 796 q 456 795 449 796 q 472 794 463 795 q 493 791 482 793 q 524 758 509 787 q 545 700 540 728 m 450 676 l 450 676 q 446 689 454 684 q 422 698 437 694 q 391 705 407 702 q 357 714 366 709 q 337 725 337 725 q 328 724 337 725 q 308 722 319 724 q 287 719 296 721 q 277 714 278 716 q 262 706 277 714 q 230 683 248 697 q 197 652 212 669 q 180 615 182 635 q 174 589 178 596 q 166 578 170 581 q 159 570 162 575 q 154 551 156 564 q 150 531 153 538 q 144 516 148 524 q 134 490 140 507 q 122 439 129 473 q 90 341 106 370 q 76 302 79 320 q 75 281 75 290 q 74 266 75 275 q 67 240 73 256 q 51 197 62 224 q 48 158 42 174 q 68 133 54 142 q 99 119 83 124 q 127 113 115 115 q 139 112 139 112 q 148 107 139 112 q 170 98 157 102 q 172 133 168 118 q 176 174 178 153 q 169 216 174 196 q 159 249 164 236 q 154 261 154 261 q 158 261 154 261 q 169 260 162 261 q 183 254 176 258 q 197 243 191 250 q 208 226 204 235 q 214 210 212 217 q 217 198 216 202 q 216 195 217 193 q 222 174 216 195 q 241 124 229 154 q 275 166 264 152 q 289 188 286 180 q 296 204 293 195 q 302 225 298 212 q 317 260 307 238 q 332 298 328 283 q 349 336 337 314 q 353 345 351 341 q 369 379 363 361 q 383 439 376 397 q 420 538 396 495 q 442 593 439 571 q 442 623 444 608 q 450 676 439 652 z "},"r":{"ha":577,"x_min":-54,"x_max":631,"o":"m 263 818 l 263 818 l 263 818 q 271 815 264 818 q 286 807 278 812 q 298 799 294 803 q 298 794 302 795 q 298 787 298 794 q 296 770 297 780 q 292 749 294 760 q 334 766 309 757 q 340 765 337 765 q 349 764 347 764 q 353 764 352 764 q 355 764 354 764 q 357 765 356 764 q 364 767 359 766 q 370 770 368 768 q 374 772 372 771 q 377 775 375 774 q 385 777 380 776 q 398 779 389 778 q 454 787 440 783 q 457 789 456 788 q 459 791 458 790 q 461 793 460 792 q 467 795 463 794 q 477 795 471 795 q 510 798 495 797 q 532 801 526 800 q 538 802 534 802 q 553 796 547 799 q 572 789 562 793 q 599 778 592 780 q 604 775 602 777 q 607 773 606 774 q 609 770 608 772 q 612 764 610 768 q 614 759 613 760 q 614 757 614 758 q 614 756 614 757 q 615 753 614 755 q 615 751 615 752 q 616 750 616 750 q 617 748 616 749 q 617 746 617 747 q 616 741 617 744 q 614 736 615 738 q 613 731 614 733 q 613 728 613 730 q 615 722 614 726 q 616 718 616 720 q 620 709 617 713 q 629 697 622 705 q 631 693 631 694 q 630 691 631 692 q 625 690 628 690 q 619 688 622 690 q 616 683 616 687 q 619 674 617 677 q 621 667 621 671 q 616 660 621 664 q 610 646 612 655 q 606 629 608 637 q 604 615 605 618 q 598 603 601 610 q 594 591 595 596 q 591 582 593 586 q 586 572 588 578 q 582 562 583 566 q 576 551 580 558 q 570 539 572 545 q 563 525 568 532 q 557 516 559 519 q 553 511 555 513 q 551 509 552 509 q 539 496 543 500 q 532 489 534 492 q 526 484 529 487 q 519 477 523 481 q 512 470 515 473 q 508 466 510 467 q 505 463 506 465 q 496 457 501 462 q 490 452 492 454 q 487 450 488 450 q 484 447 486 448 q 477 442 481 446 q 471 436 473 438 q 468 434 470 435 q 464 431 467 433 q 455 426 461 429 q 438 417 444 420 q 428 412 433 414 q 422 410 425 411 q 410 405 416 407 q 399 402 404 404 q 394 401 394 401 l 382 398 q 394 398 382 398 q 426 397 406 397 q 375 374 395 378 q 347 368 357 370 q 340 366 344 367 q 355 336 349 349 q 368 311 363 323 q 378 277 373 298 q 385 256 382 263 q 393 239 388 249 q 406 212 397 231 q 428 160 420 184 q 446 103 436 136 q 448 97 447 100 q 471 44 456 71 q 499 -1 486 18 q 512 -20 512 -20 q 503 -15 512 -20 q 481 -3 494 -11 q 455 13 468 4 q 433 30 441 22 q 419 41 425 37 q 410 47 414 45 q 399 53 406 49 q 382 67 393 58 q 367 82 372 77 q 357 94 361 88 q 346 109 353 99 q 321 135 338 118 q 308 150 313 144 q 300 158 302 155 q 297 163 298 161 q 296 165 296 164 q 295 169 296 167 q 291 176 294 171 q 282 188 288 180 q 267 211 271 203 q 261 224 262 220 q 257 234 260 229 q 248 245 254 239 q 212 279 237 256 q 162 321 186 302 q 149 319 155 320 q 119 217 133 266 q 75 85 90 115 q 71 76 73 79 q 63 63 66 68 q 56 54 60 58 q 41 44 51 50 q 18 27 33 39 q -15 2 2 15 q -43 -20 -31 -11 q -54 -29 -54 -29 q -52 -23 -54 -29 q -46 -7 -50 -16 q -40 12 -43 3 q -37 25 -37 20 q -31 59 -36 31 q -18 125 -25 87 q -4 196 -11 163 q 5 243 2 229 l 10 252 l 32 322 q 35 324 34 323 q 36 331 35 326 q 38 346 37 337 q 41 367 39 356 q 45 387 43 378 q 48 397 47 393 q 50 404 49 401 q 50 410 50 406 q 54 425 51 414 q 56 436 55 431 q 60 455 58 447 q 66 473 62 463 q 72 488 69 480 q 82 512 80 504 q 83 517 83 515 q 85 528 84 524 q 87 535 87 530 q 103 572 94 551 q 115 603 112 592 q 130 650 121 618 q 139 682 134 667 q 146 706 143 697 q 155 732 150 718 q 163 758 159 746 q 167 773 166 769 l 263 818 m 197 456 l 197 456 l 197 456 q 222 458 206 458 q 231 459 227 459 q 258 461 250 460 q 272 464 267 462 q 285 468 277 465 q 309 476 293 471 q 326 482 320 479 q 335 486 332 484 q 340 490 338 488 q 346 494 342 492 q 357 500 349 496 q 381 509 366 503 q 434 520 416 519 q 456 525 447 521 q 475 541 465 528 q 520 646 533 618 q 454 669 507 674 q 342 646 401 665 q 250 610 283 627 q 243 593 248 604 q 236 573 238 581 q 234 559 235 566 q 231 541 233 551 q 220 513 229 530 q 197 456 208 488 z "},"s":{"ha":593,"x_min":-54,"x_max":730,"o":"m 587 724 l 587 724 l 587 724 q 582 720 585 724 q 571 709 577 715 q 562 701 566 703 q 559 700 559 699 q 559 704 559 701 q 560 708 560 706 q 559 713 560 711 q 557 724 558 715 q 557 743 557 733 q 556 754 556 749 q 555 762 556 760 q 553 771 555 765 q 549 785 551 778 q 545 797 547 792 q 543 802 543 802 l 497 818 q 490 817 497 818 q 473 815 483 817 q 454 813 463 814 q 442 812 448 812 q 414 810 431 813 q 366 790 397 806 q 354 784 359 786 q 346 779 349 781 q 342 776 343 777 q 340 774 340 775 q 339 773 339 774 q 339 772 339 773 q 340 771 340 772 q 339 769 340 770 q 336 765 338 768 q 330 760 334 763 q 319 751 326 756 q 279 712 302 736 q 233 662 256 688 q 195 617 210 635 q 180 599 180 599 l 146 452 l 159 355 q 164 351 159 355 q 177 342 170 347 q 192 332 185 336 q 203 324 199 327 q 224 304 213 317 q 233 294 229 300 q 247 284 239 289 q 268 271 254 279 q 328 235 287 260 q 348 221 340 227 q 360 213 356 216 q 364 208 363 210 q 363 207 365 207 q 359 206 362 206 q 356 205 357 206 q 354 203 354 205 q 355 199 355 199 q 351 198 355 198 q 318 192 345 199 q 304 187 309 189 q 298 184 300 185 q 294 182 296 182 q 290 179 292 180 q 281 175 287 177 q 264 168 275 172 q 202 155 222 156 q 182 153 191 155 q 159 145 176 151 q 125 134 143 140 q 94 123 107 127 q 81 118 81 118 q 83 115 81 118 q 87 105 85 111 q 89 89 89 98 q 59 62 89 79 q -2 28 30 44 q -46 7 -34 13 q -54 3 -54 4 q -47 3 -53 3 q -33 5 -41 4 q -21 7 -27 7 q 15 10 -6 9 q 60 12 31 11 q 144 14 94 14 q 248 16 203 14 q 349 32 320 23 q 414 55 381 37 q 436 71 429 63 q 449 85 444 78 q 453 91 451 88 q 473 119 460 101 q 499 157 486 137 q 507 180 508 170 q 502 203 507 191 q 494 230 498 214 q 479 283 488 258 q 454 326 471 309 q 426 345 445 336 q 386 362 407 353 q 355 375 369 369 q 335 388 341 382 q 309 415 323 401 q 288 439 295 430 q 281 461 283 446 q 279 493 279 476 q 280 521 279 510 q 328 573 283 541 q 368 604 345 586 q 416 637 394 626 q 452 652 438 648 q 465 656 465 656 q 465 641 465 656 q 465 616 465 633 q 465 582 465 599 q 466 576 465 578 q 466 575 466 575 q 467 577 467 576 q 468 579 467 578 q 468 582 468 581 q 468 583 468 583 q 468 582 468 583 q 467 578 468 581 q 467 574 467 576 q 463 546 465 558 q 459 513 460 528 q 460 503 458 505 q 467 498 463 500 q 477 494 471 497 q 486 488 481 490 q 496 489 490 487 q 516 494 503 490 q 530 498 526 496 q 537 501 535 500 q 543 505 540 503 q 553 511 546 507 q 562 515 558 514 q 567 517 565 517 q 571 518 569 517 q 574 520 572 519 q 576 526 575 522 q 580 530 578 529 q 583 533 582 532 q 587 536 585 534 q 592 544 589 538 q 596 560 594 549 q 620 616 603 590 q 639 654 629 633 q 660 693 646 669 q 691 742 675 717 q 718 784 707 766 q 730 801 730 801 q 725 799 730 801 q 708 793 720 797 q 696 789 701 791 q 683 786 690 788 q 666 777 677 783 q 645 764 658 772 q 618 746 631 755 q 596 731 605 737 q 587 724 587 724 z "},"t":{"ha":435,"x_min":-54,"x_max":669,"o":"m 365 818 l 365 818 l 365 818 q 372 815 366 818 q 433 808 406 815 q 471 796 455 802 q 487 791 487 791 q 488 795 487 791 q 490 795 489 795 q 522 790 509 791 q 547 787 531 789 q 574 785 562 785 q 608 781 591 784 q 621 778 616 779 q 628 775 625 777 q 634 774 631 774 q 642 772 637 773 q 660 768 652 770 q 667 767 665 768 q 665 766 669 767 q 649 762 662 764 q 622 757 637 760 q 594 751 606 753 q 578 748 581 749 q 561 744 574 747 q 533 739 547 741 q 512 736 519 736 l 513 734 q 504 733 513 734 q 480 728 494 731 q 453 723 467 726 q 430 719 439 721 q 390 711 412 716 q 383 710 387 711 q 367 661 378 696 q 360 633 361 642 q 355 618 358 626 q 345 593 353 610 q 338 573 340 581 q 336 559 336 566 q 333 541 335 551 q 322 513 330 530 q 269 373 295 454 q 220 217 242 292 q 177 85 191 115 q 172 76 174 79 q 165 63 168 68 q 157 54 162 58 q 144 44 153 50 q 119 27 135 39 q 87 2 104 15 q 59 -20 71 -11 q 47 -29 47 -29 q 50 -23 47 -29 q 56 -7 53 -16 q 62 12 60 3 q 65 25 65 20 q 71 59 66 31 q 84 125 77 87 q 98 196 92 163 q 107 243 104 229 l 112 252 l 134 322 q 136 324 136 323 q 138 331 137 326 q 140 346 139 337 q 143 367 141 356 q 147 387 144 378 q 150 397 149 393 q 151 404 151 401 q 153 410 152 406 q 155 425 153 414 q 157 436 157 431 q 161 455 159 447 q 168 473 163 463 q 174 488 171 480 q 184 512 182 504 q 185 517 184 515 q 188 528 186 524 q 189 535 189 530 q 205 572 196 551 q 218 603 214 592 q 231 650 222 618 q 239 679 235 665 q 236 677 238 678 q 197 665 220 671 q 138 650 154 653 q 129 651 135 650 q 114 655 122 653 q 98 660 106 658 q 85 661 90 662 q 73 660 77 660 q 61 661 68 660 q 47 661 56 661 q 18 663 35 662 q -11 666 2 665 q -23 667 -23 667 l -54 665 l -5 691 q -5 693 -5 691 q -4 700 -5 696 q 0 708 -3 703 q 9 718 3 713 q 32 734 22 727 q 42 741 42 741 l 57 755 q 71 758 57 755 q 104 764 85 760 q 137 770 123 767 q 176 785 157 776 q 209 798 193 793 q 237 806 228 802 q 248 809 243 808 q 251 810 250 810 q 252 810 252 810 q 253 811 253 810 q 255 811 254 811 q 260 812 257 811 q 284 812 279 811 q 287 812 286 812 q 288 813 288 812 q 290 815 289 814 q 294 817 292 816 q 295 817 295 817 l 295 817 q 324 817 302 819 q 359 816 342 817 q 361 816 360 816 l 365 818 z "},"u":{"ha":509,"x_min":-54,"x_max":563,"o":"m 205 806 l 205 806 l 205 806 q 214 793 211 800 q 219 771 218 785 q 219 762 220 766 q 216 754 218 758 q 212 736 214 749 q 210 694 210 723 q 202 687 205 690 q 191 674 195 682 q 185 648 186 667 q 180 630 184 637 q 173 619 177 624 q 164 607 168 614 q 159 585 161 599 q 146 536 155 559 q 122 447 136 511 q 90 349 106 377 q 77 310 79 328 q 75 290 75 298 q 74 273 75 282 q 67 249 73 264 q 51 204 62 233 q 48 166 42 181 q 68 141 54 151 q 99 127 83 132 q 127 121 115 123 q 139 120 139 120 q 145 116 139 120 q 162 109 152 113 q 185 104 173 105 q 210 106 197 102 q 233 122 222 110 q 273 171 260 155 q 289 195 285 186 q 296 212 293 203 q 302 233 298 220 q 318 269 307 245 q 332 305 328 292 q 349 344 337 321 q 353 353 351 349 q 369 386 363 368 q 383 447 376 404 q 404 523 389 478 q 433 608 418 568 q 456 678 454 664 q 457 684 456 682 q 457 687 457 686 q 457 690 457 689 q 457 691 457 690 q 457 692 457 692 q 457 692 457 692 q 457 692 457 692 q 456 693 456 692 q 456 694 456 694 q 464 704 461 700 q 470 715 466 708 q 490 748 475 725 q 513 782 503 770 q 533 802 523 793 q 549 818 541 808 q 552 812 551 814 q 554 806 553 809 q 556 799 555 804 q 559 786 557 794 q 562 743 563 769 q 550 685 562 716 q 538 638 545 671 q 524 562 532 604 q 504 453 514 503 q 484 390 493 403 q 458 317 473 373 q 426 217 445 269 q 378 131 406 165 q 292 40 334 80 q 214 -13 250 0 q 171 -21 189 -20 q 142 -18 153 -21 q 132 -15 132 -15 l 65 -6 l 35 3 q 27 10 35 3 q 3 28 18 18 q -15 47 -9 37 q -24 68 -20 58 q -29 79 -26 74 q -43 120 -35 90 q -54 182 -52 151 q -32 290 -54 231 q -24 314 -28 302 q 0 401 -16 342 q 30 509 15 456 q 51 580 44 561 q 67 624 57 595 q 94 699 79 661 q 120 751 109 737 q 146 773 131 764 q 176 789 162 782 q 195 800 188 795 q 198 801 197 800 q 200 803 199 802 q 202 804 201 804 q 203 805 203 804 q 204 805 203 805 q 204 806 204 806 q 205 806 205 806 q 204 806 205 806 q 204 806 204 806 q 204 805 204 805 q 204 805 204 805 q 204 805 204 805 q 204 805 204 805 q 205 806 205 806 z "},"v":{"ha":608,"x_min":71,"x_max":690,"o":"m 170 909 l 170 909 l 170 909 q 163 901 168 911 q 153 875 159 891 q 142 841 148 859 q 140 833 141 837 q 135 811 136 819 q 134 796 134 803 q 134 784 134 791 q 132 766 134 777 q 121 722 130 749 q 103 665 113 695 q 75 573 84 610 q 71 517 71 547 q 73 464 71 487 q 75 440 75 440 q 73 416 75 440 q 71 357 71 393 q 80 284 72 322 q 108 218 87 247 q 155 122 135 178 q 186 23 175 67 q 197 -21 197 -21 q 204 -11 197 -21 q 221 13 212 -1 q 238 40 231 26 q 249 60 246 53 q 254 71 251 68 q 262 76 257 74 q 294 96 272 79 q 318 112 309 106 q 336 126 330 119 q 351 155 343 134 q 365 178 358 171 q 377 189 371 185 q 388 199 382 193 q 397 215 393 204 q 421 262 409 241 q 441 299 432 279 q 468 338 454 324 q 481 356 478 348 q 488 373 484 362 q 499 401 493 387 q 509 424 505 416 q 524 439 514 431 q 555 473 538 448 q 565 490 562 484 q 569 500 568 496 q 571 511 570 505 q 574 527 572 517 q 576 542 576 536 q 575 551 576 547 q 572 557 574 554 q 568 568 570 562 q 564 587 566 574 q 561 615 562 601 q 558 641 559 630 q 557 652 557 652 l 601 682 q 610 688 601 682 q 630 706 618 695 q 650 728 641 716 q 655 735 654 732 q 656 738 657 737 q 654 739 656 739 q 646 741 651 739 q 636 752 642 743 q 628 771 630 763 q 628 791 626 779 q 637 823 631 802 q 639 830 637 826 q 653 881 644 850 q 670 943 661 911 q 684 998 678 975 q 690 1020 690 1020 q 673 1003 690 1020 q 632 961 656 985 q 586 912 608 936 q 555 876 565 889 q 540 853 545 863 q 532 831 535 842 q 511 784 526 814 q 491 740 497 757 q 478 710 486 727 q 454 665 471 694 q 430 618 437 633 q 419 588 424 604 q 399 532 414 571 q 362 453 387 503 q 311 353 338 404 q 264 267 283 302 q 245 231 245 231 q 241 248 245 231 q 231 284 237 264 q 218 321 224 305 q 211 334 214 328 q 199 363 203 349 q 193 408 195 378 q 193 427 193 420 q 193 436 193 433 q 195 441 194 439 q 199 451 197 444 q 203 475 201 458 q 203 481 203 479 q 209 538 207 516 q 211 581 211 559 q 216 625 211 602 q 222 676 222 648 q 221 696 222 689 q 220 708 221 703 q 218 723 220 713 q 214 749 216 732 q 203 795 210 768 q 189 847 196 821 q 176 891 181 873 q 170 909 170 909 z "},"w":{"ha":593,"x_min":-20,"x_max":749,"o":"m 386 682 l 386 682 l 386 682 q 390 672 388 682 q 393 650 391 663 q 396 627 394 638 q 400 608 397 615 q 408 582 405 593 q 412 553 411 570 q 422 514 413 540 q 441 463 431 488 q 451 435 448 445 q 454 426 454 426 q 455 432 455 426 q 457 463 454 443 q 477 500 463 485 q 495 530 488 513 q 502 547 498 541 q 508 563 505 553 q 512 593 511 572 q 523 626 513 611 q 544 654 532 641 q 570 696 564 675 q 581 739 574 719 q 593 781 588 758 q 601 800 595 795 q 612 807 606 805 q 622 812 617 809 q 630 821 626 815 q 646 839 640 836 q 650 842 648 841 q 650 846 651 844 q 660 850 650 848 q 684 853 669 852 q 713 856 699 855 q 738 858 728 857 q 749 859 749 859 q 744 848 749 859 q 733 823 739 838 q 721 794 726 808 q 715 773 716 781 q 693 725 710 754 q 678 696 686 711 q 670 680 673 687 q 655 650 663 663 q 638 621 648 637 q 629 602 632 611 q 625 583 627 593 q 610 528 623 565 q 584 456 602 509 q 544 338 566 403 q 495 193 517 257 q 469 118 473 128 q 455 100 465 111 q 435 77 446 89 q 417 57 425 66 q 409 49 409 49 q 404 62 409 49 q 393 94 399 76 q 386 116 389 108 q 380 134 383 124 q 376 146 378 139 q 368 177 370 165 q 361 203 366 187 q 351 238 357 222 q 336 273 345 254 q 328 306 332 283 q 321 353 324 328 q 316 397 318 378 q 315 415 315 415 q 313 413 315 415 q 308 407 311 410 q 302 399 305 403 q 295 394 298 396 q 281 382 290 390 q 257 364 270 372 q 248 356 251 361 q 243 346 245 351 q 237 334 241 339 q 222 315 233 330 q 188 268 208 293 q 153 234 168 242 q 138 224 142 229 q 132 212 134 219 q 127 201 130 208 q 117 186 124 195 q 83 121 106 172 q 36 18 59 71 q 3 -57 13 -35 q 0 -8 3 -40 q -6 41 -2 23 q -11 75 -9 52 q -16 124 -14 98 q -19 169 -18 150 q -20 188 -20 188 q -17 195 -20 188 q -10 214 -14 203 q -4 236 -6 225 q 3 264 -2 246 q 12 303 7 283 q 16 332 16 323 q 17 344 16 339 q 19 355 18 349 q 22 378 21 363 q 34 416 25 396 q 43 446 43 435 q 48 484 43 458 q 53 522 53 510 q 55 532 53 528 q 59 540 57 536 q 68 566 65 549 q 71 590 69 580 q 74 618 74 602 q 75 635 74 627 q 77 649 76 644 q 78 654 78 654 l 80 689 l 111 722 q 184 804 173 789 q 190 811 189 809 q 192 812 192 812 l 228 776 q 230 775 228 776 q 236 772 233 774 q 241 769 239 771 q 245 765 244 767 q 243 760 245 762 q 233 737 236 753 q 222 708 229 724 q 215 693 217 699 q 213 683 214 688 q 207 656 212 675 q 195 611 203 643 q 180 542 188 578 q 166 478 172 505 q 161 451 161 451 q 166 456 161 451 q 178 473 171 461 q 199 496 187 487 q 217 515 208 504 q 234 530 227 526 q 242 536 238 532 q 248 547 246 540 q 255 557 251 553 q 265 563 260 560 q 274 568 270 565 q 280 577 278 572 q 299 600 286 592 q 311 610 305 605 q 327 627 315 616 q 353 651 339 638 q 376 673 366 664 q 386 682 386 682 z "},"x":{"ha":532,"x_min":-256,"x_max":656,"o":"m 622 754 l 622 754 l 622 754 q 630 746 624 753 q 643 730 637 739 q 653 713 650 720 q 651 707 656 707 q 645 698 651 707 q 630 675 639 688 q 613 650 622 663 q 597 631 604 638 q 594 629 595 629 q 570 604 583 617 q 532 564 557 591 q 508 535 515 544 q 493 518 501 526 q 467 494 486 511 q 447 474 453 482 q 435 457 440 465 q 421 437 430 448 q 391 408 412 426 q 320 344 357 380 q 355 269 338 301 q 366 244 363 254 q 370 229 369 235 q 372 215 370 222 q 380 197 374 208 q 390 176 387 183 q 395 163 393 170 q 402 139 397 155 q 415 105 410 117 q 424 84 420 94 q 425 81 425 83 q 430 66 427 76 q 434 45 432 56 q 437 28 435 35 q 438 20 438 20 q 438 17 441 20 q 431 11 436 14 q 420 3 426 7 q 410 -4 414 -1 q 404 -6 405 -6 l 311 22 q 307 36 310 26 q 298 58 303 46 q 290 81 294 71 q 281 102 286 89 q 272 130 277 116 q 258 172 263 158 q 245 199 254 181 q 229 230 236 216 q 227 237 228 235 q 224 245 225 240 q 96 106 157 173 q -34 -32 1 -2 q -44 -40 -40 -37 q -61 -52 -54 -47 q -75 -59 -67 -56 q -98 -63 -83 -61 q -137 -72 -111 -66 q -189 -85 -162 -78 q -236 -97 -216 -92 q -256 -102 -256 -102 q -249 -95 -256 -102 q -232 -79 -241 -88 q -214 -60 -222 -69 q -202 -45 -206 -51 q -176 -8 -199 -39 q -122 65 -153 24 q -64 143 -91 106 q -25 195 -37 179 l -14 203 l 54 277 q 58 278 56 277 q 64 286 60 279 q 75 302 69 292 q 91 327 83 314 q 108 349 100 339 q 117 359 114 355 q 123 366 121 363 q 127 372 125 369 q 140 389 131 377 q 149 402 145 396 q 168 426 159 416 l 148 481 l 142 488 q 133 531 140 501 q 118 594 125 560 q 104 653 110 627 q 98 683 98 678 q 94 695 97 687 q 87 711 91 703 q 82 725 84 719 q 79 730 79 730 q 91 724 79 730 q 118 707 102 717 q 149 689 134 698 q 173 676 164 680 q 186 669 182 672 q 194 662 191 666 q 201 651 197 658 q 205 644 203 648 q 251 527 220 616 q 260 503 255 515 q 277 516 269 509 q 305 538 294 529 q 318 549 316 547 q 359 594 330 562 q 390 630 374 612 q 414 657 405 647 q 440 683 427 669 q 465 710 454 698 q 479 727 476 722 l 622 754 z "},"y":{"ha":406,"x_min":-24,"x_max":460,"o":"m 417 818 l 417 818 l 417 818 q 427 814 419 818 q 443 806 434 811 q 456 796 451 801 q 456 791 460 791 q 454 781 456 791 q 450 759 452 772 q 444 732 447 745 q 437 712 440 720 q 435 709 436 711 q 424 681 430 696 q 406 637 417 666 q 395 606 397 615 q 391 594 393 600 q 385 580 389 588 q 374 559 381 572 q 365 536 368 545 q 361 519 362 527 q 356 498 359 511 q 340 466 352 486 q 267 304 304 397 q 197 125 229 211 q 136 -28 155 8 q 130 -38 132 -34 q 120 -53 124 -47 q 110 -63 116 -58 q 94 -75 104 -68 q 64 -95 83 -81 q 25 -123 45 -108 q -9 -149 5 -138 q -24 -159 -24 -159 q -20 -152 -24 -159 q -12 -133 -17 -144 q -3 -112 -7 -122 q 1 -96 1 -102 q 12 -57 3 -90 q 32 19 20 -24 q 54 100 43 62 q 68 155 64 138 l 75 165 l 106 246 q 110 248 109 247 q 113 257 111 250 q 116 273 114 264 q 121 298 118 286 q 127 321 124 311 q 132 333 130 329 q 134 340 134 337 q 136 347 135 343 q 138 355 137 350 l 123 397 q 110 431 117 412 q 95 471 102 452 q 87 494 91 482 q 71 538 81 517 q 57 561 64 551 q 39 593 49 574 q 18 642 22 629 q 18 651 17 645 q 20 665 18 657 q 23 680 22 673 q 22 692 24 688 q 20 702 20 699 q 19 713 19 706 q 18 726 19 718 q 17 752 18 737 q 16 779 16 767 q 16 790 16 790 l 11 818 l 43 780 q 45 781 43 780 q 52 781 47 781 q 61 780 56 781 q 72 773 66 778 q 92 756 83 764 q 100 749 100 749 l 117 739 q 121 727 117 739 q 131 699 125 715 q 141 671 136 683 q 161 640 149 654 q 178 613 172 626 q 190 589 184 597 q 195 581 193 585 q 195 578 195 579 q 196 577 196 578 q 196 576 196 577 q 197 574 197 576 q 199 571 197 573 q 201 549 200 553 q 202 547 201 547 q 203 546 203 546 q 205 544 204 545 q 208 541 206 543 q 208 541 208 541 l 208 541 q 210 532 209 538 q 228 570 222 557 q 248 625 235 588 q 261 661 255 644 q 273 689 268 678 q 284 719 278 703 q 296 748 291 735 q 302 766 301 762 l 417 818 z "},"z":{"ha":581,"x_min":-54,"x_max":635,"o":"m 54 680 l 54 680 l 54 680 q 54 681 53 680 q 58 684 55 682 q 69 690 63 686 q 75 694 73 692 q 78 696 77 695 q 83 699 80 697 q 90 705 85 701 q 112 715 101 711 q 130 724 121 720 q 146 732 140 730 q 166 743 155 736 q 168 744 167 743 l 169 742 q 181 751 174 747 q 202 767 190 758 q 250 790 222 780 q 272 800 260 794 q 292 806 287 806 l 292 806 q 292 806 292 806 q 295 806 294 806 q 296 806 296 806 q 298 805 297 805 q 300 806 298 805 q 316 812 303 806 q 319 812 318 812 q 320 812 320 812 q 321 812 321 812 q 322 812 321 812 q 324 812 323 812 q 332 813 328 813 q 353 814 339 812 q 377 814 363 816 q 406 813 391 812 q 429 817 416 814 q 452 821 441 819 q 462 823 462 823 l 474 817 l 475 817 l 478 816 q 501 809 486 813 q 509 804 507 807 q 517 802 513 804 l 566 823 q 574 820 568 823 q 586 812 580 817 q 596 804 593 808 q 595 799 600 800 q 592 791 595 799 q 584 772 589 783 q 574 749 579 760 q 564 731 568 738 q 562 728 564 730 q 547 704 555 718 q 524 665 539 691 q 509 639 513 647 q 503 629 506 633 q 495 617 500 624 q 483 599 491 610 q 470 578 474 587 q 463 564 466 570 q 455 546 460 556 q 436 517 450 535 q 342 377 392 458 q 250 222 293 296 q 171 92 195 127 q 217 110 191 102 q 248 121 231 115 q 275 128 269 128 l 275 128 q 276 128 275 128 q 280 128 279 129 q 282 127 281 127 q 284 126 283 126 q 286 126 285 126 q 309 134 292 127 q 313 134 311 134 q 315 134 314 134 q 316 134 315 134 q 317 134 317 134 q 320 134 318 134 q 331 134 324 135 q 359 134 341 132 q 393 132 374 135 q 433 128 412 127 q 464 131 446 129 q 496 135 482 133 q 509 136 509 136 l 527 127 q 538 123 527 127 q 564 113 549 119 q 574 107 570 111 q 581 100 578 103 q 583 94 583 96 q 584 92 584 92 l 635 81 l 606 73 q 595 69 606 73 q 569 59 584 64 q 543 48 555 53 q 531 43 536 45 q 520 40 524 41 q 509 38 516 39 q 497 33 504 37 q 484 24 490 29 q 472 16 477 20 q 463 12 467 13 q 406 10 448 11 q 366 12 383 9 q 338 13 354 12 q 287 8 312 13 q 261 5 274 6 q 216 1 239 3 q 178 -3 195 -1 q 156 -5 169 -4 q 129 -8 142 -7 q 106 -11 115 -9 q 97 -12 97 -12 l 98 -10 q 78 -13 92 -11 q 52 -16 64 -14 q 35 -17 39 -17 q 16 -18 31 -17 q 7 -24 7 -24 q 11 -19 7 -24 q -8 -20 2 -20 q -35 -23 -23 -22 q -50 -24 -47 -24 q -53 -23 -54 -24 q -46 -20 -51 -22 q -31 -12 -39 -17 q -24 -7 -26 -9 q -19 -4 -21 -5 q -13 0 -16 -3 q -2 6 -9 2 q 28 20 13 14 q 37 23 32 21 q 40 31 39 27 q 56 64 42 36 q 87 130 69 92 q 121 200 105 168 q 144 248 137 233 l 151 257 l 193 327 q 197 329 195 328 q 200 336 198 330 q 206 351 203 342 q 225 392 215 373 q 231 402 229 399 q 234 409 233 406 q 237 414 235 411 q 244 429 239 419 q 250 441 248 436 q 259 460 255 452 q 271 478 264 468 q 281 492 276 486 q 298 517 294 509 q 300 522 299 519 q 307 533 303 529 q 309 541 308 535 q 336 577 321 557 q 357 608 351 597 q 385 655 367 623 q 403 687 394 671 q 418 711 412 702 l 418 712 q 391 709 407 711 q 359 709 373 708 q 336 709 350 709 q 296 703 315 707 q 275 698 286 700 q 238 692 257 695 q 208 688 221 690 q 189 685 200 686 q 168 681 178 683 q 150 677 157 679 q 142 676 142 676 l 142 677 q 127 675 138 677 q 105 671 116 673 q 92 669 95 669 q 79 667 89 669 q 57 664 69 665 q 36 660 45 662 q 23 659 26 659 q 21 660 20 659 q 26 663 22 661 q 39 669 32 665 q 44 673 42 672 q 48 676 47 675 q 54 680 51 677 z "},"{":{"ha":605,"x_min":27,"x_max":598,"o":"m 408 1004 l 408 1004 l 408 1004 q 417 1001 409 1005 q 435 992 425 998 q 449 982 444 987 q 450 977 454 978 q 449 971 450 977 q 485 966 475 969 q 493 964 490 964 q 504 959 500 961 q 513 953 509 957 q 523 940 517 949 q 541 918 529 932 q 567 889 553 904 q 589 864 580 874 q 598 853 598 853 q 593 854 598 853 q 579 856 587 854 q 565 857 572 857 q 553 857 557 857 q 527 853 549 855 q 474 847 504 850 q 417 841 444 844 q 410 819 414 831 q 401 787 404 796 q 396 768 399 777 q 384 739 393 759 q 376 715 378 724 q 373 698 374 706 q 369 676 372 689 q 357 643 366 664 q 293 477 324 573 q 237 293 262 381 q 189 144 205 187 q 288 125 245 134 q 311 120 307 121 q 328 120 317 119 q 351 121 339 120 q 371 123 363 122 q 380 123 380 123 q 366 113 380 123 q 331 87 351 102 q 293 58 311 73 q 267 36 275 44 q 251 23 257 28 q 238 17 245 19 q 221 13 232 15 q 210 10 216 12 q 44 1 170 3 q 32 1 38 1 l 32 1 l 32 1 l 27 1 l 41 26 q 48 49 45 38 q 52 65 52 60 q 60 105 54 72 q 75 183 66 139 q 91 267 83 228 q 102 323 98 306 l 108 334 l 134 417 q 136 419 136 418 q 139 428 138 421 q 141 445 140 435 q 144 471 142 458 q 149 494 146 484 q 153 506 151 502 q 155 514 154 511 q 156 521 155 517 q 159 538 157 526 q 162 553 161 546 q 166 575 164 565 q 174 595 169 585 q 181 613 178 605 q 193 642 191 633 q 194 648 193 646 q 197 661 195 656 q 199 670 199 664 q 218 713 208 689 q 233 750 229 737 q 250 806 239 768 q 260 843 255 825 q 269 872 265 861 q 279 903 274 886 q 289 933 285 920 q 294 951 293 947 l 408 1004 z "},"|":{"ha":308,"x_min":31,"x_max":270,"o":"m 228 1069 l 228 1069 l 228 1069 q 221 1065 227 1069 q 209 1057 216 1062 q 197 1046 201 1051 q 195 1041 193 1042 q 192 1031 195 1041 q 185 1008 189 1021 q 178 981 181 994 q 173 960 174 968 q 172 957 172 958 q 168 928 170 944 q 159 882 165 913 q 152 850 154 860 q 148 832 150 842 q 144 803 146 823 q 140 779 142 789 q 135 762 138 770 q 129 741 132 753 q 124 707 126 728 q 98 541 116 637 q 62 357 80 445 q 33 199 37 237 q 33 189 33 194 q 32 168 31 175 q 37 151 33 161 q 45 131 40 145 q 55 102 50 117 q 64 76 60 87 q 67 64 67 64 q 68 73 67 64 q 72 92 70 81 q 75 113 73 102 q 79 130 77 123 q 90 169 81 136 q 110 248 99 203 q 132 331 121 292 q 146 387 142 370 l 146 398 l 163 481 q 162 484 162 482 q 164 492 162 485 q 169 509 166 499 q 177 535 173 522 q 182 558 180 548 q 185 570 184 566 q 186 578 186 575 q 189 585 187 581 q 193 602 190 590 q 197 616 195 610 q 202 638 200 629 q 206 660 204 648 q 208 677 207 669 q 212 706 210 696 q 214 712 213 709 q 217 726 216 720 q 219 734 217 728 q 225 777 222 753 q 230 814 228 802 q 241 870 233 832 q 249 908 245 890 q 254 937 253 926 q 260 967 257 950 q 266 997 263 983 q 270 1016 269 1011 l 228 1069 z "},"}":{"ha":516,"x_min":-7,"x_max":465,"o":"m 376 999 l 376 999 l 376 999 q 368 997 375 1000 q 352 991 361 995 q 335 983 343 987 q 322 976 326 979 q 321 971 317 972 q 319 966 321 971 q 280 960 292 964 q 271 958 275 959 q 258 954 263 956 q 247 947 253 951 q 231 935 241 943 q 202 912 220 926 q 163 884 183 899 q 129 858 143 869 q 114 848 114 848 q 120 848 114 848 q 134 850 126 849 q 150 851 142 851 q 161 851 157 852 q 186 847 165 850 q 236 842 208 845 q 290 836 265 838 q 286 813 288 826 q 280 781 283 791 q 277 763 278 772 q 275 734 276 753 q 273 710 275 719 q 267 692 271 701 q 261 671 264 684 q 258 637 258 659 q 244 472 258 568 q 215 288 231 376 q 193 138 197 182 q 85 119 132 128 q 59 115 65 115 q 42 114 53 114 q 20 116 32 115 q 1 117 9 117 q -7 118 -7 118 q 2 107 -7 118 q 24 82 12 97 q 49 53 37 67 q 65 31 60 39 q 79 14 73 18 q 100 7 85 10 q 110 5 104 6 q 271 -4 146 -2 q 283 -5 277 -4 l 283 -5 l 283 -5 l 288 -5 l 286 21 q 289 43 287 33 q 293 60 291 54 q 304 100 295 66 q 326 178 314 134 q 348 261 338 222 q 363 317 359 300 l 363 328 l 376 412 q 374 414 374 413 q 376 423 374 416 q 381 439 378 430 q 390 466 386 452 q 396 489 394 479 q 398 501 397 496 q 400 508 399 505 q 402 515 401 511 q 407 533 404 520 q 411 547 409 541 q 416 569 414 559 q 419 590 418 579 q 419 608 419 600 q 421 637 420 627 q 423 643 422 640 q 426 656 426 651 q 429 665 426 659 q 430 708 429 684 q 432 745 431 732 q 441 800 435 763 q 448 838 445 820 q 453 867 452 856 q 457 897 454 880 q 461 928 459 914 q 465 946 464 941 l 376 999 z "},"~":{"ha":655,"x_min":64,"x_max":609,"o":"m 64 601 l 64 601 l 64 601 q 97 608 64 601 q 175 622 130 614 q 260 630 220 629 q 312 622 288 631 q 360 601 336 613 q 418 576 386 587 q 492 561 450 564 q 546 564 525 559 q 581 578 568 570 q 600 597 593 587 q 607 613 606 606 q 609 619 609 619 l 601 481 q 593 473 601 481 q 574 455 586 466 q 548 435 562 445 q 518 422 533 426 q 413 427 486 414 q 275 470 340 441 q 208 483 243 484 q 141 473 172 481 q 89 456 109 465 q 69 447 69 447 l 64 601 z "},"":{"ha":456,"x_min":0,"x_max":0,"o":""},"":{"ha":772,"x_min":0,"x_max":0,"o":""},"":{"ha":688,"x_min":0,"x_max":0,"o":""},"":{"ha":688,"x_min":0,"x_max":0,"o":""},"":{"ha":688,"x_min":0,"x_max":0,"o":""},"":{"ha":688,"x_min":0,"x_max":0,"o":""},"":{"ha":688,"x_min":0,"x_max":0,"o":""},"":{"ha":694,"x_min":0,"x_max":0,"o":""},"":{"ha":1135,"x_min":0,"x_max":0,"o":""},"":{"ha":439,"x_min":0,"x_max":0,"o":""},"":{"ha":640,"x_min":0,"x_max":0,"o":""},"":{"ha":688,"x_min":0,"x_max":0,"o":""},"":{"ha":1135,"x_min":0,"x_max":0,"o":""},"":{"ha":694,"x_min":0,"x_max":0,"o":""},"":{"ha":457,"x_min":0,"x_max":0,"o":""},"":{"ha":688,"x_min":0,"x_max":0,"o":""},"":{"ha":688,"x_min":0,"x_max":0,"o":""},"":{"ha":688,"x_min":0,"x_max":0,"o":""},"":{"ha":694,"x_min":0,"x_max":0,"o":""},"":{"ha":800,"x_min":0,"x_max":0,"o":""},"":{"ha":694,"x_min":0,"x_max":0,"o":""},"":{"ha":345,"x_min":0,"x_max":0,"o":""},"":{"ha":694,"x_min":0,"x_max":0,"o":""},"":{"ha":688,"x_min":0,"x_max":0,"o":""},"":{"ha":1032,"x_min":0,"x_max":0,"o":""},"":{"ha":640,"x_min":0,"x_max":0,"o":""},"":{"ha":1158,"x_min":0,"x_max":0,"o":""},"":{"ha":1607,"x_min":0,"x_max":0,"o":""},"":{"ha":1158,"x_min":0,"x_max":0,"o":""},"":{"ha":507,"x_min":0,"x_max":0,"o":""},"":{"ha":1044,"x_min":0,"x_max":0,"o":""},"":{"ha":1044,"x_min":0,"x_max":0,"o":""},"":{"ha":1044,"x_min":0,"x_max":0,"o":""},"":{"ha":1044,"x_min":0,"x_max":0,"o":""},"":{"ha":1044,"x_min":0,"x_max":0,"o":""},"":{"ha":1044,"x_min":0,"x_max":0,"o":""},"":{"ha":1417,"x_min":0,"x_max":0,"o":""},"":{"ha":949,"x_min":0,"x_max":0,"o":""},"":{"ha":781,"x_min":0,"x_max":0,"o":""},"":{"ha":781,"x_min":0,"x_max":0,"o":""},"":{"ha":781,"x_min":0,"x_max":0,"o":""},"":{"ha":781,"x_min":0,"x_max":0,"o":""},"":{"ha":446,"x_min":0,"x_max":0,"o":""},"":{"ha":446,"x_min":0,"x_max":0,"o":""},"":{"ha":446,"x_min":0,"x_max":0,"o":""},"":{"ha":446,"x_min":0,"x_max":0,"o":""},"":{"ha":1029,"x_min":0,"x_max":0,"o":""},"":{"ha":1054,"x_min":0,"x_max":0,"o":""},"":{"ha":1095,"x_min":0,"x_max":0,"o":""},"":{"ha":1095,"x_min":0,"x_max":0,"o":""},"":{"ha":1095,"x_min":0,"x_max":0,"o":""},"":{"ha":1095,"x_min":0,"x_max":0,"o":""},"":{"ha":1095,"x_min":0,"x_max":0,"o":""},"":{"ha":688,"x_min":0,"x_max":0,"o":""},"":{"ha":1095,"x_min":0,"x_max":0,"o":""},"":{"ha":1018,"x_min":0,"x_max":0,"o":""},"":{"ha":1018,"x_min":0,"x_max":0,"o":""},"":{"ha":1018,"x_min":0,"x_max":0,"o":""},"":{"ha":1018,"x_min":0,"x_max":0,"o":""},"":{"ha":836,"x_min":0,"x_max":0,"o":""},"":{"ha":760,"x_min":0,"x_max":0,"o":""},"":{"ha":848,"x_min":0,"x_max":0,"o":""},"":{"ha":625,"x_min":0,"x_max":0,"o":""},"":{"ha":625,"x_min":0,"x_max":0,"o":""},"":{"ha":625,"x_min":0,"x_max":0,"o":""},"":{"ha":625,"x_min":0,"x_max":0,"o":""},"":{"ha":625,"x_min":0,"x_max":0,"o":""},"":{"ha":625,"x_min":0,"x_max":0,"o":""},"":{"ha":984,"x_min":0,"x_max":0,"o":""},"":{"ha":614,"x_min":0,"x_max":0,"o":""},"":{"ha":616,"x_min":0,"x_max":0,"o":""},"":{"ha":616,"x_min":0,"x_max":0,"o":""},"":{"ha":616,"x_min":0,"x_max":0,"o":""},"":{"ha":616,"x_min":0,"x_max":0,"o":""},"":{"ha":349,"x_min":0,"x_max":0,"o":""},"":{"ha":349,"x_min":0,"x_max":0,"o":""},"":{"ha":349,"x_min":0,"x_max":0,"o":""},"":{"ha":349,"x_min":0,"x_max":0,"o":""},"":{"ha":772,"x_min":0,"x_max":0,"o":""},"":{"ha":751,"x_min":0,"x_max":0,"o":""},"":{"ha":685,"x_min":0,"x_max":0,"o":""},"":{"ha":685,"x_min":0,"x_max":0,"o":""},"":{"ha":685,"x_min":0,"x_max":0,"o":""},"":{"ha":685,"x_min":0,"x_max":0,"o":""},"":{"ha":685,"x_min":0,"x_max":0,"o":""},"":{"ha":688,"x_min":0,"x_max":0,"o":""},"":{"ha":685,"x_min":0,"x_max":0,"o":""},"":{"ha":718,"x_min":0,"x_max":0,"o":""},"":{"ha":718,"x_min":0,"x_max":0,"o":""},"":{"ha":718,"x_min":0,"x_max":0,"o":""},"":{"ha":718,"x_min":0,"x_max":0,"o":""},"":{"ha":589,"x_min":0,"x_max":0,"o":""},"":{"ha":685,"x_min":0,"x_max":0,"o":""},"":{"ha":589,"x_min":0,"x_max":0,"o":""},"":{"ha":349,"x_min":0,"x_max":0,"o":""},"":{"ha":300,"x_min":37,"x_max":250,"o":"m 83 1004 l 197 951 q 202 933 198 947 q 212 903 206 920 q 222 872 217 886 q 231 843 226 861 q 241 806 236 825 q 250 776 246 789 l 77 831 q 65 868 70 855 q 56 893 60 881 q 55 896 56 895 q 50 917 52 904 q 45 944 47 930 q 42 967 43 958 q 41 977 41 977 q 42 982 37 978 q 56 992 47 987 q 74 1001 66 998 q 83 1004 82 1005 l 83 1004 l 83 1004 z "},"":{"ha":269,"x_min":43,"x_max":256,"o":"m 210 1004 l 210 1004 l 210 1004 q 220 1001 212 1005 q 237 992 228 998 q 251 982 246 987 q 252 977 256 978 q 251 967 252 977 q 248 944 250 958 q 244 917 246 930 q 238 896 241 904 q 237 893 238 895 q 228 868 233 881 q 216 831 224 855 l 43 776 q 52 806 47 789 q 62 843 57 825 q 71 872 67 861 q 81 903 76 886 q 91 933 87 920 q 96 951 95 947 l 210 1004 z "},"":{"ha":321,"x_min":20,"x_max":284,"o":"m 115 781 l 115 781 l 115 781 q 110 778 114 781 q 102 771 106 775 q 97 763 98 766 q 98 758 95 759 q 100 751 98 758 q 105 733 102 744 q 112 712 108 723 q 94 672 102 691 q 84 649 90 663 q 71 618 78 634 q 52 572 59 587 q 38 543 48 562 q 20 508 28 524 q 74 432 43 472 q 100 484 87 460 q 113 511 109 501 q 119 529 117 522 q 123 543 121 535 q 132 562 126 551 q 144 587 140 579 q 151 602 147 594 q 154 612 152 606 q 158 602 157 606 q 165 587 161 594 q 176 562 168 579 q 185 543 182 551 q 190 529 188 535 q 196 511 192 522 q 209 484 199 501 q 231 439 220 463 q 284 516 258 476 q 268 547 276 531 q 256 572 260 564 q 237 618 250 587 q 224 648 231 633 q 214 672 218 663 q 197 712 206 691 q 203 733 200 723 q 209 751 207 744 q 211 758 211 758 q 212 763 214 759 q 206 771 210 766 q 198 778 202 775 q 193 781 195 781 l 154 758 l 115 781 z "},"":{"ha":638,"x_min":47,"x_max":592,"o":"m 47 949 l 47 949 l 47 949 q 80 956 47 949 q 158 970 113 963 q 243 979 203 977 q 295 970 271 979 q 343 949 319 962 q 401 924 369 936 q 475 909 433 913 q 529 913 508 907 q 564 927 551 918 q 583 945 576 936 q 590 961 589 955 q 592 968 592 968 l 584 829 q 576 822 584 829 q 557 804 569 814 q 531 784 545 793 q 501 770 516 774 q 396 776 469 762 q 258 819 323 789 q 191 831 227 833 q 124 822 155 830 q 72 804 92 813 q 52 795 52 795 l 47 949 z "},"":{"ha":0,"x_min":0,"x_max":0,"o":""},"":{"ha":0,"x_min":0,"x_max":0,"o":""},"":{"ha":0,"x_min":0,"x_max":0,"o":""},"":{"ha":0,"x_min":0,"x_max":0,"o":""},"":{"ha":0,"x_min":0,"x_max":0,"o":""},"":{"ha":0,"x_min":0,"x_max":0,"o":""},"":{"ha":751,"x_min":0,"x_max":0,"o":""},"":{"ha":1389,"x_min":0,"x_max":0,"o":""},"":{"ha":378,"x_min":0,"x_max":0,"o":""},"":{"ha":378,"x_min":0,"x_max":0,"o":""},"":{"ha":378,"x_min":0,"x_max":0,"o":""}}}
